%TF.GenerationSoftware,KiCad,Pcbnew,(5.1.6)-1*%
%TF.CreationDate,2021-01-14T00:20:57+08:00*%
%TF.ProjectId,micro-mp,6d696372-6f2d-46d7-902e-6b696361645f,v0.4*%
%TF.SameCoordinates,Original*%
%TF.FileFunction,Paste,Top*%
%TF.FilePolarity,Positive*%
%FSLAX46Y46*%
G04 Gerber Fmt 4.6, Leading zero omitted, Abs format (unit mm)*
G04 Created by KiCad (PCBNEW (5.1.6)-1) date 2021-01-14 00:20:57*
%MOMM*%
%LPD*%
G01*
G04 APERTURE LIST*
%ADD10R,1.597660X2.298700*%
%ADD11R,2.298700X1.597660*%
%ADD12R,1.500000X1.000000*%
G04 APERTURE END LIST*
%TO.C,D5*%
G36*
G01*
X113450001Y-98825000D02*
X112549999Y-98825000D01*
G75*
G02*
X112300000Y-98575001I0J249999D01*
G01*
X112300000Y-97924999D01*
G75*
G02*
X112549999Y-97675000I249999J0D01*
G01*
X113450001Y-97675000D01*
G75*
G02*
X113700000Y-97924999I0J-249999D01*
G01*
X113700000Y-98575001D01*
G75*
G02*
X113450001Y-98825000I-249999J0D01*
G01*
G37*
G36*
G01*
X113450001Y-100875000D02*
X112549999Y-100875000D01*
G75*
G02*
X112300000Y-100625001I0J249999D01*
G01*
X112300000Y-99974999D01*
G75*
G02*
X112549999Y-99725000I249999J0D01*
G01*
X113450001Y-99725000D01*
G75*
G02*
X113700000Y-99974999I0J-249999D01*
G01*
X113700000Y-100625001D01*
G75*
G02*
X113450001Y-100875000I-249999J0D01*
G01*
G37*
%TD*%
%TO.C,D4*%
G36*
G01*
X111200001Y-98825000D02*
X110299999Y-98825000D01*
G75*
G02*
X110050000Y-98575001I0J249999D01*
G01*
X110050000Y-97924999D01*
G75*
G02*
X110299999Y-97675000I249999J0D01*
G01*
X111200001Y-97675000D01*
G75*
G02*
X111450000Y-97924999I0J-249999D01*
G01*
X111450000Y-98575001D01*
G75*
G02*
X111200001Y-98825000I-249999J0D01*
G01*
G37*
G36*
G01*
X111200001Y-100875000D02*
X110299999Y-100875000D01*
G75*
G02*
X110050000Y-100625001I0J249999D01*
G01*
X110050000Y-99974999D01*
G75*
G02*
X110299999Y-99725000I249999J0D01*
G01*
X111200001Y-99725000D01*
G75*
G02*
X111450000Y-99974999I0J-249999D01*
G01*
X111450000Y-100625001D01*
G75*
G02*
X111200001Y-100875000I-249999J0D01*
G01*
G37*
%TD*%
%TO.C,R9*%
G36*
G01*
X157595000Y-77005001D02*
X157595000Y-76104999D01*
G75*
G02*
X157844999Y-75855000I249999J0D01*
G01*
X158495001Y-75855000D01*
G75*
G02*
X158745000Y-76104999I0J-249999D01*
G01*
X158745000Y-77005001D01*
G75*
G02*
X158495001Y-77255000I-249999J0D01*
G01*
X157844999Y-77255000D01*
G75*
G02*
X157595000Y-77005001I0J249999D01*
G01*
G37*
G36*
G01*
X155545000Y-77005001D02*
X155545000Y-76104999D01*
G75*
G02*
X155794999Y-75855000I249999J0D01*
G01*
X156445001Y-75855000D01*
G75*
G02*
X156695000Y-76104999I0J-249999D01*
G01*
X156695000Y-77005001D01*
G75*
G02*
X156445001Y-77255000I-249999J0D01*
G01*
X155794999Y-77255000D01*
G75*
G02*
X155545000Y-77005001I0J249999D01*
G01*
G37*
%TD*%
%TO.C,D3*%
G36*
G01*
X157625000Y-79650001D02*
X157625000Y-78749999D01*
G75*
G02*
X157874999Y-78500000I249999J0D01*
G01*
X158525001Y-78500000D01*
G75*
G02*
X158775000Y-78749999I0J-249999D01*
G01*
X158775000Y-79650001D01*
G75*
G02*
X158525001Y-79900000I-249999J0D01*
G01*
X157874999Y-79900000D01*
G75*
G02*
X157625000Y-79650001I0J249999D01*
G01*
G37*
G36*
G01*
X155575000Y-79650001D02*
X155575000Y-78749999D01*
G75*
G02*
X155824999Y-78500000I249999J0D01*
G01*
X156475001Y-78500000D01*
G75*
G02*
X156725000Y-78749999I0J-249999D01*
G01*
X156725000Y-79650001D01*
G75*
G02*
X156475001Y-79900000I-249999J0D01*
G01*
X155824999Y-79900000D01*
G75*
G02*
X155575000Y-79650001I0J249999D01*
G01*
G37*
%TD*%
%TO.C,R6*%
G36*
G01*
X193425000Y-80250001D02*
X193425000Y-79349999D01*
G75*
G02*
X193674999Y-79100000I249999J0D01*
G01*
X194325001Y-79100000D01*
G75*
G02*
X194575000Y-79349999I0J-249999D01*
G01*
X194575000Y-80250001D01*
G75*
G02*
X194325001Y-80500000I-249999J0D01*
G01*
X193674999Y-80500000D01*
G75*
G02*
X193425000Y-80250001I0J249999D01*
G01*
G37*
G36*
G01*
X191375000Y-80250001D02*
X191375000Y-79349999D01*
G75*
G02*
X191624999Y-79100000I249999J0D01*
G01*
X192275001Y-79100000D01*
G75*
G02*
X192525000Y-79349999I0J-249999D01*
G01*
X192525000Y-80250001D01*
G75*
G02*
X192275001Y-80500000I-249999J0D01*
G01*
X191624999Y-80500000D01*
G75*
G02*
X191375000Y-80250001I0J249999D01*
G01*
G37*
%TD*%
%TO.C,C2*%
G36*
G01*
X155575000Y-74050001D02*
X155575000Y-73149999D01*
G75*
G02*
X155824999Y-72900000I249999J0D01*
G01*
X156475001Y-72900000D01*
G75*
G02*
X156725000Y-73149999I0J-249999D01*
G01*
X156725000Y-74050001D01*
G75*
G02*
X156475001Y-74300000I-249999J0D01*
G01*
X155824999Y-74300000D01*
G75*
G02*
X155575000Y-74050001I0J249999D01*
G01*
G37*
G36*
G01*
X157625000Y-74050001D02*
X157625000Y-73149999D01*
G75*
G02*
X157874999Y-72900000I249999J0D01*
G01*
X158525001Y-72900000D01*
G75*
G02*
X158775000Y-73149999I0J-249999D01*
G01*
X158775000Y-74050001D01*
G75*
G02*
X158525001Y-74300000I-249999J0D01*
G01*
X157874999Y-74300000D01*
G75*
G02*
X157625000Y-74050001I0J249999D01*
G01*
G37*
%TD*%
D10*
%TO.C,SW6*%
X143000000Y-79549200D03*
X143000000Y-73250000D03*
%TD*%
%TO.C,SW5*%
X200000000Y-93350400D03*
X200000000Y-99649600D03*
%TD*%
D11*
%TO.C,SW4*%
X190045600Y-103969000D03*
X183746400Y-103969000D03*
%TD*%
%TO.C,SW3*%
X180076100Y-103969000D03*
X173776900Y-103969000D03*
%TD*%
%TO.C,SW2*%
X170106600Y-103969000D03*
X163807400Y-103969000D03*
%TD*%
%TO.C,SW1*%
X180088800Y-98939800D03*
X173789600Y-98939800D03*
%TD*%
%TO.C,R2*%
G36*
G01*
X179349999Y-91175000D02*
X180250001Y-91175000D01*
G75*
G02*
X180500000Y-91424999I0J-249999D01*
G01*
X180500000Y-92075001D01*
G75*
G02*
X180250001Y-92325000I-249999J0D01*
G01*
X179349999Y-92325000D01*
G75*
G02*
X179100000Y-92075001I0J249999D01*
G01*
X179100000Y-91424999D01*
G75*
G02*
X179349999Y-91175000I249999J0D01*
G01*
G37*
G36*
G01*
X179349999Y-89125000D02*
X180250001Y-89125000D01*
G75*
G02*
X180500000Y-89374999I0J-249999D01*
G01*
X180500000Y-90025001D01*
G75*
G02*
X180250001Y-90275000I-249999J0D01*
G01*
X179349999Y-90275000D01*
G75*
G02*
X179100000Y-90025001I0J249999D01*
G01*
X179100000Y-89374999D01*
G75*
G02*
X179349999Y-89125000I249999J0D01*
G01*
G37*
%TD*%
%TO.C,D2*%
G36*
G01*
X182750001Y-90275000D02*
X181849999Y-90275000D01*
G75*
G02*
X181600000Y-90025001I0J249999D01*
G01*
X181600000Y-89374999D01*
G75*
G02*
X181849999Y-89125000I249999J0D01*
G01*
X182750001Y-89125000D01*
G75*
G02*
X183000000Y-89374999I0J-249999D01*
G01*
X183000000Y-90025001D01*
G75*
G02*
X182750001Y-90275000I-249999J0D01*
G01*
G37*
G36*
G01*
X182750001Y-92325000D02*
X181849999Y-92325000D01*
G75*
G02*
X181600000Y-92075001I0J249999D01*
G01*
X181600000Y-91424999D01*
G75*
G02*
X181849999Y-91175000I249999J0D01*
G01*
X182750001Y-91175000D01*
G75*
G02*
X183000000Y-91424999I0J-249999D01*
G01*
X183000000Y-92075001D01*
G75*
G02*
X182750001Y-92325000I-249999J0D01*
G01*
G37*
%TD*%
%TO.C,C1*%
G36*
G01*
X183125000Y-86549999D02*
X183125000Y-87450001D01*
G75*
G02*
X182875001Y-87700000I-249999J0D01*
G01*
X182224999Y-87700000D01*
G75*
G02*
X181975000Y-87450001I0J249999D01*
G01*
X181975000Y-86549999D01*
G75*
G02*
X182224999Y-86300000I249999J0D01*
G01*
X182875001Y-86300000D01*
G75*
G02*
X183125000Y-86549999I0J-249999D01*
G01*
G37*
G36*
G01*
X185175000Y-86549999D02*
X185175000Y-87450001D01*
G75*
G02*
X184925001Y-87700000I-249999J0D01*
G01*
X184274999Y-87700000D01*
G75*
G02*
X184025000Y-87450001I0J249999D01*
G01*
X184025000Y-86549999D01*
G75*
G02*
X184274999Y-86300000I249999J0D01*
G01*
X184925001Y-86300000D01*
G75*
G02*
X185175000Y-86549999I0J-249999D01*
G01*
G37*
%TD*%
%TO.C,R3*%
G36*
G01*
X193427999Y-86075000D02*
X194328001Y-86075000D01*
G75*
G02*
X194578000Y-86324999I0J-249999D01*
G01*
X194578000Y-86975001D01*
G75*
G02*
X194328001Y-87225000I-249999J0D01*
G01*
X193427999Y-87225000D01*
G75*
G02*
X193178000Y-86975001I0J249999D01*
G01*
X193178000Y-86324999D01*
G75*
G02*
X193427999Y-86075000I249999J0D01*
G01*
G37*
G36*
G01*
X193427999Y-84025000D02*
X194328001Y-84025000D01*
G75*
G02*
X194578000Y-84274999I0J-249999D01*
G01*
X194578000Y-84925001D01*
G75*
G02*
X194328001Y-85175000I-249999J0D01*
G01*
X193427999Y-85175000D01*
G75*
G02*
X193178000Y-84925001I0J249999D01*
G01*
X193178000Y-84274999D01*
G75*
G02*
X193427999Y-84025000I249999J0D01*
G01*
G37*
%TD*%
%TO.C,R4*%
G36*
G01*
X191185333Y-85175000D02*
X190285331Y-85175000D01*
G75*
G02*
X190035332Y-84925001I0J249999D01*
G01*
X190035332Y-84274999D01*
G75*
G02*
X190285331Y-84025000I249999J0D01*
G01*
X191185333Y-84025000D01*
G75*
G02*
X191435332Y-84274999I0J-249999D01*
G01*
X191435332Y-84925001D01*
G75*
G02*
X191185333Y-85175000I-249999J0D01*
G01*
G37*
G36*
G01*
X191185333Y-87225000D02*
X190285331Y-87225000D01*
G75*
G02*
X190035332Y-86975001I0J249999D01*
G01*
X190035332Y-86324999D01*
G75*
G02*
X190285331Y-86075000I249999J0D01*
G01*
X191185333Y-86075000D01*
G75*
G02*
X191435332Y-86324999I0J-249999D01*
G01*
X191435332Y-86975001D01*
G75*
G02*
X191185333Y-87225000I-249999J0D01*
G01*
G37*
%TD*%
%TO.C,R1*%
G36*
G01*
X187142665Y-86075000D02*
X188042667Y-86075000D01*
G75*
G02*
X188292666Y-86324999I0J-249999D01*
G01*
X188292666Y-86975001D01*
G75*
G02*
X188042667Y-87225000I-249999J0D01*
G01*
X187142665Y-87225000D01*
G75*
G02*
X186892666Y-86975001I0J249999D01*
G01*
X186892666Y-86324999D01*
G75*
G02*
X187142665Y-86075000I249999J0D01*
G01*
G37*
G36*
G01*
X187142665Y-84025000D02*
X188042667Y-84025000D01*
G75*
G02*
X188292666Y-84274999I0J-249999D01*
G01*
X188292666Y-84925001D01*
G75*
G02*
X188042667Y-85175000I-249999J0D01*
G01*
X187142665Y-85175000D01*
G75*
G02*
X186892666Y-84925001I0J249999D01*
G01*
X186892666Y-84274999D01*
G75*
G02*
X187142665Y-84025000I249999J0D01*
G01*
G37*
%TD*%
D12*
%TO.C,D1*%
X188950000Y-74200000D03*
X188950000Y-77400000D03*
X193850000Y-74200000D03*
X193850000Y-77400000D03*
%TD*%
M02*
