%TF.GenerationSoftware,KiCad,Pcbnew,(5.1.6)-1*%
%TF.CreationDate,2021-01-14T00:20:57+08:00*%
%TF.ProjectId,micro-mp,6d696372-6f2d-46d7-902e-6b696361645f,v0.4*%
%TF.SameCoordinates,Original*%
%TF.FileFunction,Paste,Bot*%
%TF.FilePolarity,Positive*%
%FSLAX46Y46*%
G04 Gerber Fmt 4.6, Leading zero omitted, Abs format (unit mm)*
G04 Created by KiCad (PCBNEW (5.1.6)-1) date 2021-01-14 00:20:57*
%MOMM*%
%LPD*%
G01*
G04 APERTURE LIST*
%ADD10R,3.400000X3.400000*%
%ADD11R,0.300000X1.000000*%
%ADD12R,1.000000X0.300000*%
%ADD13R,0.300000X1.160000*%
%ADD14R,0.600000X1.160000*%
G04 APERTURE END LIST*
%TO.C,R11*%
G36*
G01*
X116225000Y-100200001D02*
X116225000Y-99299999D01*
G75*
G02*
X116474999Y-99050000I249999J0D01*
G01*
X117125001Y-99050000D01*
G75*
G02*
X117375000Y-99299999I0J-249999D01*
G01*
X117375000Y-100200001D01*
G75*
G02*
X117125001Y-100450000I-249999J0D01*
G01*
X116474999Y-100450000D01*
G75*
G02*
X116225000Y-100200001I0J249999D01*
G01*
G37*
G36*
G01*
X114175000Y-100200001D02*
X114175000Y-99299999D01*
G75*
G02*
X114424999Y-99050000I249999J0D01*
G01*
X115075001Y-99050000D01*
G75*
G02*
X115325000Y-99299999I0J-249999D01*
G01*
X115325000Y-100200001D01*
G75*
G02*
X115075001Y-100450000I-249999J0D01*
G01*
X114424999Y-100450000D01*
G75*
G02*
X114175000Y-100200001I0J249999D01*
G01*
G37*
%TD*%
%TO.C,R10*%
G36*
G01*
X107550000Y-99299999D02*
X107550000Y-100200001D01*
G75*
G02*
X107300001Y-100450000I-249999J0D01*
G01*
X106649999Y-100450000D01*
G75*
G02*
X106400000Y-100200001I0J249999D01*
G01*
X106400000Y-99299999D01*
G75*
G02*
X106649999Y-99050000I249999J0D01*
G01*
X107300001Y-99050000D01*
G75*
G02*
X107550000Y-99299999I0J-249999D01*
G01*
G37*
G36*
G01*
X109600000Y-99299999D02*
X109600000Y-100200001D01*
G75*
G02*
X109350001Y-100450000I-249999J0D01*
G01*
X108699999Y-100450000D01*
G75*
G02*
X108450000Y-100200001I0J249999D01*
G01*
X108450000Y-99299999D01*
G75*
G02*
X108699999Y-99050000I249999J0D01*
G01*
X109350001Y-99050000D01*
G75*
G02*
X109600000Y-99299999I0J-249999D01*
G01*
G37*
%TD*%
%TO.C,U4*%
G36*
G01*
X147250000Y-98305000D02*
X147250000Y-98005000D01*
G75*
G02*
X147400000Y-97855000I150000J0D01*
G01*
X149050000Y-97855000D01*
G75*
G02*
X149200000Y-98005000I0J-150000D01*
G01*
X149200000Y-98305000D01*
G75*
G02*
X149050000Y-98455000I-150000J0D01*
G01*
X147400000Y-98455000D01*
G75*
G02*
X147250000Y-98305000I0J150000D01*
G01*
G37*
G36*
G01*
X147250000Y-97035000D02*
X147250000Y-96735000D01*
G75*
G02*
X147400000Y-96585000I150000J0D01*
G01*
X149050000Y-96585000D01*
G75*
G02*
X149200000Y-96735000I0J-150000D01*
G01*
X149200000Y-97035000D01*
G75*
G02*
X149050000Y-97185000I-150000J0D01*
G01*
X147400000Y-97185000D01*
G75*
G02*
X147250000Y-97035000I0J150000D01*
G01*
G37*
G36*
G01*
X147250000Y-95765000D02*
X147250000Y-95465000D01*
G75*
G02*
X147400000Y-95315000I150000J0D01*
G01*
X149050000Y-95315000D01*
G75*
G02*
X149200000Y-95465000I0J-150000D01*
G01*
X149200000Y-95765000D01*
G75*
G02*
X149050000Y-95915000I-150000J0D01*
G01*
X147400000Y-95915000D01*
G75*
G02*
X147250000Y-95765000I0J150000D01*
G01*
G37*
G36*
G01*
X147250000Y-94495000D02*
X147250000Y-94195000D01*
G75*
G02*
X147400000Y-94045000I150000J0D01*
G01*
X149050000Y-94045000D01*
G75*
G02*
X149200000Y-94195000I0J-150000D01*
G01*
X149200000Y-94495000D01*
G75*
G02*
X149050000Y-94645000I-150000J0D01*
G01*
X147400000Y-94645000D01*
G75*
G02*
X147250000Y-94495000I0J150000D01*
G01*
G37*
G36*
G01*
X142300000Y-94495000D02*
X142300000Y-94195000D01*
G75*
G02*
X142450000Y-94045000I150000J0D01*
G01*
X144100000Y-94045000D01*
G75*
G02*
X144250000Y-94195000I0J-150000D01*
G01*
X144250000Y-94495000D01*
G75*
G02*
X144100000Y-94645000I-150000J0D01*
G01*
X142450000Y-94645000D01*
G75*
G02*
X142300000Y-94495000I0J150000D01*
G01*
G37*
G36*
G01*
X142300000Y-95765000D02*
X142300000Y-95465000D01*
G75*
G02*
X142450000Y-95315000I150000J0D01*
G01*
X144100000Y-95315000D01*
G75*
G02*
X144250000Y-95465000I0J-150000D01*
G01*
X144250000Y-95765000D01*
G75*
G02*
X144100000Y-95915000I-150000J0D01*
G01*
X142450000Y-95915000D01*
G75*
G02*
X142300000Y-95765000I0J150000D01*
G01*
G37*
G36*
G01*
X142300000Y-97035000D02*
X142300000Y-96735000D01*
G75*
G02*
X142450000Y-96585000I150000J0D01*
G01*
X144100000Y-96585000D01*
G75*
G02*
X144250000Y-96735000I0J-150000D01*
G01*
X144250000Y-97035000D01*
G75*
G02*
X144100000Y-97185000I-150000J0D01*
G01*
X142450000Y-97185000D01*
G75*
G02*
X142300000Y-97035000I0J150000D01*
G01*
G37*
G36*
G01*
X142300000Y-98305000D02*
X142300000Y-98005000D01*
G75*
G02*
X142450000Y-97855000I150000J0D01*
G01*
X144100000Y-97855000D01*
G75*
G02*
X144250000Y-98005000I0J-150000D01*
G01*
X144250000Y-98305000D01*
G75*
G02*
X144100000Y-98455000I-150000J0D01*
G01*
X142450000Y-98455000D01*
G75*
G02*
X142300000Y-98305000I0J150000D01*
G01*
G37*
%TD*%
%TO.C,U5*%
G36*
G01*
X172095000Y-88525000D02*
X171795000Y-88525000D01*
G75*
G02*
X171645000Y-88375000I0J150000D01*
G01*
X171645000Y-86700000D01*
G75*
G02*
X171795000Y-86550000I150000J0D01*
G01*
X172095000Y-86550000D01*
G75*
G02*
X172245000Y-86700000I0J-150000D01*
G01*
X172245000Y-88375000D01*
G75*
G02*
X172095000Y-88525000I-150000J0D01*
G01*
G37*
G36*
G01*
X170825000Y-88525000D02*
X170525000Y-88525000D01*
G75*
G02*
X170375000Y-88375000I0J150000D01*
G01*
X170375000Y-86700000D01*
G75*
G02*
X170525000Y-86550000I150000J0D01*
G01*
X170825000Y-86550000D01*
G75*
G02*
X170975000Y-86700000I0J-150000D01*
G01*
X170975000Y-88375000D01*
G75*
G02*
X170825000Y-88525000I-150000J0D01*
G01*
G37*
G36*
G01*
X169555000Y-88525000D02*
X169255000Y-88525000D01*
G75*
G02*
X169105000Y-88375000I0J150000D01*
G01*
X169105000Y-86700000D01*
G75*
G02*
X169255000Y-86550000I150000J0D01*
G01*
X169555000Y-86550000D01*
G75*
G02*
X169705000Y-86700000I0J-150000D01*
G01*
X169705000Y-88375000D01*
G75*
G02*
X169555000Y-88525000I-150000J0D01*
G01*
G37*
G36*
G01*
X168285000Y-88525000D02*
X167985000Y-88525000D01*
G75*
G02*
X167835000Y-88375000I0J150000D01*
G01*
X167835000Y-86700000D01*
G75*
G02*
X167985000Y-86550000I150000J0D01*
G01*
X168285000Y-86550000D01*
G75*
G02*
X168435000Y-86700000I0J-150000D01*
G01*
X168435000Y-88375000D01*
G75*
G02*
X168285000Y-88525000I-150000J0D01*
G01*
G37*
G36*
G01*
X167015000Y-88525000D02*
X166715000Y-88525000D01*
G75*
G02*
X166565000Y-88375000I0J150000D01*
G01*
X166565000Y-86700000D01*
G75*
G02*
X166715000Y-86550000I150000J0D01*
G01*
X167015000Y-86550000D01*
G75*
G02*
X167165000Y-86700000I0J-150000D01*
G01*
X167165000Y-88375000D01*
G75*
G02*
X167015000Y-88525000I-150000J0D01*
G01*
G37*
G36*
G01*
X165745000Y-88525000D02*
X165445000Y-88525000D01*
G75*
G02*
X165295000Y-88375000I0J150000D01*
G01*
X165295000Y-86700000D01*
G75*
G02*
X165445000Y-86550000I150000J0D01*
G01*
X165745000Y-86550000D01*
G75*
G02*
X165895000Y-86700000I0J-150000D01*
G01*
X165895000Y-88375000D01*
G75*
G02*
X165745000Y-88525000I-150000J0D01*
G01*
G37*
G36*
G01*
X164475000Y-88525000D02*
X164175000Y-88525000D01*
G75*
G02*
X164025000Y-88375000I0J150000D01*
G01*
X164025000Y-86700000D01*
G75*
G02*
X164175000Y-86550000I150000J0D01*
G01*
X164475000Y-86550000D01*
G75*
G02*
X164625000Y-86700000I0J-150000D01*
G01*
X164625000Y-88375000D01*
G75*
G02*
X164475000Y-88525000I-150000J0D01*
G01*
G37*
G36*
G01*
X163205000Y-88525000D02*
X162905000Y-88525000D01*
G75*
G02*
X162755000Y-88375000I0J150000D01*
G01*
X162755000Y-86700000D01*
G75*
G02*
X162905000Y-86550000I150000J0D01*
G01*
X163205000Y-86550000D01*
G75*
G02*
X163355000Y-86700000I0J-150000D01*
G01*
X163355000Y-88375000D01*
G75*
G02*
X163205000Y-88525000I-150000J0D01*
G01*
G37*
G36*
G01*
X163205000Y-95450000D02*
X162905000Y-95450000D01*
G75*
G02*
X162755000Y-95300000I0J150000D01*
G01*
X162755000Y-93625000D01*
G75*
G02*
X162905000Y-93475000I150000J0D01*
G01*
X163205000Y-93475000D01*
G75*
G02*
X163355000Y-93625000I0J-150000D01*
G01*
X163355000Y-95300000D01*
G75*
G02*
X163205000Y-95450000I-150000J0D01*
G01*
G37*
G36*
G01*
X164475000Y-95450000D02*
X164175000Y-95450000D01*
G75*
G02*
X164025000Y-95300000I0J150000D01*
G01*
X164025000Y-93625000D01*
G75*
G02*
X164175000Y-93475000I150000J0D01*
G01*
X164475000Y-93475000D01*
G75*
G02*
X164625000Y-93625000I0J-150000D01*
G01*
X164625000Y-95300000D01*
G75*
G02*
X164475000Y-95450000I-150000J0D01*
G01*
G37*
G36*
G01*
X165745000Y-95450000D02*
X165445000Y-95450000D01*
G75*
G02*
X165295000Y-95300000I0J150000D01*
G01*
X165295000Y-93625000D01*
G75*
G02*
X165445000Y-93475000I150000J0D01*
G01*
X165745000Y-93475000D01*
G75*
G02*
X165895000Y-93625000I0J-150000D01*
G01*
X165895000Y-95300000D01*
G75*
G02*
X165745000Y-95450000I-150000J0D01*
G01*
G37*
G36*
G01*
X167015000Y-95450000D02*
X166715000Y-95450000D01*
G75*
G02*
X166565000Y-95300000I0J150000D01*
G01*
X166565000Y-93625000D01*
G75*
G02*
X166715000Y-93475000I150000J0D01*
G01*
X167015000Y-93475000D01*
G75*
G02*
X167165000Y-93625000I0J-150000D01*
G01*
X167165000Y-95300000D01*
G75*
G02*
X167015000Y-95450000I-150000J0D01*
G01*
G37*
G36*
G01*
X168285000Y-95450000D02*
X167985000Y-95450000D01*
G75*
G02*
X167835000Y-95300000I0J150000D01*
G01*
X167835000Y-93625000D01*
G75*
G02*
X167985000Y-93475000I150000J0D01*
G01*
X168285000Y-93475000D01*
G75*
G02*
X168435000Y-93625000I0J-150000D01*
G01*
X168435000Y-95300000D01*
G75*
G02*
X168285000Y-95450000I-150000J0D01*
G01*
G37*
G36*
G01*
X169555000Y-95450000D02*
X169255000Y-95450000D01*
G75*
G02*
X169105000Y-95300000I0J150000D01*
G01*
X169105000Y-93625000D01*
G75*
G02*
X169255000Y-93475000I150000J0D01*
G01*
X169555000Y-93475000D01*
G75*
G02*
X169705000Y-93625000I0J-150000D01*
G01*
X169705000Y-95300000D01*
G75*
G02*
X169555000Y-95450000I-150000J0D01*
G01*
G37*
G36*
G01*
X170825000Y-95450000D02*
X170525000Y-95450000D01*
G75*
G02*
X170375000Y-95300000I0J150000D01*
G01*
X170375000Y-93625000D01*
G75*
G02*
X170525000Y-93475000I150000J0D01*
G01*
X170825000Y-93475000D01*
G75*
G02*
X170975000Y-93625000I0J-150000D01*
G01*
X170975000Y-95300000D01*
G75*
G02*
X170825000Y-95450000I-150000J0D01*
G01*
G37*
G36*
G01*
X172095000Y-95450000D02*
X171795000Y-95450000D01*
G75*
G02*
X171645000Y-95300000I0J150000D01*
G01*
X171645000Y-93625000D01*
G75*
G02*
X171795000Y-93475000I150000J0D01*
G01*
X172095000Y-93475000D01*
G75*
G02*
X172245000Y-93625000I0J-150000D01*
G01*
X172245000Y-95300000D01*
G75*
G02*
X172095000Y-95450000I-150000J0D01*
G01*
G37*
%TD*%
%TO.C,R8*%
G36*
G01*
X142125000Y-79549999D02*
X142125000Y-80450001D01*
G75*
G02*
X141875001Y-80700000I-249999J0D01*
G01*
X141224999Y-80700000D01*
G75*
G02*
X140975000Y-80450001I0J249999D01*
G01*
X140975000Y-79549999D01*
G75*
G02*
X141224999Y-79300000I249999J0D01*
G01*
X141875001Y-79300000D01*
G75*
G02*
X142125000Y-79549999I0J-249999D01*
G01*
G37*
G36*
G01*
X144175000Y-79549999D02*
X144175000Y-80450001D01*
G75*
G02*
X143925001Y-80700000I-249999J0D01*
G01*
X143274999Y-80700000D01*
G75*
G02*
X143025000Y-80450001I0J249999D01*
G01*
X143025000Y-79549999D01*
G75*
G02*
X143274999Y-79300000I249999J0D01*
G01*
X143925001Y-79300000D01*
G75*
G02*
X144175000Y-79549999I0J-249999D01*
G01*
G37*
%TD*%
%TO.C,R7*%
G36*
G01*
X151850001Y-92725000D02*
X150949999Y-92725000D01*
G75*
G02*
X150700000Y-92475001I0J249999D01*
G01*
X150700000Y-91824999D01*
G75*
G02*
X150949999Y-91575000I249999J0D01*
G01*
X151850001Y-91575000D01*
G75*
G02*
X152100000Y-91824999I0J-249999D01*
G01*
X152100000Y-92475001D01*
G75*
G02*
X151850001Y-92725000I-249999J0D01*
G01*
G37*
G36*
G01*
X151850001Y-94775000D02*
X150949999Y-94775000D01*
G75*
G02*
X150700000Y-94525001I0J249999D01*
G01*
X150700000Y-93874999D01*
G75*
G02*
X150949999Y-93625000I249999J0D01*
G01*
X151850001Y-93625000D01*
G75*
G02*
X152100000Y-93874999I0J-249999D01*
G01*
X152100000Y-94525001D01*
G75*
G02*
X151850001Y-94775000I-249999J0D01*
G01*
G37*
%TD*%
%TO.C,R5*%
G36*
G01*
X154450001Y-92725000D02*
X153549999Y-92725000D01*
G75*
G02*
X153300000Y-92475001I0J249999D01*
G01*
X153300000Y-91824999D01*
G75*
G02*
X153549999Y-91575000I249999J0D01*
G01*
X154450001Y-91575000D01*
G75*
G02*
X154700000Y-91824999I0J-249999D01*
G01*
X154700000Y-92475001D01*
G75*
G02*
X154450001Y-92725000I-249999J0D01*
G01*
G37*
G36*
G01*
X154450001Y-94775000D02*
X153549999Y-94775000D01*
G75*
G02*
X153300000Y-94525001I0J249999D01*
G01*
X153300000Y-93874999D01*
G75*
G02*
X153549999Y-93625000I249999J0D01*
G01*
X154450001Y-93625000D01*
G75*
G02*
X154700000Y-93874999I0J-249999D01*
G01*
X154700000Y-94525001D01*
G75*
G02*
X154450001Y-94775000I-249999J0D01*
G01*
G37*
%TD*%
%TO.C,C6*%
G36*
G01*
X143025000Y-78050001D02*
X143025000Y-77149999D01*
G75*
G02*
X143274999Y-76900000I249999J0D01*
G01*
X143925001Y-76900000D01*
G75*
G02*
X144175000Y-77149999I0J-249999D01*
G01*
X144175000Y-78050001D01*
G75*
G02*
X143925001Y-78300000I-249999J0D01*
G01*
X143274999Y-78300000D01*
G75*
G02*
X143025000Y-78050001I0J249999D01*
G01*
G37*
G36*
G01*
X140975000Y-78050001D02*
X140975000Y-77149999D01*
G75*
G02*
X141224999Y-76900000I249999J0D01*
G01*
X141875001Y-76900000D01*
G75*
G02*
X142125000Y-77149999I0J-249999D01*
G01*
X142125000Y-78050001D01*
G75*
G02*
X141875001Y-78300000I-249999J0D01*
G01*
X141224999Y-78300000D01*
G75*
G02*
X140975000Y-78050001I0J249999D01*
G01*
G37*
%TD*%
D10*
%TO.C,U3*%
X150500000Y-75250000D03*
D11*
X152000000Y-72750000D03*
X151500000Y-72750000D03*
X151000000Y-72750000D03*
X150500000Y-72750000D03*
X150000000Y-72750000D03*
X149500000Y-72750000D03*
D12*
X148000000Y-73750000D03*
X148000000Y-74250000D03*
X148000000Y-74750000D03*
X148000000Y-75250000D03*
X148000000Y-75750000D03*
X148000000Y-76250000D03*
D11*
X149000000Y-77750000D03*
X149500000Y-77750000D03*
X150000000Y-77750000D03*
X150500000Y-77750000D03*
X151000000Y-77750000D03*
X151500000Y-77750000D03*
D12*
X153000000Y-76750000D03*
X153000000Y-76250000D03*
X153000000Y-75750000D03*
X153000000Y-75250000D03*
X153000000Y-74750000D03*
X153000000Y-74250000D03*
X153000000Y-73750000D03*
D11*
X152000000Y-77750000D03*
D12*
X148000000Y-76750000D03*
D11*
X149000000Y-72750000D03*
%TD*%
D13*
%TO.C,J11*%
X164450000Y-77910000D03*
X164950000Y-77910000D03*
X165450000Y-77910000D03*
X163450000Y-77910000D03*
X163950000Y-77910000D03*
X166450000Y-77910000D03*
X165950000Y-77910000D03*
X166950000Y-77910000D03*
D14*
X162800000Y-77910000D03*
X162800000Y-77910000D03*
X162000000Y-77910000D03*
X162000000Y-77910000D03*
X167600000Y-77910000D03*
X168400000Y-77910000D03*
X167600000Y-77910000D03*
X168400000Y-77910000D03*
%TD*%
%TO.C,F1*%
G36*
G01*
X115925000Y-82349999D02*
X115925000Y-83250001D01*
G75*
G02*
X115675001Y-83500000I-249999J0D01*
G01*
X115024999Y-83500000D01*
G75*
G02*
X114775000Y-83250001I0J249999D01*
G01*
X114775000Y-82349999D01*
G75*
G02*
X115024999Y-82100000I249999J0D01*
G01*
X115675001Y-82100000D01*
G75*
G02*
X115925000Y-82349999I0J-249999D01*
G01*
G37*
G36*
G01*
X117975000Y-82349999D02*
X117975000Y-83250001D01*
G75*
G02*
X117725001Y-83500000I-249999J0D01*
G01*
X117074999Y-83500000D01*
G75*
G02*
X116825000Y-83250001I0J249999D01*
G01*
X116825000Y-82349999D01*
G75*
G02*
X117074999Y-82100000I249999J0D01*
G01*
X117725001Y-82100000D01*
G75*
G02*
X117975000Y-82349999I0J-249999D01*
G01*
G37*
%TD*%
%TO.C,C5*%
G36*
G01*
X154349999Y-78425000D02*
X155250001Y-78425000D01*
G75*
G02*
X155500000Y-78674999I0J-249999D01*
G01*
X155500000Y-79325001D01*
G75*
G02*
X155250001Y-79575000I-249999J0D01*
G01*
X154349999Y-79575000D01*
G75*
G02*
X154100000Y-79325001I0J249999D01*
G01*
X154100000Y-78674999D01*
G75*
G02*
X154349999Y-78425000I249999J0D01*
G01*
G37*
G36*
G01*
X154349999Y-76375000D02*
X155250001Y-76375000D01*
G75*
G02*
X155500000Y-76624999I0J-249999D01*
G01*
X155500000Y-77275001D01*
G75*
G02*
X155250001Y-77525000I-249999J0D01*
G01*
X154349999Y-77525000D01*
G75*
G02*
X154100000Y-77275001I0J249999D01*
G01*
X154100000Y-76624999D01*
G75*
G02*
X154349999Y-76375000I249999J0D01*
G01*
G37*
%TD*%
%TO.C,C4*%
G36*
G01*
X150249999Y-81225000D02*
X151150001Y-81225000D01*
G75*
G02*
X151400000Y-81474999I0J-249999D01*
G01*
X151400000Y-82125001D01*
G75*
G02*
X151150001Y-82375000I-249999J0D01*
G01*
X150249999Y-82375000D01*
G75*
G02*
X150000000Y-82125001I0J249999D01*
G01*
X150000000Y-81474999D01*
G75*
G02*
X150249999Y-81225000I249999J0D01*
G01*
G37*
G36*
G01*
X150249999Y-79175000D02*
X151150001Y-79175000D01*
G75*
G02*
X151400000Y-79424999I0J-249999D01*
G01*
X151400000Y-80075001D01*
G75*
G02*
X151150001Y-80325000I-249999J0D01*
G01*
X150249999Y-80325000D01*
G75*
G02*
X150000000Y-80075001I0J249999D01*
G01*
X150000000Y-79424999D01*
G75*
G02*
X150249999Y-79175000I249999J0D01*
G01*
G37*
%TD*%
%TO.C,C3*%
G36*
G01*
X152299999Y-81225000D02*
X153200001Y-81225000D01*
G75*
G02*
X153450000Y-81474999I0J-249999D01*
G01*
X153450000Y-82125001D01*
G75*
G02*
X153200001Y-82375000I-249999J0D01*
G01*
X152299999Y-82375000D01*
G75*
G02*
X152050000Y-82125001I0J249999D01*
G01*
X152050000Y-81474999D01*
G75*
G02*
X152299999Y-81225000I249999J0D01*
G01*
G37*
G36*
G01*
X152299999Y-79175000D02*
X153200001Y-79175000D01*
G75*
G02*
X153450000Y-79424999I0J-249999D01*
G01*
X153450000Y-80075001D01*
G75*
G02*
X153200001Y-80325000I-249999J0D01*
G01*
X152299999Y-80325000D01*
G75*
G02*
X152050000Y-80075001I0J249999D01*
G01*
X152050000Y-79424999D01*
G75*
G02*
X152299999Y-79175000I249999J0D01*
G01*
G37*
%TD*%
M02*
