%TF.GenerationSoftware,KiCad,Pcbnew,(5.1.6)-1*%
%TF.CreationDate,2021-01-14T00:20:57+08:00*%
%TF.ProjectId,micro-mp,6d696372-6f2d-46d7-902e-6b696361645f,v0.4*%
%TF.SameCoordinates,Original*%
%TF.FileFunction,Legend,Top*%
%TF.FilePolarity,Positive*%
%FSLAX46Y46*%
G04 Gerber Fmt 4.6, Leading zero omitted, Abs format (unit mm)*
G04 Created by KiCad (PCBNEW (5.1.6)-1) date 2021-01-14 00:20:57*
%MOMM*%
%LPD*%
G01*
G04 APERTURE LIST*
%ADD10C,0.127000*%
%ADD11C,0.150000*%
%ADD12C,0.120000*%
%ADD13C,0.139700*%
%ADD14C,0.381000*%
%ADD15C,0.010000*%
%ADD16C,0.203200*%
G04 APERTURE END LIST*
D10*
X163733333Y-78661500D02*
X163700000Y-78694833D01*
X163600000Y-78728166D01*
X163533333Y-78728166D01*
X163433333Y-78694833D01*
X163366666Y-78628166D01*
X163333333Y-78561500D01*
X163300000Y-78428166D01*
X163300000Y-78328166D01*
X163333333Y-78194833D01*
X163366666Y-78128166D01*
X163433333Y-78061500D01*
X163533333Y-78028166D01*
X163600000Y-78028166D01*
X163700000Y-78061500D01*
X163733333Y-78094833D01*
X164033333Y-78728166D02*
X164033333Y-78028166D01*
X164300000Y-78028166D01*
X164366666Y-78061500D01*
X164400000Y-78094833D01*
X164433333Y-78161500D01*
X164433333Y-78261500D01*
X164400000Y-78328166D01*
X164366666Y-78361500D01*
X164300000Y-78394833D01*
X164033333Y-78394833D01*
X164700000Y-78094833D02*
X164733333Y-78061500D01*
X164800000Y-78028166D01*
X164966666Y-78028166D01*
X165033333Y-78061500D01*
X165066666Y-78094833D01*
X165100000Y-78161500D01*
X165100000Y-78228166D01*
X165066666Y-78328166D01*
X164666666Y-78728166D01*
X165100000Y-78728166D01*
X165766666Y-78728166D02*
X165366666Y-78728166D01*
X165566666Y-78728166D02*
X165566666Y-78028166D01*
X165500000Y-78128166D01*
X165433333Y-78194833D01*
X165366666Y-78228166D01*
X166200000Y-78028166D02*
X166266666Y-78028166D01*
X166333333Y-78061500D01*
X166366666Y-78094833D01*
X166400000Y-78161500D01*
X166433333Y-78294833D01*
X166433333Y-78461500D01*
X166400000Y-78594833D01*
X166366666Y-78661500D01*
X166333333Y-78694833D01*
X166266666Y-78728166D01*
X166200000Y-78728166D01*
X166133333Y-78694833D01*
X166100000Y-78661500D01*
X166066666Y-78594833D01*
X166033333Y-78461500D01*
X166033333Y-78294833D01*
X166066666Y-78161500D01*
X166100000Y-78094833D01*
X166133333Y-78061500D01*
X166200000Y-78028166D01*
X166700000Y-78094833D02*
X166733333Y-78061500D01*
X166800000Y-78028166D01*
X166966666Y-78028166D01*
X167033333Y-78061500D01*
X167066666Y-78094833D01*
X167100000Y-78161500D01*
X167100000Y-78228166D01*
X167066666Y-78328166D01*
X166666666Y-78728166D01*
X167100000Y-78728166D01*
X164133333Y-79905166D02*
X164100000Y-79905166D01*
X164033333Y-79871833D01*
X163933333Y-79771833D01*
X163766666Y-79571833D01*
X163700000Y-79471833D01*
X163666666Y-79371833D01*
X163666666Y-79305166D01*
X163700000Y-79238500D01*
X163766666Y-79205166D01*
X163800000Y-79205166D01*
X163866666Y-79238500D01*
X163900000Y-79305166D01*
X163900000Y-79338500D01*
X163866666Y-79405166D01*
X163833333Y-79438500D01*
X163633333Y-79571833D01*
X163600000Y-79605166D01*
X163566666Y-79671833D01*
X163566666Y-79771833D01*
X163600000Y-79838500D01*
X163633333Y-79871833D01*
X163700000Y-79905166D01*
X163800000Y-79905166D01*
X163866666Y-79871833D01*
X163900000Y-79838500D01*
X164000000Y-79705166D01*
X164033333Y-79605166D01*
X164033333Y-79538500D01*
X164966666Y-79905166D02*
X164966666Y-79205166D01*
X165233333Y-79205166D01*
X165300000Y-79238500D01*
X165333333Y-79271833D01*
X165366666Y-79338500D01*
X165366666Y-79438500D01*
X165333333Y-79505166D01*
X165300000Y-79538500D01*
X165233333Y-79571833D01*
X164966666Y-79571833D01*
X165600000Y-79205166D02*
X165766666Y-79905166D01*
X165900000Y-79405166D01*
X166033333Y-79905166D01*
X166200000Y-79205166D01*
X166866666Y-79905166D02*
X166633333Y-79571833D01*
X166466666Y-79905166D02*
X166466666Y-79205166D01*
X166733333Y-79205166D01*
X166800000Y-79238500D01*
X166833333Y-79271833D01*
X166866666Y-79338500D01*
X166866666Y-79438500D01*
X166833333Y-79505166D01*
X166800000Y-79538500D01*
X166733333Y-79571833D01*
X166466666Y-79571833D01*
D11*
X160385714Y-107152380D02*
X160385714Y-106152380D01*
X161052380Y-106152380D02*
X161242857Y-106152380D01*
X161338095Y-106200000D01*
X161433333Y-106295238D01*
X161480952Y-106485714D01*
X161480952Y-106819047D01*
X161433333Y-107009523D01*
X161338095Y-107104761D01*
X161242857Y-107152380D01*
X161052380Y-107152380D01*
X160957142Y-107104761D01*
X160861904Y-107009523D01*
X160814285Y-106819047D01*
X160814285Y-106485714D01*
X160861904Y-106295238D01*
X160957142Y-106200000D01*
X161052380Y-106152380D01*
X161671428Y-107247619D02*
X162433333Y-107247619D01*
X162671428Y-106628571D02*
X163004761Y-106628571D01*
X163147619Y-107152380D02*
X162671428Y-107152380D01*
X162671428Y-106152380D01*
X163147619Y-106152380D01*
X163480952Y-107152380D02*
X164004761Y-106485714D01*
X163480952Y-106485714D02*
X164004761Y-107152380D01*
X164385714Y-106485714D02*
X164385714Y-107485714D01*
X164385714Y-106533333D02*
X164480952Y-106485714D01*
X164671428Y-106485714D01*
X164766666Y-106533333D01*
X164814285Y-106580952D01*
X164861904Y-106676190D01*
X164861904Y-106961904D01*
X164814285Y-107057142D01*
X164766666Y-107104761D01*
X164671428Y-107152380D01*
X164480952Y-107152380D01*
X164385714Y-107104761D01*
D12*
X137795000Y-101371400D02*
X137795000Y-101396800D01*
D10*
X142064857Y-98734371D02*
X141716514Y-98734371D01*
X141890685Y-98734371D02*
X141890685Y-98124771D01*
X141832628Y-98211857D01*
X141774571Y-98269914D01*
X141716514Y-98298942D01*
X142442228Y-98124771D02*
X142500285Y-98124771D01*
X142558342Y-98153800D01*
X142587371Y-98182828D01*
X142616400Y-98240885D01*
X142645428Y-98357000D01*
X142645428Y-98502142D01*
X142616400Y-98618257D01*
X142587371Y-98676314D01*
X142558342Y-98705342D01*
X142500285Y-98734371D01*
X142442228Y-98734371D01*
X142384171Y-98705342D01*
X142355142Y-98676314D01*
X142326114Y-98618257D01*
X142297085Y-98502142D01*
X142297085Y-98357000D01*
X142326114Y-98240885D01*
X142355142Y-98182828D01*
X142384171Y-98153800D01*
X142442228Y-98124771D01*
X142906685Y-98734371D02*
X142906685Y-98124771D01*
X143138914Y-98124771D01*
X143196971Y-98153800D01*
X143226000Y-98182828D01*
X143255028Y-98240885D01*
X143255028Y-98327971D01*
X143226000Y-98386028D01*
X143196971Y-98415057D01*
X143138914Y-98444085D01*
X142906685Y-98444085D01*
X143980742Y-98327971D02*
X143980742Y-98937571D01*
X143980742Y-98357000D02*
X144038800Y-98327971D01*
X144154914Y-98327971D01*
X144212971Y-98357000D01*
X144242000Y-98386028D01*
X144271028Y-98444085D01*
X144271028Y-98618257D01*
X144242000Y-98676314D01*
X144212971Y-98705342D01*
X144154914Y-98734371D01*
X144038800Y-98734371D01*
X143980742Y-98705342D01*
X144532285Y-98734371D02*
X144532285Y-98327971D01*
X144532285Y-98124771D02*
X144503257Y-98153800D01*
X144532285Y-98182828D01*
X144561314Y-98153800D01*
X144532285Y-98124771D01*
X144532285Y-98182828D01*
X144822571Y-98327971D02*
X144822571Y-98734371D01*
X144822571Y-98386028D02*
X144851600Y-98357000D01*
X144909657Y-98327971D01*
X144996742Y-98327971D01*
X145054800Y-98357000D01*
X145083828Y-98415057D01*
X145083828Y-98734371D01*
X145461200Y-98734371D02*
X145403142Y-98705342D01*
X145374114Y-98676314D01*
X145345085Y-98618257D01*
X145345085Y-98444085D01*
X145374114Y-98386028D01*
X145403142Y-98357000D01*
X145461200Y-98327971D01*
X145548285Y-98327971D01*
X145606342Y-98357000D01*
X145635371Y-98386028D01*
X145664400Y-98444085D01*
X145664400Y-98618257D01*
X145635371Y-98676314D01*
X145606342Y-98705342D01*
X145548285Y-98734371D01*
X145461200Y-98734371D01*
X146186914Y-98327971D02*
X146186914Y-98734371D01*
X145925657Y-98327971D02*
X145925657Y-98647285D01*
X145954685Y-98705342D01*
X146012742Y-98734371D01*
X146099828Y-98734371D01*
X146157885Y-98705342D01*
X146186914Y-98676314D01*
X146390114Y-98327971D02*
X146622342Y-98327971D01*
X146477200Y-98124771D02*
X146477200Y-98647285D01*
X146506228Y-98705342D01*
X146564285Y-98734371D01*
X146622342Y-98734371D01*
X147290000Y-98327971D02*
X147754457Y-98502142D01*
X147290000Y-98676314D01*
X139437771Y-99775771D02*
X139437771Y-99166171D01*
X139670000Y-99166171D01*
X139728057Y-99195200D01*
X139757085Y-99224228D01*
X139786114Y-99282285D01*
X139786114Y-99369371D01*
X139757085Y-99427428D01*
X139728057Y-99456457D01*
X139670000Y-99485485D01*
X139437771Y-99485485D01*
X140047371Y-99775771D02*
X140047371Y-99166171D01*
X140192514Y-99166171D01*
X140279600Y-99195200D01*
X140337657Y-99253257D01*
X140366685Y-99311314D01*
X140395714Y-99427428D01*
X140395714Y-99514514D01*
X140366685Y-99630628D01*
X140337657Y-99688685D01*
X140279600Y-99746742D01*
X140192514Y-99775771D01*
X140047371Y-99775771D01*
X140918228Y-99369371D02*
X140918228Y-99775771D01*
X140773085Y-99137142D02*
X140627942Y-99572571D01*
X141005314Y-99572571D01*
X141702000Y-99775771D02*
X141702000Y-99166171D01*
X141934228Y-99166171D01*
X141992285Y-99195200D01*
X142021314Y-99224228D01*
X142050342Y-99282285D01*
X142050342Y-99369371D01*
X142021314Y-99427428D01*
X141992285Y-99456457D01*
X141934228Y-99485485D01*
X141702000Y-99485485D01*
X142659942Y-99717714D02*
X142630914Y-99746742D01*
X142543828Y-99775771D01*
X142485771Y-99775771D01*
X142398685Y-99746742D01*
X142340628Y-99688685D01*
X142311600Y-99630628D01*
X142282571Y-99514514D01*
X142282571Y-99427428D01*
X142311600Y-99311314D01*
X142340628Y-99253257D01*
X142398685Y-99195200D01*
X142485771Y-99166171D01*
X142543828Y-99166171D01*
X142630914Y-99195200D01*
X142659942Y-99224228D01*
X143182457Y-99166171D02*
X143066342Y-99166171D01*
X143008285Y-99195200D01*
X142979257Y-99224228D01*
X142921200Y-99311314D01*
X142892171Y-99427428D01*
X142892171Y-99659657D01*
X142921200Y-99717714D01*
X142950228Y-99746742D01*
X143008285Y-99775771D01*
X143124400Y-99775771D01*
X143182457Y-99746742D01*
X143211485Y-99717714D01*
X143240514Y-99659657D01*
X143240514Y-99514514D01*
X143211485Y-99456457D01*
X143182457Y-99427428D01*
X143124400Y-99398400D01*
X143008285Y-99398400D01*
X142950228Y-99427428D01*
X142921200Y-99456457D01*
X142892171Y-99514514D01*
X143966228Y-99775771D02*
X143966228Y-99166171D01*
X144198457Y-99166171D01*
X144256514Y-99195200D01*
X144285542Y-99224228D01*
X144314571Y-99282285D01*
X144314571Y-99369371D01*
X144285542Y-99427428D01*
X144256514Y-99456457D01*
X144198457Y-99485485D01*
X143966228Y-99485485D01*
X144575828Y-99775771D02*
X144575828Y-99166171D01*
X144720971Y-99166171D01*
X144808057Y-99195200D01*
X144866114Y-99253257D01*
X144895142Y-99311314D01*
X144924171Y-99427428D01*
X144924171Y-99514514D01*
X144895142Y-99630628D01*
X144866114Y-99688685D01*
X144808057Y-99746742D01*
X144720971Y-99775771D01*
X144575828Y-99775771D01*
X145127371Y-99166171D02*
X145533771Y-99166171D01*
X145272514Y-99775771D01*
X146230457Y-99775771D02*
X146230457Y-99166171D01*
X146462685Y-99166171D01*
X146520742Y-99195200D01*
X146549771Y-99224228D01*
X146578800Y-99282285D01*
X146578800Y-99369371D01*
X146549771Y-99427428D01*
X146520742Y-99456457D01*
X146462685Y-99485485D01*
X146230457Y-99485485D01*
X147043257Y-99456457D02*
X147130342Y-99485485D01*
X147159371Y-99514514D01*
X147188400Y-99572571D01*
X147188400Y-99659657D01*
X147159371Y-99717714D01*
X147130342Y-99746742D01*
X147072285Y-99775771D01*
X146840057Y-99775771D01*
X146840057Y-99166171D01*
X147043257Y-99166171D01*
X147101314Y-99195200D01*
X147130342Y-99224228D01*
X147159371Y-99282285D01*
X147159371Y-99340342D01*
X147130342Y-99398400D01*
X147101314Y-99427428D01*
X147043257Y-99456457D01*
X146840057Y-99456457D01*
X147768971Y-99775771D02*
X147420628Y-99775771D01*
X147594800Y-99775771D02*
X147594800Y-99166171D01*
X147536742Y-99253257D01*
X147478685Y-99311314D01*
X147420628Y-99340342D01*
X148814000Y-99195200D02*
X148755942Y-99166171D01*
X148668857Y-99166171D01*
X148581771Y-99195200D01*
X148523714Y-99253257D01*
X148494685Y-99311314D01*
X148465657Y-99427428D01*
X148465657Y-99514514D01*
X148494685Y-99630628D01*
X148523714Y-99688685D01*
X148581771Y-99746742D01*
X148668857Y-99775771D01*
X148726914Y-99775771D01*
X148814000Y-99746742D01*
X148843028Y-99717714D01*
X148843028Y-99514514D01*
X148726914Y-99514514D01*
X149104285Y-99775771D02*
X149104285Y-99166171D01*
X149452628Y-99775771D01*
X149452628Y-99166171D01*
X149742914Y-99775771D02*
X149742914Y-99166171D01*
X149888057Y-99166171D01*
X149975142Y-99195200D01*
X150033200Y-99253257D01*
X150062228Y-99311314D01*
X150091257Y-99427428D01*
X150091257Y-99514514D01*
X150062228Y-99630628D01*
X150033200Y-99688685D01*
X149975142Y-99746742D01*
X149888057Y-99775771D01*
X149742914Y-99775771D01*
X139582914Y-100207571D02*
X139786114Y-100817171D01*
X139989314Y-100207571D01*
X140540857Y-100759114D02*
X140511828Y-100788142D01*
X140424742Y-100817171D01*
X140366685Y-100817171D01*
X140279600Y-100788142D01*
X140221542Y-100730085D01*
X140192514Y-100672028D01*
X140163485Y-100555914D01*
X140163485Y-100468828D01*
X140192514Y-100352714D01*
X140221542Y-100294657D01*
X140279600Y-100236600D01*
X140366685Y-100207571D01*
X140424742Y-100207571D01*
X140511828Y-100236600D01*
X140540857Y-100265628D01*
X141150457Y-100759114D02*
X141121428Y-100788142D01*
X141034342Y-100817171D01*
X140976285Y-100817171D01*
X140889200Y-100788142D01*
X140831142Y-100730085D01*
X140802114Y-100672028D01*
X140773085Y-100555914D01*
X140773085Y-100468828D01*
X140802114Y-100352714D01*
X140831142Y-100294657D01*
X140889200Y-100236600D01*
X140976285Y-100207571D01*
X141034342Y-100207571D01*
X141121428Y-100236600D01*
X141150457Y-100265628D01*
X141876171Y-100817171D02*
X141876171Y-100207571D01*
X142108400Y-100207571D01*
X142166457Y-100236600D01*
X142195485Y-100265628D01*
X142224514Y-100323685D01*
X142224514Y-100410771D01*
X142195485Y-100468828D01*
X142166457Y-100497857D01*
X142108400Y-100526885D01*
X141876171Y-100526885D01*
X142688971Y-100497857D02*
X142485771Y-100497857D01*
X142485771Y-100817171D02*
X142485771Y-100207571D01*
X142776057Y-100207571D01*
X143269542Y-100410771D02*
X143269542Y-100817171D01*
X143124400Y-100178542D02*
X142979257Y-100613971D01*
X143356628Y-100613971D01*
X144053314Y-100817171D02*
X144053314Y-100207571D01*
X144285542Y-100207571D01*
X144343600Y-100236600D01*
X144372628Y-100265628D01*
X144401657Y-100323685D01*
X144401657Y-100410771D01*
X144372628Y-100468828D01*
X144343600Y-100497857D01*
X144285542Y-100526885D01*
X144053314Y-100526885D01*
X144866114Y-100497857D02*
X144662914Y-100497857D01*
X144662914Y-100817171D02*
X144662914Y-100207571D01*
X144953200Y-100207571D01*
X145475714Y-100207571D02*
X145185428Y-100207571D01*
X145156400Y-100497857D01*
X145185428Y-100468828D01*
X145243485Y-100439800D01*
X145388628Y-100439800D01*
X145446685Y-100468828D01*
X145475714Y-100497857D01*
X145504742Y-100555914D01*
X145504742Y-100701057D01*
X145475714Y-100759114D01*
X145446685Y-100788142D01*
X145388628Y-100817171D01*
X145243485Y-100817171D01*
X145185428Y-100788142D01*
X145156400Y-100759114D01*
X146230457Y-100817171D02*
X146230457Y-100207571D01*
X146462685Y-100207571D01*
X146520742Y-100236600D01*
X146549771Y-100265628D01*
X146578800Y-100323685D01*
X146578800Y-100410771D01*
X146549771Y-100468828D01*
X146520742Y-100497857D01*
X146462685Y-100526885D01*
X146230457Y-100526885D01*
X147043257Y-100497857D02*
X146840057Y-100497857D01*
X146840057Y-100817171D02*
X146840057Y-100207571D01*
X147130342Y-100207571D01*
X147623828Y-100207571D02*
X147507714Y-100207571D01*
X147449657Y-100236600D01*
X147420628Y-100265628D01*
X147362571Y-100352714D01*
X147333542Y-100468828D01*
X147333542Y-100701057D01*
X147362571Y-100759114D01*
X147391600Y-100788142D01*
X147449657Y-100817171D01*
X147565771Y-100817171D01*
X147623828Y-100788142D01*
X147652857Y-100759114D01*
X147681885Y-100701057D01*
X147681885Y-100555914D01*
X147652857Y-100497857D01*
X147623828Y-100468828D01*
X147565771Y-100439800D01*
X147449657Y-100439800D01*
X147391600Y-100468828D01*
X147362571Y-100497857D01*
X147333542Y-100555914D01*
X148407600Y-100817171D02*
X148407600Y-100207571D01*
X148639828Y-100207571D01*
X148697885Y-100236600D01*
X148726914Y-100265628D01*
X148755942Y-100323685D01*
X148755942Y-100410771D01*
X148726914Y-100468828D01*
X148697885Y-100497857D01*
X148639828Y-100526885D01*
X148407600Y-100526885D01*
X149220400Y-100497857D02*
X149017200Y-100497857D01*
X149017200Y-100817171D02*
X149017200Y-100207571D01*
X149307485Y-100207571D01*
X149481657Y-100207571D02*
X149888057Y-100207571D01*
X149626800Y-100817171D01*
D13*
X115985947Y-98735650D02*
X116348805Y-98735650D01*
X115913376Y-98953364D02*
X116167376Y-98191364D01*
X116421376Y-98953364D01*
X116675376Y-98953364D02*
X116675376Y-98445364D01*
X116675376Y-98590507D02*
X116711662Y-98517935D01*
X116747947Y-98481650D01*
X116820519Y-98445364D01*
X116893090Y-98445364D01*
X117473662Y-98953364D02*
X117473662Y-98191364D01*
X117473662Y-98917078D02*
X117401090Y-98953364D01*
X117255947Y-98953364D01*
X117183376Y-98917078D01*
X117147090Y-98880792D01*
X117110805Y-98808221D01*
X117110805Y-98590507D01*
X117147090Y-98517935D01*
X117183376Y-98481650D01*
X117255947Y-98445364D01*
X117401090Y-98445364D01*
X117473662Y-98481650D01*
X118163090Y-98445364D02*
X118163090Y-98953364D01*
X117836519Y-98445364D02*
X117836519Y-98844507D01*
X117872805Y-98917078D01*
X117945376Y-98953364D01*
X118054233Y-98953364D01*
X118126805Y-98917078D01*
X118163090Y-98880792D01*
X118525947Y-98953364D02*
X118525947Y-98445364D01*
X118525947Y-98191364D02*
X118489662Y-98227650D01*
X118525947Y-98263935D01*
X118562233Y-98227650D01*
X118525947Y-98191364D01*
X118525947Y-98263935D01*
X118888805Y-98445364D02*
X118888805Y-98953364D01*
X118888805Y-98517935D02*
X118925090Y-98481650D01*
X118997662Y-98445364D01*
X119106519Y-98445364D01*
X119179090Y-98481650D01*
X119215376Y-98554221D01*
X119215376Y-98953364D01*
X119687090Y-98953364D02*
X119614519Y-98917078D01*
X119578233Y-98880792D01*
X119541947Y-98808221D01*
X119541947Y-98590507D01*
X119578233Y-98517935D01*
X119614519Y-98481650D01*
X119687090Y-98445364D01*
X119795947Y-98445364D01*
X119868519Y-98481650D01*
X119904805Y-98517935D01*
X119941090Y-98590507D01*
X119941090Y-98808221D01*
X119904805Y-98880792D01*
X119868519Y-98917078D01*
X119795947Y-98953364D01*
X119687090Y-98953364D01*
X120848233Y-98953364D02*
X120848233Y-98191364D01*
X121138519Y-98191364D01*
X121211090Y-98227650D01*
X121247376Y-98263935D01*
X121283662Y-98336507D01*
X121283662Y-98445364D01*
X121247376Y-98517935D01*
X121211090Y-98554221D01*
X121138519Y-98590507D01*
X120848233Y-98590507D01*
X121610233Y-98953364D02*
X121610233Y-98445364D01*
X121610233Y-98590507D02*
X121646519Y-98517935D01*
X121682805Y-98481650D01*
X121755376Y-98445364D01*
X121827947Y-98445364D01*
X122190805Y-98953364D02*
X122118233Y-98917078D01*
X122081947Y-98880792D01*
X122045662Y-98808221D01*
X122045662Y-98590507D01*
X122081947Y-98517935D01*
X122118233Y-98481650D01*
X122190805Y-98445364D01*
X122299662Y-98445364D01*
X122372233Y-98481650D01*
X122408519Y-98517935D01*
X122444805Y-98590507D01*
X122444805Y-98808221D01*
X122408519Y-98880792D01*
X122372233Y-98917078D01*
X122299662Y-98953364D01*
X122190805Y-98953364D01*
X123351947Y-98953364D02*
X123351947Y-98191364D01*
X123605947Y-98735650D01*
X123859947Y-98191364D01*
X123859947Y-98953364D01*
X124222805Y-98953364D02*
X124222805Y-98445364D01*
X124222805Y-98191364D02*
X124186519Y-98227650D01*
X124222805Y-98263935D01*
X124259090Y-98227650D01*
X124222805Y-98191364D01*
X124222805Y-98263935D01*
X124912233Y-98917078D02*
X124839662Y-98953364D01*
X124694519Y-98953364D01*
X124621947Y-98917078D01*
X124585662Y-98880792D01*
X124549376Y-98808221D01*
X124549376Y-98590507D01*
X124585662Y-98517935D01*
X124621947Y-98481650D01*
X124694519Y-98445364D01*
X124839662Y-98445364D01*
X124912233Y-98481650D01*
X125238805Y-98953364D02*
X125238805Y-98445364D01*
X125238805Y-98590507D02*
X125275090Y-98517935D01*
X125311376Y-98481650D01*
X125383947Y-98445364D01*
X125456519Y-98445364D01*
X125819376Y-98953364D02*
X125746805Y-98917078D01*
X125710519Y-98880792D01*
X125674233Y-98808221D01*
X125674233Y-98590507D01*
X125710519Y-98517935D01*
X125746805Y-98481650D01*
X125819376Y-98445364D01*
X125928233Y-98445364D01*
X126000805Y-98481650D01*
X126037090Y-98517935D01*
X126073376Y-98590507D01*
X126073376Y-98808221D01*
X126037090Y-98880792D01*
X126000805Y-98917078D01*
X125928233Y-98953364D01*
X125819376Y-98953364D01*
X127234519Y-98554221D02*
X127343376Y-98590507D01*
X127379662Y-98626792D01*
X127415947Y-98699364D01*
X127415947Y-98808221D01*
X127379662Y-98880792D01*
X127343376Y-98917078D01*
X127270805Y-98953364D01*
X126980519Y-98953364D01*
X126980519Y-98191364D01*
X127234519Y-98191364D01*
X127307090Y-98227650D01*
X127343376Y-98263935D01*
X127379662Y-98336507D01*
X127379662Y-98409078D01*
X127343376Y-98481650D01*
X127307090Y-98517935D01*
X127234519Y-98554221D01*
X126980519Y-98554221D01*
X127742519Y-98953364D02*
X127742519Y-98445364D01*
X127742519Y-98590507D02*
X127778805Y-98517935D01*
X127815090Y-98481650D01*
X127887662Y-98445364D01*
X127960233Y-98445364D01*
X128504519Y-98917078D02*
X128431947Y-98953364D01*
X128286805Y-98953364D01*
X128214233Y-98917078D01*
X128177947Y-98844507D01*
X128177947Y-98554221D01*
X128214233Y-98481650D01*
X128286805Y-98445364D01*
X128431947Y-98445364D01*
X128504519Y-98481650D01*
X128540805Y-98554221D01*
X128540805Y-98626792D01*
X128177947Y-98699364D01*
X129193947Y-98953364D02*
X129193947Y-98554221D01*
X129157662Y-98481650D01*
X129085090Y-98445364D01*
X128939947Y-98445364D01*
X128867376Y-98481650D01*
X129193947Y-98917078D02*
X129121376Y-98953364D01*
X128939947Y-98953364D01*
X128867376Y-98917078D01*
X128831090Y-98844507D01*
X128831090Y-98771935D01*
X128867376Y-98699364D01*
X128939947Y-98663078D01*
X129121376Y-98663078D01*
X129193947Y-98626792D01*
X129556805Y-98953364D02*
X129556805Y-98191364D01*
X129629376Y-98663078D02*
X129847090Y-98953364D01*
X129847090Y-98445364D02*
X129556805Y-98735650D01*
X130282519Y-98953364D02*
X130209947Y-98917078D01*
X130173662Y-98880792D01*
X130137376Y-98808221D01*
X130137376Y-98590507D01*
X130173662Y-98517935D01*
X130209947Y-98481650D01*
X130282519Y-98445364D01*
X130391376Y-98445364D01*
X130463947Y-98481650D01*
X130500233Y-98517935D01*
X130536519Y-98590507D01*
X130536519Y-98808221D01*
X130500233Y-98880792D01*
X130463947Y-98917078D01*
X130391376Y-98953364D01*
X130282519Y-98953364D01*
X131189662Y-98445364D02*
X131189662Y-98953364D01*
X130863090Y-98445364D02*
X130863090Y-98844507D01*
X130899376Y-98917078D01*
X130971947Y-98953364D01*
X131080805Y-98953364D01*
X131153376Y-98917078D01*
X131189662Y-98880792D01*
X131443662Y-98445364D02*
X131733947Y-98445364D01*
X131552519Y-98191364D02*
X131552519Y-98844507D01*
X131588805Y-98917078D01*
X131661376Y-98953364D01*
X131733947Y-98953364D01*
X132495947Y-98445364D02*
X132677376Y-98953364D01*
X132858805Y-98445364D01*
X133294233Y-98191364D02*
X133366805Y-98191364D01*
X133439376Y-98227650D01*
X133475662Y-98263935D01*
X133511947Y-98336507D01*
X133548233Y-98481650D01*
X133548233Y-98663078D01*
X133511947Y-98808221D01*
X133475662Y-98880792D01*
X133439376Y-98917078D01*
X133366805Y-98953364D01*
X133294233Y-98953364D01*
X133221662Y-98917078D01*
X133185376Y-98880792D01*
X133149090Y-98808221D01*
X133112805Y-98663078D01*
X133112805Y-98481650D01*
X133149090Y-98336507D01*
X133185376Y-98263935D01*
X133221662Y-98227650D01*
X133294233Y-98191364D01*
X133874805Y-98880792D02*
X133911090Y-98917078D01*
X133874805Y-98953364D01*
X133838519Y-98917078D01*
X133874805Y-98880792D01*
X133874805Y-98953364D01*
X134564233Y-98445364D02*
X134564233Y-98953364D01*
X134382805Y-98155078D02*
X134201376Y-98699364D01*
X134673090Y-98699364D01*
X116457662Y-100163492D02*
X116421376Y-100199778D01*
X116312519Y-100236064D01*
X116239947Y-100236064D01*
X116131090Y-100199778D01*
X116058519Y-100127207D01*
X116022233Y-100054635D01*
X115985947Y-99909492D01*
X115985947Y-99800635D01*
X116022233Y-99655492D01*
X116058519Y-99582921D01*
X116131090Y-99510350D01*
X116239947Y-99474064D01*
X116312519Y-99474064D01*
X116421376Y-99510350D01*
X116457662Y-99546635D01*
X116711662Y-99728064D02*
X116893090Y-100236064D01*
X117074519Y-99728064D02*
X116893090Y-100236064D01*
X116820519Y-100417492D01*
X116784233Y-100453778D01*
X116711662Y-100490064D01*
X117364805Y-100236064D02*
X117364805Y-99728064D01*
X117364805Y-99873207D02*
X117401090Y-99800635D01*
X117437376Y-99764350D01*
X117509947Y-99728064D01*
X117582519Y-99728064D01*
X118163090Y-99728064D02*
X118163090Y-100236064D01*
X117836519Y-99728064D02*
X117836519Y-100127207D01*
X117872805Y-100199778D01*
X117945376Y-100236064D01*
X118054233Y-100236064D01*
X118126805Y-100199778D01*
X118163090Y-100163492D01*
X118489662Y-100199778D02*
X118562233Y-100236064D01*
X118707376Y-100236064D01*
X118779947Y-100199778D01*
X118816233Y-100127207D01*
X118816233Y-100090921D01*
X118779947Y-100018350D01*
X118707376Y-99982064D01*
X118598519Y-99982064D01*
X118525947Y-99945778D01*
X118489662Y-99873207D01*
X118489662Y-99836921D01*
X118525947Y-99764350D01*
X118598519Y-99728064D01*
X118707376Y-99728064D01*
X118779947Y-99764350D01*
X120158805Y-100163492D02*
X120122519Y-100199778D01*
X120013662Y-100236064D01*
X119941090Y-100236064D01*
X119832233Y-100199778D01*
X119759662Y-100127207D01*
X119723376Y-100054635D01*
X119687090Y-99909492D01*
X119687090Y-99800635D01*
X119723376Y-99655492D01*
X119759662Y-99582921D01*
X119832233Y-99510350D01*
X119941090Y-99474064D01*
X120013662Y-99474064D01*
X120122519Y-99510350D01*
X120158805Y-99546635D01*
X120485376Y-100236064D02*
X120485376Y-99474064D01*
X120811947Y-100236064D02*
X120811947Y-99836921D01*
X120775662Y-99764350D01*
X120703090Y-99728064D01*
X120594233Y-99728064D01*
X120521662Y-99764350D01*
X120485376Y-99800635D01*
X121501376Y-100236064D02*
X121501376Y-99836921D01*
X121465090Y-99764350D01*
X121392519Y-99728064D01*
X121247376Y-99728064D01*
X121174805Y-99764350D01*
X121501376Y-100199778D02*
X121428805Y-100236064D01*
X121247376Y-100236064D01*
X121174805Y-100199778D01*
X121138519Y-100127207D01*
X121138519Y-100054635D01*
X121174805Y-99982064D01*
X121247376Y-99945778D01*
X121428805Y-99945778D01*
X121501376Y-99909492D01*
X121864233Y-99728064D02*
X121864233Y-100236064D01*
X121864233Y-99800635D02*
X121900519Y-99764350D01*
X121973090Y-99728064D01*
X122081947Y-99728064D01*
X122154519Y-99764350D01*
X122190805Y-99836921D01*
X122190805Y-100236064D01*
X123097947Y-99546635D02*
X123134233Y-99510350D01*
X123206805Y-99474064D01*
X123388233Y-99474064D01*
X123460805Y-99510350D01*
X123497090Y-99546635D01*
X123533376Y-99619207D01*
X123533376Y-99691778D01*
X123497090Y-99800635D01*
X123061662Y-100236064D01*
X123533376Y-100236064D01*
X124005090Y-99474064D02*
X124077662Y-99474064D01*
X124150233Y-99510350D01*
X124186519Y-99546635D01*
X124222805Y-99619207D01*
X124259090Y-99764350D01*
X124259090Y-99945778D01*
X124222805Y-100090921D01*
X124186519Y-100163492D01*
X124150233Y-100199778D01*
X124077662Y-100236064D01*
X124005090Y-100236064D01*
X123932519Y-100199778D01*
X123896233Y-100163492D01*
X123859947Y-100090921D01*
X123823662Y-99945778D01*
X123823662Y-99764350D01*
X123859947Y-99619207D01*
X123896233Y-99546635D01*
X123932519Y-99510350D01*
X124005090Y-99474064D01*
X124549376Y-99546635D02*
X124585662Y-99510350D01*
X124658233Y-99474064D01*
X124839662Y-99474064D01*
X124912233Y-99510350D01*
X124948519Y-99546635D01*
X124984805Y-99619207D01*
X124984805Y-99691778D01*
X124948519Y-99800635D01*
X124513090Y-100236064D01*
X124984805Y-100236064D01*
X125710519Y-100236064D02*
X125275090Y-100236064D01*
X125492805Y-100236064D02*
X125492805Y-99474064D01*
X125420233Y-99582921D01*
X125347662Y-99655492D01*
X125275090Y-99691778D01*
D12*
X135620000Y-83600000D02*
X126476000Y-83600000D01*
X135620000Y-84066000D02*
X135620000Y-83600000D01*
X135620000Y-88250000D02*
X135620000Y-84066000D01*
X126476000Y-88250000D02*
X135620000Y-88250000D01*
X126476000Y-83600000D02*
X126476000Y-88250000D01*
D11*
X154813047Y-103957428D02*
X155574952Y-103957428D01*
X140589047Y-108529428D02*
X141350952Y-108529428D01*
X140970000Y-108910380D02*
X140970000Y-108148476D01*
D10*
X196140607Y-87024771D02*
X196343807Y-87634371D01*
X196547007Y-87024771D01*
X197098550Y-87576314D02*
X197069521Y-87605342D01*
X196982435Y-87634371D01*
X196924378Y-87634371D01*
X196837292Y-87605342D01*
X196779235Y-87547285D01*
X196750207Y-87489228D01*
X196721178Y-87373114D01*
X196721178Y-87286028D01*
X196750207Y-87169914D01*
X196779235Y-87111857D01*
X196837292Y-87053800D01*
X196924378Y-87024771D01*
X196982435Y-87024771D01*
X197069521Y-87053800D01*
X197098550Y-87082828D01*
X197708150Y-87576314D02*
X197679121Y-87605342D01*
X197592035Y-87634371D01*
X197533978Y-87634371D01*
X197446892Y-87605342D01*
X197388835Y-87547285D01*
X197359807Y-87489228D01*
X197330778Y-87373114D01*
X197330778Y-87286028D01*
X197359807Y-87169914D01*
X197388835Y-87111857D01*
X197446892Y-87053800D01*
X197533978Y-87024771D01*
X197592035Y-87024771D01*
X197679121Y-87053800D01*
X197708150Y-87082828D01*
X196343807Y-88066171D02*
X196459921Y-88066171D01*
X196517978Y-88095200D01*
X196576035Y-88153257D01*
X196605064Y-88269371D01*
X196605064Y-88472571D01*
X196576035Y-88588685D01*
X196517978Y-88646742D01*
X196459921Y-88675771D01*
X196343807Y-88675771D01*
X196285750Y-88646742D01*
X196227692Y-88588685D01*
X196198664Y-88472571D01*
X196198664Y-88269371D01*
X196227692Y-88153257D01*
X196285750Y-88095200D01*
X196343807Y-88066171D01*
X196866321Y-88066171D02*
X196866321Y-88559657D01*
X196895350Y-88617714D01*
X196924378Y-88646742D01*
X196982435Y-88675771D01*
X197098550Y-88675771D01*
X197156607Y-88646742D01*
X197185635Y-88617714D01*
X197214664Y-88559657D01*
X197214664Y-88066171D01*
X197417864Y-88066171D02*
X197766207Y-88066171D01*
X197592035Y-88675771D02*
X197592035Y-88066171D01*
X196547007Y-89136600D02*
X196488950Y-89107571D01*
X196401864Y-89107571D01*
X196314778Y-89136600D01*
X196256721Y-89194657D01*
X196227692Y-89252714D01*
X196198664Y-89368828D01*
X196198664Y-89455914D01*
X196227692Y-89572028D01*
X196256721Y-89630085D01*
X196314778Y-89688142D01*
X196401864Y-89717171D01*
X196459921Y-89717171D01*
X196547007Y-89688142D01*
X196576035Y-89659114D01*
X196576035Y-89455914D01*
X196459921Y-89455914D01*
X196837292Y-89717171D02*
X196837292Y-89107571D01*
X197185635Y-89717171D01*
X197185635Y-89107571D01*
X197475921Y-89717171D02*
X197475921Y-89107571D01*
X197621064Y-89107571D01*
X197708150Y-89136600D01*
X197766207Y-89194657D01*
X197795235Y-89252714D01*
X197824264Y-89368828D01*
X197824264Y-89455914D01*
X197795235Y-89572028D01*
X197766207Y-89630085D01*
X197708150Y-89688142D01*
X197621064Y-89717171D01*
X197475921Y-89717171D01*
X191976035Y-109055071D02*
X191772835Y-108764785D01*
X191627692Y-109055071D02*
X191627692Y-108445471D01*
X191859921Y-108445471D01*
X191917978Y-108474500D01*
X191947007Y-108503528D01*
X191976035Y-108561585D01*
X191976035Y-108648671D01*
X191947007Y-108706728D01*
X191917978Y-108735757D01*
X191859921Y-108764785D01*
X191627692Y-108764785D01*
X192179235Y-108445471D02*
X192585635Y-109055071D01*
X192585635Y-108445471D02*
X192179235Y-109055071D01*
X193253292Y-108416442D02*
X192730778Y-109200214D01*
X193369407Y-108445471D02*
X193717750Y-108445471D01*
X193543578Y-109055071D02*
X193543578Y-108445471D01*
X193862892Y-108445471D02*
X194269292Y-109055071D01*
X194269292Y-108445471D02*
X193862892Y-109055071D01*
X191947007Y-109515900D02*
X191888950Y-109486871D01*
X191801864Y-109486871D01*
X191714778Y-109515900D01*
X191656721Y-109573957D01*
X191627692Y-109632014D01*
X191598664Y-109748128D01*
X191598664Y-109835214D01*
X191627692Y-109951328D01*
X191656721Y-110009385D01*
X191714778Y-110067442D01*
X191801864Y-110096471D01*
X191859921Y-110096471D01*
X191947007Y-110067442D01*
X191976035Y-110038414D01*
X191976035Y-109835214D01*
X191859921Y-109835214D01*
X192237292Y-110096471D02*
X192237292Y-109486871D01*
X192585635Y-110096471D01*
X192585635Y-109486871D01*
X192875921Y-110096471D02*
X192875921Y-109486871D01*
X193021064Y-109486871D01*
X193108150Y-109515900D01*
X193166207Y-109573957D01*
X193195235Y-109632014D01*
X193224264Y-109748128D01*
X193224264Y-109835214D01*
X193195235Y-109951328D01*
X193166207Y-110009385D01*
X193108150Y-110067442D01*
X193021064Y-110096471D01*
X192875921Y-110096471D01*
D11*
X171154761Y-72702380D02*
X170821428Y-72226190D01*
X170583333Y-72702380D02*
X170583333Y-71702380D01*
X170964285Y-71702380D01*
X171059523Y-71750000D01*
X171107142Y-71797619D01*
X171154761Y-71892857D01*
X171154761Y-72035714D01*
X171107142Y-72130952D01*
X171059523Y-72178571D01*
X170964285Y-72226190D01*
X170583333Y-72226190D01*
X171535714Y-72654761D02*
X171678571Y-72702380D01*
X171916666Y-72702380D01*
X172011904Y-72654761D01*
X172059523Y-72607142D01*
X172107142Y-72511904D01*
X172107142Y-72416666D01*
X172059523Y-72321428D01*
X172011904Y-72273809D01*
X171916666Y-72226190D01*
X171726190Y-72178571D01*
X171630952Y-72130952D01*
X171583333Y-72083333D01*
X171535714Y-71988095D01*
X171535714Y-71892857D01*
X171583333Y-71797619D01*
X171630952Y-71750000D01*
X171726190Y-71702380D01*
X171964285Y-71702380D01*
X172107142Y-71750000D01*
X172964285Y-72035714D02*
X172964285Y-72702380D01*
X172726190Y-71654761D02*
X172488095Y-72369047D01*
X173107142Y-72369047D01*
X173630952Y-72130952D02*
X173535714Y-72083333D01*
X173488095Y-72035714D01*
X173440476Y-71940476D01*
X173440476Y-71892857D01*
X173488095Y-71797619D01*
X173535714Y-71750000D01*
X173630952Y-71702380D01*
X173821428Y-71702380D01*
X173916666Y-71750000D01*
X173964285Y-71797619D01*
X174011904Y-71892857D01*
X174011904Y-71940476D01*
X173964285Y-72035714D01*
X173916666Y-72083333D01*
X173821428Y-72130952D01*
X173630952Y-72130952D01*
X173535714Y-72178571D01*
X173488095Y-72226190D01*
X173440476Y-72321428D01*
X173440476Y-72511904D01*
X173488095Y-72607142D01*
X173535714Y-72654761D01*
X173630952Y-72702380D01*
X173821428Y-72702380D01*
X173916666Y-72654761D01*
X173964285Y-72607142D01*
X174011904Y-72511904D01*
X174011904Y-72321428D01*
X173964285Y-72226190D01*
X173916666Y-72178571D01*
X173821428Y-72130952D01*
X174916666Y-71702380D02*
X174440476Y-71702380D01*
X174392857Y-72178571D01*
X174440476Y-72130952D01*
X174535714Y-72083333D01*
X174773809Y-72083333D01*
X174869047Y-72130952D01*
X174916666Y-72178571D01*
X174964285Y-72273809D01*
X174964285Y-72511904D01*
X174916666Y-72607142D01*
X174869047Y-72654761D01*
X174773809Y-72702380D01*
X174535714Y-72702380D01*
X174440476Y-72654761D01*
X174392857Y-72607142D01*
X174823428Y-78160571D02*
X174966285Y-78208190D01*
X175013904Y-78255809D01*
X175061523Y-78351047D01*
X175061523Y-78493904D01*
X175013904Y-78589142D01*
X174966285Y-78636761D01*
X174871047Y-78684380D01*
X174490095Y-78684380D01*
X174490095Y-77684380D01*
X174823428Y-77684380D01*
X174918666Y-77732000D01*
X174966285Y-77779619D01*
X175013904Y-77874857D01*
X175013904Y-77970095D01*
X174966285Y-78065333D01*
X174918666Y-78112952D01*
X174823428Y-78160571D01*
X174490095Y-78160571D01*
X186197904Y-78652666D02*
X186674095Y-78652666D01*
X186102666Y-78938380D02*
X186436000Y-77938380D01*
X186769333Y-78938380D01*
D10*
X172313600Y-84023200D02*
X172255542Y-83994171D01*
X172168457Y-83994171D01*
X172081371Y-84023200D01*
X172023314Y-84081257D01*
X171994285Y-84139314D01*
X171965257Y-84255428D01*
X171965257Y-84342514D01*
X171994285Y-84458628D01*
X172023314Y-84516685D01*
X172081371Y-84574742D01*
X172168457Y-84603771D01*
X172226514Y-84603771D01*
X172313600Y-84574742D01*
X172342628Y-84545714D01*
X172342628Y-84342514D01*
X172226514Y-84342514D01*
X172603885Y-84603771D02*
X172603885Y-83994171D01*
X172952228Y-84603771D01*
X172952228Y-83994171D01*
X173242514Y-84603771D02*
X173242514Y-83994171D01*
X173387657Y-83994171D01*
X173474742Y-84023200D01*
X173532800Y-84081257D01*
X173561828Y-84139314D01*
X173590857Y-84255428D01*
X173590857Y-84342514D01*
X173561828Y-84458628D01*
X173532800Y-84516685D01*
X173474742Y-84574742D01*
X173387657Y-84603771D01*
X173242514Y-84603771D01*
X174229485Y-83994171D02*
X174432685Y-84603771D01*
X174635885Y-83994171D01*
X175187428Y-84545714D02*
X175158400Y-84574742D01*
X175071314Y-84603771D01*
X175013257Y-84603771D01*
X174926171Y-84574742D01*
X174868114Y-84516685D01*
X174839085Y-84458628D01*
X174810057Y-84342514D01*
X174810057Y-84255428D01*
X174839085Y-84139314D01*
X174868114Y-84081257D01*
X174926171Y-84023200D01*
X175013257Y-83994171D01*
X175071314Y-83994171D01*
X175158400Y-84023200D01*
X175187428Y-84052228D01*
X175797028Y-84545714D02*
X175768000Y-84574742D01*
X175680914Y-84603771D01*
X175622857Y-84603771D01*
X175535771Y-84574742D01*
X175477714Y-84516685D01*
X175448685Y-84458628D01*
X175419657Y-84342514D01*
X175419657Y-84255428D01*
X175448685Y-84139314D01*
X175477714Y-84081257D01*
X175535771Y-84023200D01*
X175622857Y-83994171D01*
X175680914Y-83994171D01*
X175768000Y-84023200D01*
X175797028Y-84052228D01*
X176493714Y-84574742D02*
X176580800Y-84603771D01*
X176725942Y-84603771D01*
X176784000Y-84574742D01*
X176813028Y-84545714D01*
X176842057Y-84487657D01*
X176842057Y-84429600D01*
X176813028Y-84371542D01*
X176784000Y-84342514D01*
X176725942Y-84313485D01*
X176609828Y-84284457D01*
X176551771Y-84255428D01*
X176522742Y-84226400D01*
X176493714Y-84168342D01*
X176493714Y-84110285D01*
X176522742Y-84052228D01*
X176551771Y-84023200D01*
X176609828Y-83994171D01*
X176754971Y-83994171D01*
X176842057Y-84023200D01*
X177451657Y-84545714D02*
X177422628Y-84574742D01*
X177335542Y-84603771D01*
X177277485Y-84603771D01*
X177190400Y-84574742D01*
X177132342Y-84516685D01*
X177103314Y-84458628D01*
X177074285Y-84342514D01*
X177074285Y-84255428D01*
X177103314Y-84139314D01*
X177132342Y-84081257D01*
X177190400Y-84023200D01*
X177277485Y-83994171D01*
X177335542Y-83994171D01*
X177422628Y-84023200D01*
X177451657Y-84052228D01*
X178003200Y-84603771D02*
X177712914Y-84603771D01*
X177712914Y-83994171D01*
X178641828Y-84574742D02*
X178728914Y-84603771D01*
X178874057Y-84603771D01*
X178932114Y-84574742D01*
X178961142Y-84545714D01*
X178990171Y-84487657D01*
X178990171Y-84429600D01*
X178961142Y-84371542D01*
X178932114Y-84342514D01*
X178874057Y-84313485D01*
X178757942Y-84284457D01*
X178699885Y-84255428D01*
X178670857Y-84226400D01*
X178641828Y-84168342D01*
X178641828Y-84110285D01*
X178670857Y-84052228D01*
X178699885Y-84023200D01*
X178757942Y-83994171D01*
X178903085Y-83994171D01*
X178990171Y-84023200D01*
X179251428Y-84603771D02*
X179251428Y-83994171D01*
X179396571Y-83994171D01*
X179483657Y-84023200D01*
X179541714Y-84081257D01*
X179570742Y-84139314D01*
X179599771Y-84255428D01*
X179599771Y-84342514D01*
X179570742Y-84458628D01*
X179541714Y-84516685D01*
X179483657Y-84574742D01*
X179396571Y-84603771D01*
X179251428Y-84603771D01*
X179832000Y-84429600D02*
X180122285Y-84429600D01*
X179773942Y-84603771D02*
X179977142Y-83994171D01*
X180180342Y-84603771D01*
X155595200Y-94562400D02*
X155566171Y-94620457D01*
X155566171Y-94707542D01*
X155595200Y-94794628D01*
X155653257Y-94852685D01*
X155711314Y-94881714D01*
X155827428Y-94910742D01*
X155914514Y-94910742D01*
X156030628Y-94881714D01*
X156088685Y-94852685D01*
X156146742Y-94794628D01*
X156175771Y-94707542D01*
X156175771Y-94649485D01*
X156146742Y-94562400D01*
X156117714Y-94533371D01*
X155914514Y-94533371D01*
X155914514Y-94649485D01*
X156175771Y-94272114D02*
X155566171Y-94272114D01*
X156175771Y-93923771D01*
X155566171Y-93923771D01*
X156175771Y-93633485D02*
X155566171Y-93633485D01*
X155566171Y-93488342D01*
X155595200Y-93401257D01*
X155653257Y-93343200D01*
X155711314Y-93314171D01*
X155827428Y-93285142D01*
X155914514Y-93285142D01*
X156030628Y-93314171D01*
X156088685Y-93343200D01*
X156146742Y-93401257D01*
X156175771Y-93488342D01*
X156175771Y-93633485D01*
X155566171Y-92646514D02*
X156175771Y-92443314D01*
X155566171Y-92240114D01*
X156117714Y-91688571D02*
X156146742Y-91717600D01*
X156175771Y-91804685D01*
X156175771Y-91862742D01*
X156146742Y-91949828D01*
X156088685Y-92007885D01*
X156030628Y-92036914D01*
X155914514Y-92065942D01*
X155827428Y-92065942D01*
X155711314Y-92036914D01*
X155653257Y-92007885D01*
X155595200Y-91949828D01*
X155566171Y-91862742D01*
X155566171Y-91804685D01*
X155595200Y-91717600D01*
X155624228Y-91688571D01*
X156117714Y-91078971D02*
X156146742Y-91108000D01*
X156175771Y-91195085D01*
X156175771Y-91253142D01*
X156146742Y-91340228D01*
X156088685Y-91398285D01*
X156030628Y-91427314D01*
X155914514Y-91456342D01*
X155827428Y-91456342D01*
X155711314Y-91427314D01*
X155653257Y-91398285D01*
X155595200Y-91340228D01*
X155566171Y-91253142D01*
X155566171Y-91195085D01*
X155595200Y-91108000D01*
X155624228Y-91078971D01*
X156146742Y-90382285D02*
X156175771Y-90295200D01*
X156175771Y-90150057D01*
X156146742Y-90092000D01*
X156117714Y-90062971D01*
X156059657Y-90033942D01*
X156001600Y-90033942D01*
X155943542Y-90062971D01*
X155914514Y-90092000D01*
X155885485Y-90150057D01*
X155856457Y-90266171D01*
X155827428Y-90324228D01*
X155798400Y-90353257D01*
X155740342Y-90382285D01*
X155682285Y-90382285D01*
X155624228Y-90353257D01*
X155595200Y-90324228D01*
X155566171Y-90266171D01*
X155566171Y-90121028D01*
X155595200Y-90033942D01*
X156117714Y-89424342D02*
X156146742Y-89453371D01*
X156175771Y-89540457D01*
X156175771Y-89598514D01*
X156146742Y-89685600D01*
X156088685Y-89743657D01*
X156030628Y-89772685D01*
X155914514Y-89801714D01*
X155827428Y-89801714D01*
X155711314Y-89772685D01*
X155653257Y-89743657D01*
X155595200Y-89685600D01*
X155566171Y-89598514D01*
X155566171Y-89540457D01*
X155595200Y-89453371D01*
X155624228Y-89424342D01*
X156175771Y-88872800D02*
X156175771Y-89163085D01*
X155566171Y-89163085D01*
X156146742Y-88234171D02*
X156175771Y-88147085D01*
X156175771Y-88001942D01*
X156146742Y-87943885D01*
X156117714Y-87914857D01*
X156059657Y-87885828D01*
X156001600Y-87885828D01*
X155943542Y-87914857D01*
X155914514Y-87943885D01*
X155885485Y-88001942D01*
X155856457Y-88118057D01*
X155827428Y-88176114D01*
X155798400Y-88205142D01*
X155740342Y-88234171D01*
X155682285Y-88234171D01*
X155624228Y-88205142D01*
X155595200Y-88176114D01*
X155566171Y-88118057D01*
X155566171Y-87972914D01*
X155595200Y-87885828D01*
X156175771Y-87624571D02*
X155566171Y-87624571D01*
X155566171Y-87479428D01*
X155595200Y-87392342D01*
X155653257Y-87334285D01*
X155711314Y-87305257D01*
X155827428Y-87276228D01*
X155914514Y-87276228D01*
X156030628Y-87305257D01*
X156088685Y-87334285D01*
X156146742Y-87392342D01*
X156175771Y-87479428D01*
X156175771Y-87624571D01*
X156001600Y-87044000D02*
X156001600Y-86753714D01*
X156175771Y-87102057D02*
X155566171Y-86898857D01*
X156175771Y-86695657D01*
D11*
X140752380Y-76947619D02*
X140276190Y-77280952D01*
X140752380Y-77519047D02*
X139752380Y-77519047D01*
X139752380Y-77138095D01*
X139800000Y-77042857D01*
X139847619Y-76995238D01*
X139942857Y-76947619D01*
X140085714Y-76947619D01*
X140180952Y-76995238D01*
X140228571Y-77042857D01*
X140276190Y-77138095D01*
X140276190Y-77519047D01*
X140704761Y-76566666D02*
X140752380Y-76423809D01*
X140752380Y-76185714D01*
X140704761Y-76090476D01*
X140657142Y-76042857D01*
X140561904Y-75995238D01*
X140466666Y-75995238D01*
X140371428Y-76042857D01*
X140323809Y-76090476D01*
X140276190Y-76185714D01*
X140228571Y-76376190D01*
X140180952Y-76471428D01*
X140133333Y-76519047D01*
X140038095Y-76566666D01*
X139942857Y-76566666D01*
X139847619Y-76519047D01*
X139800000Y-76471428D01*
X139752380Y-76376190D01*
X139752380Y-76138095D01*
X139800000Y-75995238D01*
X139752380Y-75709523D02*
X139752380Y-75138095D01*
X140752380Y-75423809D02*
X139752380Y-75423809D01*
D10*
X127131864Y-84104071D02*
X127131864Y-84539500D01*
X127102835Y-84626585D01*
X127044778Y-84684642D01*
X126957692Y-84713671D01*
X126899635Y-84713671D01*
X127422150Y-84713671D02*
X127422150Y-84104071D01*
X127654378Y-84104071D01*
X127712435Y-84133100D01*
X127741464Y-84162128D01*
X127770492Y-84220185D01*
X127770492Y-84307271D01*
X127741464Y-84365328D01*
X127712435Y-84394357D01*
X127654378Y-84423385D01*
X127422150Y-84423385D01*
X128002721Y-84162128D02*
X128031750Y-84133100D01*
X128089807Y-84104071D01*
X128234950Y-84104071D01*
X128293007Y-84133100D01*
X128322035Y-84162128D01*
X128351064Y-84220185D01*
X128351064Y-84278242D01*
X128322035Y-84365328D01*
X127973692Y-84713671D01*
X128351064Y-84713671D01*
X128612321Y-84655614D02*
X128641350Y-84684642D01*
X128612321Y-84713671D01*
X128583292Y-84684642D01*
X128612321Y-84655614D01*
X128612321Y-84713671D01*
X128612321Y-84336300D02*
X128641350Y-84365328D01*
X128612321Y-84394357D01*
X128583292Y-84365328D01*
X128612321Y-84336300D01*
X128612321Y-84394357D01*
X129715407Y-84713671D02*
X129512207Y-84423385D01*
X129367064Y-84713671D02*
X129367064Y-84104071D01*
X129599292Y-84104071D01*
X129657350Y-84133100D01*
X129686378Y-84162128D01*
X129715407Y-84220185D01*
X129715407Y-84307271D01*
X129686378Y-84365328D01*
X129657350Y-84394357D01*
X129599292Y-84423385D01*
X129367064Y-84423385D01*
X129947635Y-84539500D02*
X130237921Y-84539500D01*
X129889578Y-84713671D02*
X130092778Y-84104071D01*
X130295978Y-84713671D01*
X130441121Y-84104071D02*
X130586264Y-84713671D01*
X130702378Y-84278242D01*
X130818492Y-84713671D01*
X130963635Y-84104071D01*
X131660321Y-84481442D02*
X132124778Y-84481442D01*
X132792435Y-84104071D02*
X133140778Y-84104071D01*
X132966607Y-84713671D02*
X132966607Y-84104071D01*
X133285921Y-84307271D02*
X133431064Y-84713671D01*
X133576207Y-84307271D02*
X133431064Y-84713671D01*
X133373007Y-84858814D01*
X133343978Y-84887842D01*
X133285921Y-84916871D01*
X133808435Y-84307271D02*
X133808435Y-84916871D01*
X133808435Y-84336300D02*
X133866492Y-84307271D01*
X133982607Y-84307271D01*
X134040664Y-84336300D01*
X134069692Y-84365328D01*
X134098721Y-84423385D01*
X134098721Y-84597557D01*
X134069692Y-84655614D01*
X134040664Y-84684642D01*
X133982607Y-84713671D01*
X133866492Y-84713671D01*
X133808435Y-84684642D01*
X134592207Y-84684642D02*
X134534150Y-84713671D01*
X134418035Y-84713671D01*
X134359978Y-84684642D01*
X134330950Y-84626585D01*
X134330950Y-84394357D01*
X134359978Y-84336300D01*
X134418035Y-84307271D01*
X134534150Y-84307271D01*
X134592207Y-84336300D01*
X134621235Y-84394357D01*
X134621235Y-84452414D01*
X134330950Y-84510471D01*
X135230835Y-84655614D02*
X135201807Y-84684642D01*
X135114721Y-84713671D01*
X135056664Y-84713671D01*
X134969578Y-84684642D01*
X134911521Y-84626585D01*
X134882492Y-84568528D01*
X134853464Y-84452414D01*
X134853464Y-84365328D01*
X134882492Y-84249214D01*
X134911521Y-84191157D01*
X134969578Y-84133100D01*
X135056664Y-84104071D01*
X135114721Y-84104071D01*
X135201807Y-84133100D01*
X135230835Y-84162128D01*
X127131864Y-85145471D02*
X127131864Y-85580900D01*
X127102835Y-85667985D01*
X127044778Y-85726042D01*
X126957692Y-85755071D01*
X126899635Y-85755071D01*
X127422150Y-85755071D02*
X127422150Y-85145471D01*
X127654378Y-85145471D01*
X127712435Y-85174500D01*
X127741464Y-85203528D01*
X127770492Y-85261585D01*
X127770492Y-85348671D01*
X127741464Y-85406728D01*
X127712435Y-85435757D01*
X127654378Y-85464785D01*
X127422150Y-85464785D01*
X128322035Y-85145471D02*
X128031750Y-85145471D01*
X128002721Y-85435757D01*
X128031750Y-85406728D01*
X128089807Y-85377700D01*
X128234950Y-85377700D01*
X128293007Y-85406728D01*
X128322035Y-85435757D01*
X128351064Y-85493814D01*
X128351064Y-85638957D01*
X128322035Y-85697014D01*
X128293007Y-85726042D01*
X128234950Y-85755071D01*
X128089807Y-85755071D01*
X128031750Y-85726042D01*
X128002721Y-85697014D01*
X128612321Y-85697014D02*
X128641350Y-85726042D01*
X128612321Y-85755071D01*
X128583292Y-85726042D01*
X128612321Y-85697014D01*
X128612321Y-85755071D01*
X128612321Y-85377700D02*
X128641350Y-85406728D01*
X128612321Y-85435757D01*
X128583292Y-85406728D01*
X128612321Y-85377700D01*
X128612321Y-85435757D01*
X129715407Y-85755071D02*
X129512207Y-85464785D01*
X129367064Y-85755071D02*
X129367064Y-85145471D01*
X129599292Y-85145471D01*
X129657350Y-85174500D01*
X129686378Y-85203528D01*
X129715407Y-85261585D01*
X129715407Y-85348671D01*
X129686378Y-85406728D01*
X129657350Y-85435757D01*
X129599292Y-85464785D01*
X129367064Y-85464785D01*
X129947635Y-85580900D02*
X130237921Y-85580900D01*
X129889578Y-85755071D02*
X130092778Y-85145471D01*
X130295978Y-85755071D01*
X130441121Y-85145471D02*
X130586264Y-85755071D01*
X130702378Y-85319642D01*
X130818492Y-85755071D01*
X130963635Y-85145471D01*
X131660321Y-85522842D02*
X132124778Y-85522842D01*
X132792435Y-85145471D02*
X132995635Y-85755071D01*
X133198835Y-85145471D01*
X133750378Y-85697014D02*
X133721350Y-85726042D01*
X133634264Y-85755071D01*
X133576207Y-85755071D01*
X133489121Y-85726042D01*
X133431064Y-85667985D01*
X133402035Y-85609928D01*
X133373007Y-85493814D01*
X133373007Y-85406728D01*
X133402035Y-85290614D01*
X133431064Y-85232557D01*
X133489121Y-85174500D01*
X133576207Y-85145471D01*
X133634264Y-85145471D01*
X133721350Y-85174500D01*
X133750378Y-85203528D01*
X134359978Y-85697014D02*
X134330950Y-85726042D01*
X134243864Y-85755071D01*
X134185807Y-85755071D01*
X134098721Y-85726042D01*
X134040664Y-85667985D01*
X134011635Y-85609928D01*
X133982607Y-85493814D01*
X133982607Y-85406728D01*
X134011635Y-85290614D01*
X134040664Y-85232557D01*
X134098721Y-85174500D01*
X134185807Y-85145471D01*
X134243864Y-85145471D01*
X134330950Y-85174500D01*
X134359978Y-85203528D01*
X127131864Y-86186871D02*
X127131864Y-86622300D01*
X127102835Y-86709385D01*
X127044778Y-86767442D01*
X126957692Y-86796471D01*
X126899635Y-86796471D01*
X127422150Y-86796471D02*
X127422150Y-86186871D01*
X127654378Y-86186871D01*
X127712435Y-86215900D01*
X127741464Y-86244928D01*
X127770492Y-86302985D01*
X127770492Y-86390071D01*
X127741464Y-86448128D01*
X127712435Y-86477157D01*
X127654378Y-86506185D01*
X127422150Y-86506185D01*
X128293007Y-86186871D02*
X128176892Y-86186871D01*
X128118835Y-86215900D01*
X128089807Y-86244928D01*
X128031750Y-86332014D01*
X128002721Y-86448128D01*
X128002721Y-86680357D01*
X128031750Y-86738414D01*
X128060778Y-86767442D01*
X128118835Y-86796471D01*
X128234950Y-86796471D01*
X128293007Y-86767442D01*
X128322035Y-86738414D01*
X128351064Y-86680357D01*
X128351064Y-86535214D01*
X128322035Y-86477157D01*
X128293007Y-86448128D01*
X128234950Y-86419100D01*
X128118835Y-86419100D01*
X128060778Y-86448128D01*
X128031750Y-86477157D01*
X128002721Y-86535214D01*
X128612321Y-86738414D02*
X128641350Y-86767442D01*
X128612321Y-86796471D01*
X128583292Y-86767442D01*
X128612321Y-86738414D01*
X128612321Y-86796471D01*
X128612321Y-86419100D02*
X128641350Y-86448128D01*
X128612321Y-86477157D01*
X128583292Y-86448128D01*
X128612321Y-86419100D01*
X128612321Y-86477157D01*
X129715407Y-86796471D02*
X129512207Y-86506185D01*
X129367064Y-86796471D02*
X129367064Y-86186871D01*
X129599292Y-86186871D01*
X129657350Y-86215900D01*
X129686378Y-86244928D01*
X129715407Y-86302985D01*
X129715407Y-86390071D01*
X129686378Y-86448128D01*
X129657350Y-86477157D01*
X129599292Y-86506185D01*
X129367064Y-86506185D01*
X129947635Y-86622300D02*
X130237921Y-86622300D01*
X129889578Y-86796471D02*
X130092778Y-86186871D01*
X130295978Y-86796471D01*
X130441121Y-86186871D02*
X130586264Y-86796471D01*
X130702378Y-86361042D01*
X130818492Y-86796471D01*
X130963635Y-86186871D01*
X131660321Y-86564242D02*
X132124778Y-86564242D01*
X132879521Y-86796471D02*
X132879521Y-86186871D01*
X133024664Y-86186871D01*
X133111750Y-86215900D01*
X133169807Y-86273957D01*
X133198835Y-86332014D01*
X133227864Y-86448128D01*
X133227864Y-86535214D01*
X133198835Y-86651328D01*
X133169807Y-86709385D01*
X133111750Y-86767442D01*
X133024664Y-86796471D01*
X132879521Y-86796471D01*
X133837464Y-86738414D02*
X133808435Y-86767442D01*
X133721350Y-86796471D01*
X133663292Y-86796471D01*
X133576207Y-86767442D01*
X133518150Y-86709385D01*
X133489121Y-86651328D01*
X133460092Y-86535214D01*
X133460092Y-86448128D01*
X133489121Y-86332014D01*
X133518150Y-86273957D01*
X133576207Y-86215900D01*
X133663292Y-86186871D01*
X133721350Y-86186871D01*
X133808435Y-86215900D01*
X133837464Y-86244928D01*
X133953578Y-86854528D02*
X134418035Y-86854528D01*
X134563178Y-86796471D02*
X134563178Y-86186871D01*
X134853464Y-86796471D02*
X134853464Y-86186871D01*
X135201807Y-86796471D01*
X135201807Y-86186871D01*
X127131864Y-87228271D02*
X127131864Y-87663700D01*
X127102835Y-87750785D01*
X127044778Y-87808842D01*
X126957692Y-87837871D01*
X126899635Y-87837871D01*
X127422150Y-87837871D02*
X127422150Y-87228271D01*
X127654378Y-87228271D01*
X127712435Y-87257300D01*
X127741464Y-87286328D01*
X127770492Y-87344385D01*
X127770492Y-87431471D01*
X127741464Y-87489528D01*
X127712435Y-87518557D01*
X127654378Y-87547585D01*
X127422150Y-87547585D01*
X127973692Y-87228271D02*
X128380092Y-87228271D01*
X128118835Y-87837871D01*
X128612321Y-87779814D02*
X128641350Y-87808842D01*
X128612321Y-87837871D01*
X128583292Y-87808842D01*
X128612321Y-87779814D01*
X128612321Y-87837871D01*
X128612321Y-87460500D02*
X128641350Y-87489528D01*
X128612321Y-87518557D01*
X128583292Y-87489528D01*
X128612321Y-87460500D01*
X128612321Y-87518557D01*
X129279978Y-87228271D02*
X129483178Y-87837871D01*
X129686378Y-87228271D01*
X130237921Y-87779814D02*
X130208892Y-87808842D01*
X130121807Y-87837871D01*
X130063750Y-87837871D01*
X129976664Y-87808842D01*
X129918607Y-87750785D01*
X129889578Y-87692728D01*
X129860550Y-87576614D01*
X129860550Y-87489528D01*
X129889578Y-87373414D01*
X129918607Y-87315357D01*
X129976664Y-87257300D01*
X130063750Y-87228271D01*
X130121807Y-87228271D01*
X130208892Y-87257300D01*
X130237921Y-87286328D01*
X130847521Y-87779814D02*
X130818492Y-87808842D01*
X130731407Y-87837871D01*
X130673350Y-87837871D01*
X130586264Y-87808842D01*
X130528207Y-87750785D01*
X130499178Y-87692728D01*
X130470150Y-87576614D01*
X130470150Y-87489528D01*
X130499178Y-87373414D01*
X130528207Y-87315357D01*
X130586264Y-87257300D01*
X130673350Y-87228271D01*
X130731407Y-87228271D01*
X130818492Y-87257300D01*
X130847521Y-87286328D01*
X131573235Y-87605642D02*
X132037692Y-87605642D01*
X132792435Y-87837871D02*
X132792435Y-87228271D01*
X132937578Y-87228271D01*
X133024664Y-87257300D01*
X133082721Y-87315357D01*
X133111750Y-87373414D01*
X133140778Y-87489528D01*
X133140778Y-87576614D01*
X133111750Y-87692728D01*
X133082721Y-87750785D01*
X133024664Y-87808842D01*
X132937578Y-87837871D01*
X132792435Y-87837871D01*
X133750378Y-87779814D02*
X133721350Y-87808842D01*
X133634264Y-87837871D01*
X133576207Y-87837871D01*
X133489121Y-87808842D01*
X133431064Y-87750785D01*
X133402035Y-87692728D01*
X133373007Y-87576614D01*
X133373007Y-87489528D01*
X133402035Y-87373414D01*
X133431064Y-87315357D01*
X133489121Y-87257300D01*
X133576207Y-87228271D01*
X133634264Y-87228271D01*
X133721350Y-87257300D01*
X133750378Y-87286328D01*
X133866492Y-87895928D02*
X134330950Y-87895928D01*
X134476092Y-87837871D02*
X134476092Y-87228271D01*
X134766378Y-87837871D02*
X134766378Y-87228271D01*
X135114721Y-87837871D01*
X135114721Y-87228271D01*
D11*
X135255047Y-105227428D02*
X136016952Y-105227428D01*
X135255047Y-109291428D02*
X136016952Y-109291428D01*
X135636000Y-109672380D02*
X135636000Y-108910476D01*
D13*
X124024571Y-103722714D02*
X124024571Y-102960714D01*
X124206000Y-102960714D01*
X124314857Y-102997000D01*
X124387428Y-103069571D01*
X124423714Y-103142142D01*
X124460000Y-103287285D01*
X124460000Y-103396142D01*
X124423714Y-103541285D01*
X124387428Y-103613857D01*
X124314857Y-103686428D01*
X124206000Y-103722714D01*
X124024571Y-103722714D01*
X125222000Y-103650142D02*
X125185714Y-103686428D01*
X125076857Y-103722714D01*
X125004285Y-103722714D01*
X124895428Y-103686428D01*
X124822857Y-103613857D01*
X124786571Y-103541285D01*
X124750285Y-103396142D01*
X124750285Y-103287285D01*
X124786571Y-103142142D01*
X124822857Y-103069571D01*
X124895428Y-102997000D01*
X125004285Y-102960714D01*
X125076857Y-102960714D01*
X125185714Y-102997000D01*
X125222000Y-103033285D01*
X125367142Y-103795285D02*
X125947714Y-103795285D01*
X126129142Y-103722714D02*
X126129142Y-102960714D01*
X126492000Y-103722714D02*
X126492000Y-102960714D01*
X126927428Y-103722714D01*
X126927428Y-102960714D01*
D11*
X112141047Y-108783428D02*
X112902952Y-108783428D01*
X112522000Y-109164380D02*
X112522000Y-108402476D01*
D14*
%TO.C,U1*%
X106871000Y-90996000D02*
X106871000Y-93536000D01*
X104331000Y-93536000D02*
X106871000Y-93536000D01*
X104331000Y-75756000D02*
X104331000Y-93536000D01*
X106871000Y-75756000D02*
X104331000Y-75756000D01*
D11*
G36*
X113350360Y-79714432D02*
G01*
X113550360Y-79714432D01*
X113550360Y-79814432D01*
X113350360Y-79814432D01*
X113350360Y-79714432D01*
G37*
X113350360Y-79714432D02*
X113550360Y-79714432D01*
X113550360Y-79814432D01*
X113350360Y-79814432D01*
X113350360Y-79714432D01*
G36*
X112750360Y-80114432D02*
G01*
X113550360Y-80114432D01*
X113550360Y-80214432D01*
X112750360Y-80214432D01*
X112750360Y-80114432D01*
G37*
X112750360Y-80114432D02*
X113550360Y-80114432D01*
X113550360Y-80214432D01*
X112750360Y-80214432D01*
X112750360Y-80114432D01*
G36*
X112750360Y-79714432D02*
G01*
X112850360Y-79714432D01*
X112850360Y-80214432D01*
X112750360Y-80214432D01*
X112750360Y-79714432D01*
G37*
X112750360Y-79714432D02*
X112850360Y-79714432D01*
X112850360Y-80214432D01*
X112750360Y-80214432D01*
X112750360Y-79714432D01*
G36*
X113150360Y-79914432D02*
G01*
X113250360Y-79914432D01*
X113250360Y-80014432D01*
X113150360Y-80014432D01*
X113150360Y-79914432D01*
G37*
X113150360Y-79914432D02*
X113250360Y-79914432D01*
X113250360Y-80014432D01*
X113150360Y-80014432D01*
X113150360Y-79914432D01*
G36*
X112750360Y-79714432D02*
G01*
X113050360Y-79714432D01*
X113050360Y-79814432D01*
X112750360Y-79814432D01*
X112750360Y-79714432D01*
G37*
X112750360Y-79714432D02*
X113050360Y-79714432D01*
X113050360Y-79814432D01*
X112750360Y-79814432D01*
X112750360Y-79714432D01*
D14*
X109411000Y-90996000D02*
X109411000Y-93536000D01*
X106871000Y-90996000D02*
X109411000Y-90996000D01*
X137351000Y-75756000D02*
X106871000Y-75756000D01*
X137351000Y-93536000D02*
X137351000Y-75756000D01*
X106871000Y-93536000D02*
X137351000Y-93536000D01*
D15*
%TO.C,G\u002A\u002A\u002A*%
G36*
X164353309Y-74147442D02*
G01*
X164385390Y-74091684D01*
X164429424Y-74046298D01*
X164482923Y-74013216D01*
X164543396Y-73994372D01*
X164608357Y-73991697D01*
X164675316Y-74007123D01*
X164684639Y-74010809D01*
X164744130Y-74045412D01*
X164789907Y-74091911D01*
X164821486Y-74147049D01*
X164838384Y-74207572D01*
X164840117Y-74270225D01*
X164826202Y-74331751D01*
X164796153Y-74388896D01*
X164749489Y-74438405D01*
X164748315Y-74439349D01*
X164714725Y-74462616D01*
X164679316Y-74481789D01*
X164663297Y-74488227D01*
X164622981Y-74501363D01*
X164585718Y-74732077D01*
X164573786Y-74806643D01*
X164564990Y-74864159D01*
X164559091Y-74907612D01*
X164555851Y-74939993D01*
X164555031Y-74964286D01*
X164556391Y-74983482D01*
X164559692Y-75000567D01*
X164563206Y-75013472D01*
X164571221Y-75033232D01*
X164586454Y-75061062D01*
X164609803Y-75098293D01*
X164642166Y-75146261D01*
X164684440Y-75206297D01*
X164737524Y-75279735D01*
X164797769Y-75361755D01*
X164848142Y-75429780D01*
X164894760Y-75492392D01*
X164936241Y-75547765D01*
X164971208Y-75594074D01*
X164998281Y-75629493D01*
X165016082Y-75652195D01*
X165023233Y-75660354D01*
X165023235Y-75660355D01*
X165025646Y-75650668D01*
X165031314Y-75622144D01*
X165040026Y-75575975D01*
X165051569Y-75513344D01*
X165065732Y-75435440D01*
X165082303Y-75343448D01*
X165101068Y-75238557D01*
X165121818Y-75121953D01*
X165144337Y-74994823D01*
X165168414Y-74858354D01*
X165193837Y-74713733D01*
X165220393Y-74562148D01*
X165247872Y-74404784D01*
X165250852Y-74387685D01*
X165472816Y-73114018D01*
X165273055Y-73068478D01*
X165456104Y-72850385D01*
X165503773Y-72794043D01*
X165547355Y-72743394D01*
X165585128Y-72700374D01*
X165615367Y-72666917D01*
X165636349Y-72644956D01*
X165646347Y-72636429D01*
X165646787Y-72636424D01*
X165652132Y-72646687D01*
X165663397Y-72673585D01*
X165679619Y-72714636D01*
X165699834Y-72767354D01*
X165723079Y-72829258D01*
X165748389Y-72897863D01*
X165751065Y-72905182D01*
X165847708Y-73169805D01*
X165642912Y-73144011D01*
X165471431Y-74101601D01*
X165447061Y-74238136D01*
X165423879Y-74368884D01*
X165402119Y-74492473D01*
X165382015Y-74607535D01*
X165363802Y-74712699D01*
X165347715Y-74806594D01*
X165333986Y-74887851D01*
X165322850Y-74955100D01*
X165314543Y-75006971D01*
X165309297Y-75042091D01*
X165307347Y-75059094D01*
X165307507Y-75060517D01*
X165317467Y-75055440D01*
X165342394Y-75040410D01*
X165380307Y-75016688D01*
X165429228Y-74985532D01*
X165487177Y-74948203D01*
X165552174Y-74905960D01*
X165612603Y-74866398D01*
X165697316Y-74810463D01*
X165766552Y-74764034D01*
X165822055Y-74725835D01*
X165865571Y-74694590D01*
X165898846Y-74669024D01*
X165923625Y-74647860D01*
X165941655Y-74629824D01*
X165950116Y-74619773D01*
X165990090Y-74568594D01*
X166075244Y-74122957D01*
X165903773Y-74092722D01*
X165991987Y-73592440D01*
X166492269Y-73680653D01*
X166404056Y-74180935D01*
X166235209Y-74151163D01*
X166139862Y-74655346D01*
X166087376Y-74722259D01*
X166071343Y-74742178D01*
X166055200Y-74760599D01*
X166037281Y-74778760D01*
X166015918Y-74797902D01*
X165989442Y-74819261D01*
X165956186Y-74844076D01*
X165914485Y-74873586D01*
X165862668Y-74909029D01*
X165799069Y-74951642D01*
X165722020Y-75002665D01*
X165629854Y-75063335D01*
X165614463Y-75073449D01*
X165544861Y-75119516D01*
X165479861Y-75163177D01*
X165421644Y-75202918D01*
X165372395Y-75237222D01*
X165334298Y-75264574D01*
X165309533Y-75283458D01*
X165301281Y-75290852D01*
X165289061Y-75306149D01*
X165277977Y-75323710D01*
X165267579Y-75345337D01*
X165257419Y-75372827D01*
X165247047Y-75407983D01*
X165236013Y-75452602D01*
X165223869Y-75508487D01*
X165210166Y-75577436D01*
X165194455Y-75661248D01*
X165176285Y-75761725D01*
X165157887Y-75865471D01*
X165139197Y-75971708D01*
X165123859Y-76059697D01*
X165111631Y-76131192D01*
X165102276Y-76187948D01*
X165095552Y-76231716D01*
X165091222Y-76264251D01*
X165089044Y-76287306D01*
X165088782Y-76302635D01*
X165090193Y-76311990D01*
X165093040Y-76317126D01*
X165095930Y-76319240D01*
X165111812Y-76329101D01*
X165138831Y-76347294D01*
X165171673Y-76370226D01*
X165178166Y-76374848D01*
X165244568Y-76434300D01*
X165296189Y-76505886D01*
X165331603Y-76586465D01*
X165349384Y-76672897D01*
X165349278Y-76751647D01*
X165330662Y-76842878D01*
X165295015Y-76924894D01*
X165244166Y-76996048D01*
X165179942Y-77054695D01*
X165104168Y-77099187D01*
X165018675Y-77127878D01*
X164925288Y-77139122D01*
X164919079Y-77139210D01*
X164833385Y-77130107D01*
X164752421Y-77102751D01*
X164678667Y-77059086D01*
X164614602Y-77001055D01*
X164562707Y-76930601D01*
X164525459Y-76849666D01*
X164517825Y-76824780D01*
X164502931Y-76734519D01*
X164507055Y-76646567D01*
X164528890Y-76563189D01*
X164567135Y-76486652D01*
X164620486Y-76419222D01*
X164687639Y-76363168D01*
X164767290Y-76320754D01*
X164817554Y-76303614D01*
X164853897Y-76294738D01*
X164884421Y-76289438D01*
X164901162Y-76288793D01*
X164908124Y-76288846D01*
X164913836Y-76284417D01*
X164919040Y-76272751D01*
X164924479Y-76251096D01*
X164930896Y-76216698D01*
X164939033Y-76166802D01*
X164945851Y-76123109D01*
X164953912Y-76071681D01*
X164960155Y-76028075D01*
X164963712Y-75990198D01*
X164963714Y-75955959D01*
X164959294Y-75923268D01*
X164949581Y-75890033D01*
X164933709Y-75854164D01*
X164910808Y-75813569D01*
X164880010Y-75766157D01*
X164840447Y-75709836D01*
X164791250Y-75642515D01*
X164731551Y-75562105D01*
X164689248Y-75505251D01*
X164630251Y-75425269D01*
X164576132Y-75350672D01*
X164528154Y-75283279D01*
X164487583Y-75224912D01*
X164455685Y-75177385D01*
X164433725Y-75142519D01*
X164423451Y-75123337D01*
X164408418Y-75085363D01*
X164397477Y-75051008D01*
X164390620Y-75017060D01*
X164387841Y-74980305D01*
X164389134Y-74937532D01*
X164394491Y-74885526D01*
X164403908Y-74821075D01*
X164417375Y-74740966D01*
X164422614Y-74711081D01*
X164464599Y-74472970D01*
X164431982Y-74447207D01*
X164397775Y-74412286D01*
X164367088Y-74367101D01*
X164344471Y-74319383D01*
X164334960Y-74282344D01*
X164335670Y-74211639D01*
X164353309Y-74147442D01*
G37*
X164353309Y-74147442D02*
X164385390Y-74091684D01*
X164429424Y-74046298D01*
X164482923Y-74013216D01*
X164543396Y-73994372D01*
X164608357Y-73991697D01*
X164675316Y-74007123D01*
X164684639Y-74010809D01*
X164744130Y-74045412D01*
X164789907Y-74091911D01*
X164821486Y-74147049D01*
X164838384Y-74207572D01*
X164840117Y-74270225D01*
X164826202Y-74331751D01*
X164796153Y-74388896D01*
X164749489Y-74438405D01*
X164748315Y-74439349D01*
X164714725Y-74462616D01*
X164679316Y-74481789D01*
X164663297Y-74488227D01*
X164622981Y-74501363D01*
X164585718Y-74732077D01*
X164573786Y-74806643D01*
X164564990Y-74864159D01*
X164559091Y-74907612D01*
X164555851Y-74939993D01*
X164555031Y-74964286D01*
X164556391Y-74983482D01*
X164559692Y-75000567D01*
X164563206Y-75013472D01*
X164571221Y-75033232D01*
X164586454Y-75061062D01*
X164609803Y-75098293D01*
X164642166Y-75146261D01*
X164684440Y-75206297D01*
X164737524Y-75279735D01*
X164797769Y-75361755D01*
X164848142Y-75429780D01*
X164894760Y-75492392D01*
X164936241Y-75547765D01*
X164971208Y-75594074D01*
X164998281Y-75629493D01*
X165016082Y-75652195D01*
X165023233Y-75660354D01*
X165023235Y-75660355D01*
X165025646Y-75650668D01*
X165031314Y-75622144D01*
X165040026Y-75575975D01*
X165051569Y-75513344D01*
X165065732Y-75435440D01*
X165082303Y-75343448D01*
X165101068Y-75238557D01*
X165121818Y-75121953D01*
X165144337Y-74994823D01*
X165168414Y-74858354D01*
X165193837Y-74713733D01*
X165220393Y-74562148D01*
X165247872Y-74404784D01*
X165250852Y-74387685D01*
X165472816Y-73114018D01*
X165273055Y-73068478D01*
X165456104Y-72850385D01*
X165503773Y-72794043D01*
X165547355Y-72743394D01*
X165585128Y-72700374D01*
X165615367Y-72666917D01*
X165636349Y-72644956D01*
X165646347Y-72636429D01*
X165646787Y-72636424D01*
X165652132Y-72646687D01*
X165663397Y-72673585D01*
X165679619Y-72714636D01*
X165699834Y-72767354D01*
X165723079Y-72829258D01*
X165748389Y-72897863D01*
X165751065Y-72905182D01*
X165847708Y-73169805D01*
X165642912Y-73144011D01*
X165471431Y-74101601D01*
X165447061Y-74238136D01*
X165423879Y-74368884D01*
X165402119Y-74492473D01*
X165382015Y-74607535D01*
X165363802Y-74712699D01*
X165347715Y-74806594D01*
X165333986Y-74887851D01*
X165322850Y-74955100D01*
X165314543Y-75006971D01*
X165309297Y-75042091D01*
X165307347Y-75059094D01*
X165307507Y-75060517D01*
X165317467Y-75055440D01*
X165342394Y-75040410D01*
X165380307Y-75016688D01*
X165429228Y-74985532D01*
X165487177Y-74948203D01*
X165552174Y-74905960D01*
X165612603Y-74866398D01*
X165697316Y-74810463D01*
X165766552Y-74764034D01*
X165822055Y-74725835D01*
X165865571Y-74694590D01*
X165898846Y-74669024D01*
X165923625Y-74647860D01*
X165941655Y-74629824D01*
X165950116Y-74619773D01*
X165990090Y-74568594D01*
X166075244Y-74122957D01*
X165903773Y-74092722D01*
X165991987Y-73592440D01*
X166492269Y-73680653D01*
X166404056Y-74180935D01*
X166235209Y-74151163D01*
X166139862Y-74655346D01*
X166087376Y-74722259D01*
X166071343Y-74742178D01*
X166055200Y-74760599D01*
X166037281Y-74778760D01*
X166015918Y-74797902D01*
X165989442Y-74819261D01*
X165956186Y-74844076D01*
X165914485Y-74873586D01*
X165862668Y-74909029D01*
X165799069Y-74951642D01*
X165722020Y-75002665D01*
X165629854Y-75063335D01*
X165614463Y-75073449D01*
X165544861Y-75119516D01*
X165479861Y-75163177D01*
X165421644Y-75202918D01*
X165372395Y-75237222D01*
X165334298Y-75264574D01*
X165309533Y-75283458D01*
X165301281Y-75290852D01*
X165289061Y-75306149D01*
X165277977Y-75323710D01*
X165267579Y-75345337D01*
X165257419Y-75372827D01*
X165247047Y-75407983D01*
X165236013Y-75452602D01*
X165223869Y-75508487D01*
X165210166Y-75577436D01*
X165194455Y-75661248D01*
X165176285Y-75761725D01*
X165157887Y-75865471D01*
X165139197Y-75971708D01*
X165123859Y-76059697D01*
X165111631Y-76131192D01*
X165102276Y-76187948D01*
X165095552Y-76231716D01*
X165091222Y-76264251D01*
X165089044Y-76287306D01*
X165088782Y-76302635D01*
X165090193Y-76311990D01*
X165093040Y-76317126D01*
X165095930Y-76319240D01*
X165111812Y-76329101D01*
X165138831Y-76347294D01*
X165171673Y-76370226D01*
X165178166Y-76374848D01*
X165244568Y-76434300D01*
X165296189Y-76505886D01*
X165331603Y-76586465D01*
X165349384Y-76672897D01*
X165349278Y-76751647D01*
X165330662Y-76842878D01*
X165295015Y-76924894D01*
X165244166Y-76996048D01*
X165179942Y-77054695D01*
X165104168Y-77099187D01*
X165018675Y-77127878D01*
X164925288Y-77139122D01*
X164919079Y-77139210D01*
X164833385Y-77130107D01*
X164752421Y-77102751D01*
X164678667Y-77059086D01*
X164614602Y-77001055D01*
X164562707Y-76930601D01*
X164525459Y-76849666D01*
X164517825Y-76824780D01*
X164502931Y-76734519D01*
X164507055Y-76646567D01*
X164528890Y-76563189D01*
X164567135Y-76486652D01*
X164620486Y-76419222D01*
X164687639Y-76363168D01*
X164767290Y-76320754D01*
X164817554Y-76303614D01*
X164853897Y-76294738D01*
X164884421Y-76289438D01*
X164901162Y-76288793D01*
X164908124Y-76288846D01*
X164913836Y-76284417D01*
X164919040Y-76272751D01*
X164924479Y-76251096D01*
X164930896Y-76216698D01*
X164939033Y-76166802D01*
X164945851Y-76123109D01*
X164953912Y-76071681D01*
X164960155Y-76028075D01*
X164963712Y-75990198D01*
X164963714Y-75955959D01*
X164959294Y-75923268D01*
X164949581Y-75890033D01*
X164933709Y-75854164D01*
X164910808Y-75813569D01*
X164880010Y-75766157D01*
X164840447Y-75709836D01*
X164791250Y-75642515D01*
X164731551Y-75562105D01*
X164689248Y-75505251D01*
X164630251Y-75425269D01*
X164576132Y-75350672D01*
X164528154Y-75283279D01*
X164487583Y-75224912D01*
X164455685Y-75177385D01*
X164433725Y-75142519D01*
X164423451Y-75123337D01*
X164408418Y-75085363D01*
X164397477Y-75051008D01*
X164390620Y-75017060D01*
X164387841Y-74980305D01*
X164389134Y-74937532D01*
X164394491Y-74885526D01*
X164403908Y-74821075D01*
X164417375Y-74740966D01*
X164422614Y-74711081D01*
X164464599Y-74472970D01*
X164431982Y-74447207D01*
X164397775Y-74412286D01*
X164367088Y-74367101D01*
X164344471Y-74319383D01*
X164334960Y-74282344D01*
X164335670Y-74211639D01*
X164353309Y-74147442D01*
D12*
%TO.C,J4*%
X143502000Y-112122000D02*
X143002000Y-111122000D01*
X142502000Y-112122000D02*
X143502000Y-112122000D01*
X143002000Y-111122000D02*
X142502000Y-112122000D01*
X150132000Y-109422000D02*
X150132000Y-110732000D01*
X150132000Y-109422000D02*
X150132000Y-109422000D01*
X157072000Y-109422000D02*
X150132000Y-109422000D01*
X157072000Y-102922000D02*
X157072000Y-109422000D01*
X139092000Y-102922000D02*
X157072000Y-102922000D01*
X139092000Y-109422000D02*
X139092000Y-102922000D01*
X146032000Y-109422000D02*
X139092000Y-109422000D01*
X146032000Y-110732000D02*
X146032000Y-109422000D01*
X158372000Y-110732000D02*
X137792000Y-110732000D01*
X158372000Y-101612000D02*
X158372000Y-110732000D01*
X137792000Y-101612000D02*
X158372000Y-101612000D01*
X137792000Y-110732000D02*
X137792000Y-101612000D01*
%TO.C,JP2*%
X121400000Y-81800000D02*
X121400000Y-83800000D01*
X118600000Y-81800000D02*
X121400000Y-81800000D01*
X118600000Y-83800000D02*
X118600000Y-81800000D01*
X121400000Y-83800000D02*
X118600000Y-83800000D01*
%TO.C,D5*%
X112040000Y-98275000D02*
X112040000Y-101135000D01*
X112040000Y-101135000D02*
X113960000Y-101135000D01*
X113960000Y-101135000D02*
X113960000Y-98275000D01*
%TO.C,D4*%
X109790000Y-98275000D02*
X109790000Y-101135000D01*
X109790000Y-101135000D02*
X111710000Y-101135000D01*
X111710000Y-101135000D02*
X111710000Y-98275000D01*
D15*
%TO.C,G\u002A\u002A\u002A*%
G36*
X162647623Y-86008518D02*
G01*
X162835765Y-86150236D01*
X163114837Y-86396002D01*
X163472925Y-86735578D01*
X163695353Y-86954750D01*
X164754407Y-88010333D01*
X164591565Y-87544666D01*
X164492075Y-87264032D01*
X164407891Y-87033266D01*
X164370446Y-86935548D01*
X164370787Y-86862725D01*
X164501644Y-86862725D01*
X164792469Y-87666141D01*
X164957992Y-88097704D01*
X165147040Y-88551451D01*
X165326895Y-88949897D01*
X165382956Y-89064607D01*
X165560124Y-89467544D01*
X165726382Y-89931089D01*
X165835921Y-90316662D01*
X165926308Y-90651562D01*
X166040724Y-90948610D01*
X166203421Y-91257887D01*
X166438647Y-91629475D01*
X166554993Y-91801676D01*
X166984268Y-92458230D01*
X167321150Y-93043333D01*
X167591976Y-93606266D01*
X167799190Y-94129647D01*
X167905027Y-94408885D01*
X167979696Y-94553353D01*
X168044933Y-94589141D01*
X168122476Y-94542333D01*
X168134294Y-94531813D01*
X168291666Y-94428007D01*
X168381872Y-94402666D01*
X168430091Y-94390952D01*
X168448027Y-94340663D01*
X168429446Y-94229080D01*
X168368112Y-94033485D01*
X168257789Y-93731160D01*
X168092242Y-93299385D01*
X168047138Y-93183085D01*
X167872267Y-92772086D01*
X167639539Y-92279846D01*
X167379834Y-91769342D01*
X167133739Y-91320418D01*
X166940648Y-90979122D01*
X166784592Y-90685472D01*
X166653481Y-90407778D01*
X166535223Y-90114354D01*
X166417727Y-89773511D01*
X166288899Y-89353561D01*
X166136650Y-88822816D01*
X166016040Y-88391333D01*
X165864758Y-87850592D01*
X165727589Y-87366266D01*
X165611246Y-86961577D01*
X165522441Y-86659741D01*
X165467889Y-86483980D01*
X165454383Y-86448689D01*
X165368198Y-86462933D01*
X165176100Y-86537863D01*
X164962123Y-86636885D01*
X164501644Y-86862725D01*
X164370787Y-86862725D01*
X164370864Y-86846328D01*
X164461746Y-86747143D01*
X164666946Y-86618490D01*
X164920761Y-86485614D01*
X165204743Y-86346637D01*
X165422588Y-86247656D01*
X165537550Y-86205109D01*
X165546439Y-86205732D01*
X165572783Y-86291320D01*
X165637597Y-86517400D01*
X165734482Y-86861181D01*
X165857037Y-87299875D01*
X165998860Y-87810692D01*
X166100846Y-88179666D01*
X166289935Y-88853752D01*
X166449048Y-89391599D01*
X166588155Y-89821522D01*
X166717224Y-90171836D01*
X166846223Y-90470858D01*
X166985122Y-90746901D01*
X167039782Y-90846666D01*
X167461772Y-91626854D01*
X167831047Y-92357999D01*
X168140303Y-93023124D01*
X168382236Y-93605251D01*
X168549542Y-94087403D01*
X168634918Y-94452604D01*
X168644667Y-94577045D01*
X168618449Y-94758770D01*
X168517045Y-94822775D01*
X168462211Y-94826000D01*
X168337446Y-94814653D01*
X168350482Y-94751856D01*
X168419878Y-94671166D01*
X168542264Y-94509509D01*
X168528976Y-94448843D01*
X168382514Y-94492278D01*
X168306000Y-94529666D01*
X168133658Y-94640817D01*
X168052849Y-94736318D01*
X168052000Y-94743507D01*
X168025520Y-94840643D01*
X167955426Y-94797200D01*
X167855739Y-94631826D01*
X167740479Y-94363164D01*
X167716132Y-94296833D01*
X167479469Y-93723463D01*
X167162858Y-93083345D01*
X166798554Y-92436556D01*
X166418813Y-91843171D01*
X166333489Y-91721692D01*
X166175032Y-91515274D01*
X165983278Y-91296847D01*
X165742101Y-91051383D01*
X165435372Y-90763852D01*
X165046965Y-90419227D01*
X164560752Y-90002478D01*
X163960606Y-89498578D01*
X163839833Y-89397959D01*
X163336874Y-88977116D01*
X162878547Y-88589379D01*
X162480453Y-88248281D01*
X162179582Y-87986000D01*
X162417778Y-87986000D01*
X162460290Y-88051038D01*
X162605825Y-88184947D01*
X162783365Y-88327874D01*
X162989063Y-88490621D01*
X163290334Y-88735324D01*
X163653604Y-89034420D01*
X164045297Y-89360345D01*
X164242000Y-89525336D01*
X164598070Y-89823780D01*
X164906415Y-90080150D01*
X165144905Y-90276211D01*
X165291408Y-90393728D01*
X165327265Y-90419485D01*
X165302061Y-90362637D01*
X165205062Y-90218127D01*
X165185177Y-90190500D01*
X164932129Y-89883605D01*
X164591830Y-89528157D01*
X164200894Y-89156982D01*
X163795940Y-88802910D01*
X163413582Y-88498770D01*
X163090438Y-88277388D01*
X162987413Y-88220090D01*
X162719725Y-88092366D01*
X162516876Y-88008317D01*
X162419771Y-87984751D01*
X162417778Y-87986000D01*
X162179582Y-87986000D01*
X162158192Y-87967354D01*
X161927363Y-87760133D01*
X161803566Y-87640149D01*
X161786667Y-87616836D01*
X161824965Y-87554314D01*
X161953664Y-87567556D01*
X162193476Y-87661381D01*
X162403315Y-87760314D01*
X162646111Y-87877321D01*
X162755387Y-87921228D01*
X162749533Y-87893747D01*
X162646938Y-87796596D01*
X162630261Y-87781481D01*
X162428575Y-87606359D01*
X162177994Y-87398340D01*
X162088060Y-87325862D01*
X161760598Y-87064724D01*
X161789805Y-87024520D01*
X161959685Y-87024520D01*
X162656343Y-87598785D01*
X163097981Y-87976234D01*
X163575385Y-88407062D01*
X164059611Y-88863054D01*
X164521712Y-89315994D01*
X164932744Y-89737665D01*
X165263760Y-90099853D01*
X165438559Y-90310883D01*
X165617758Y-90534309D01*
X165753807Y-90687414D01*
X165818064Y-90738040D01*
X165818609Y-90737613D01*
X165809024Y-90649202D01*
X165757854Y-90440551D01*
X165675401Y-90152605D01*
X165652724Y-90078265D01*
X165479292Y-89581266D01*
X165272229Y-89128639D01*
X165011448Y-88689996D01*
X164676862Y-88234951D01*
X164248386Y-87733116D01*
X163750142Y-87199973D01*
X162672782Y-86080030D01*
X162316234Y-86552275D01*
X161959685Y-87024520D01*
X161789805Y-87024520D01*
X162124471Y-86563862D01*
X162313216Y-86306656D01*
X162468511Y-86099729D01*
X162558867Y-85984995D01*
X162562322Y-85981083D01*
X162647623Y-86008518D01*
G37*
X162647623Y-86008518D02*
X162835765Y-86150236D01*
X163114837Y-86396002D01*
X163472925Y-86735578D01*
X163695353Y-86954750D01*
X164754407Y-88010333D01*
X164591565Y-87544666D01*
X164492075Y-87264032D01*
X164407891Y-87033266D01*
X164370446Y-86935548D01*
X164370787Y-86862725D01*
X164501644Y-86862725D01*
X164792469Y-87666141D01*
X164957992Y-88097704D01*
X165147040Y-88551451D01*
X165326895Y-88949897D01*
X165382956Y-89064607D01*
X165560124Y-89467544D01*
X165726382Y-89931089D01*
X165835921Y-90316662D01*
X165926308Y-90651562D01*
X166040724Y-90948610D01*
X166203421Y-91257887D01*
X166438647Y-91629475D01*
X166554993Y-91801676D01*
X166984268Y-92458230D01*
X167321150Y-93043333D01*
X167591976Y-93606266D01*
X167799190Y-94129647D01*
X167905027Y-94408885D01*
X167979696Y-94553353D01*
X168044933Y-94589141D01*
X168122476Y-94542333D01*
X168134294Y-94531813D01*
X168291666Y-94428007D01*
X168381872Y-94402666D01*
X168430091Y-94390952D01*
X168448027Y-94340663D01*
X168429446Y-94229080D01*
X168368112Y-94033485D01*
X168257789Y-93731160D01*
X168092242Y-93299385D01*
X168047138Y-93183085D01*
X167872267Y-92772086D01*
X167639539Y-92279846D01*
X167379834Y-91769342D01*
X167133739Y-91320418D01*
X166940648Y-90979122D01*
X166784592Y-90685472D01*
X166653481Y-90407778D01*
X166535223Y-90114354D01*
X166417727Y-89773511D01*
X166288899Y-89353561D01*
X166136650Y-88822816D01*
X166016040Y-88391333D01*
X165864758Y-87850592D01*
X165727589Y-87366266D01*
X165611246Y-86961577D01*
X165522441Y-86659741D01*
X165467889Y-86483980D01*
X165454383Y-86448689D01*
X165368198Y-86462933D01*
X165176100Y-86537863D01*
X164962123Y-86636885D01*
X164501644Y-86862725D01*
X164370787Y-86862725D01*
X164370864Y-86846328D01*
X164461746Y-86747143D01*
X164666946Y-86618490D01*
X164920761Y-86485614D01*
X165204743Y-86346637D01*
X165422588Y-86247656D01*
X165537550Y-86205109D01*
X165546439Y-86205732D01*
X165572783Y-86291320D01*
X165637597Y-86517400D01*
X165734482Y-86861181D01*
X165857037Y-87299875D01*
X165998860Y-87810692D01*
X166100846Y-88179666D01*
X166289935Y-88853752D01*
X166449048Y-89391599D01*
X166588155Y-89821522D01*
X166717224Y-90171836D01*
X166846223Y-90470858D01*
X166985122Y-90746901D01*
X167039782Y-90846666D01*
X167461772Y-91626854D01*
X167831047Y-92357999D01*
X168140303Y-93023124D01*
X168382236Y-93605251D01*
X168549542Y-94087403D01*
X168634918Y-94452604D01*
X168644667Y-94577045D01*
X168618449Y-94758770D01*
X168517045Y-94822775D01*
X168462211Y-94826000D01*
X168337446Y-94814653D01*
X168350482Y-94751856D01*
X168419878Y-94671166D01*
X168542264Y-94509509D01*
X168528976Y-94448843D01*
X168382514Y-94492278D01*
X168306000Y-94529666D01*
X168133658Y-94640817D01*
X168052849Y-94736318D01*
X168052000Y-94743507D01*
X168025520Y-94840643D01*
X167955426Y-94797200D01*
X167855739Y-94631826D01*
X167740479Y-94363164D01*
X167716132Y-94296833D01*
X167479469Y-93723463D01*
X167162858Y-93083345D01*
X166798554Y-92436556D01*
X166418813Y-91843171D01*
X166333489Y-91721692D01*
X166175032Y-91515274D01*
X165983278Y-91296847D01*
X165742101Y-91051383D01*
X165435372Y-90763852D01*
X165046965Y-90419227D01*
X164560752Y-90002478D01*
X163960606Y-89498578D01*
X163839833Y-89397959D01*
X163336874Y-88977116D01*
X162878547Y-88589379D01*
X162480453Y-88248281D01*
X162179582Y-87986000D01*
X162417778Y-87986000D01*
X162460290Y-88051038D01*
X162605825Y-88184947D01*
X162783365Y-88327874D01*
X162989063Y-88490621D01*
X163290334Y-88735324D01*
X163653604Y-89034420D01*
X164045297Y-89360345D01*
X164242000Y-89525336D01*
X164598070Y-89823780D01*
X164906415Y-90080150D01*
X165144905Y-90276211D01*
X165291408Y-90393728D01*
X165327265Y-90419485D01*
X165302061Y-90362637D01*
X165205062Y-90218127D01*
X165185177Y-90190500D01*
X164932129Y-89883605D01*
X164591830Y-89528157D01*
X164200894Y-89156982D01*
X163795940Y-88802910D01*
X163413582Y-88498770D01*
X163090438Y-88277388D01*
X162987413Y-88220090D01*
X162719725Y-88092366D01*
X162516876Y-88008317D01*
X162419771Y-87984751D01*
X162417778Y-87986000D01*
X162179582Y-87986000D01*
X162158192Y-87967354D01*
X161927363Y-87760133D01*
X161803566Y-87640149D01*
X161786667Y-87616836D01*
X161824965Y-87554314D01*
X161953664Y-87567556D01*
X162193476Y-87661381D01*
X162403315Y-87760314D01*
X162646111Y-87877321D01*
X162755387Y-87921228D01*
X162749533Y-87893747D01*
X162646938Y-87796596D01*
X162630261Y-87781481D01*
X162428575Y-87606359D01*
X162177994Y-87398340D01*
X162088060Y-87325862D01*
X161760598Y-87064724D01*
X161789805Y-87024520D01*
X161959685Y-87024520D01*
X162656343Y-87598785D01*
X163097981Y-87976234D01*
X163575385Y-88407062D01*
X164059611Y-88863054D01*
X164521712Y-89315994D01*
X164932744Y-89737665D01*
X165263760Y-90099853D01*
X165438559Y-90310883D01*
X165617758Y-90534309D01*
X165753807Y-90687414D01*
X165818064Y-90738040D01*
X165818609Y-90737613D01*
X165809024Y-90649202D01*
X165757854Y-90440551D01*
X165675401Y-90152605D01*
X165652724Y-90078265D01*
X165479292Y-89581266D01*
X165272229Y-89128639D01*
X165011448Y-88689996D01*
X164676862Y-88234951D01*
X164248386Y-87733116D01*
X163750142Y-87199973D01*
X162672782Y-86080030D01*
X162316234Y-86552275D01*
X161959685Y-87024520D01*
X161789805Y-87024520D01*
X162124471Y-86563862D01*
X162313216Y-86306656D01*
X162468511Y-86099729D01*
X162558867Y-85984995D01*
X162562322Y-85981083D01*
X162647623Y-86008518D01*
D12*
%TO.C,R9*%
X156883748Y-77265000D02*
X157406252Y-77265000D01*
X156883748Y-75845000D02*
X157406252Y-75845000D01*
%TO.C,D3*%
X155315000Y-80160000D02*
X158175000Y-80160000D01*
X155315000Y-78240000D02*
X155315000Y-80160000D01*
X158175000Y-78240000D02*
X155315000Y-78240000D01*
%TO.C,J12*%
X161920000Y-110330000D02*
X161920000Y-109000000D01*
X163250000Y-110330000D02*
X161920000Y-110330000D01*
X164520000Y-110330000D02*
X164520000Y-107670000D01*
X164520000Y-107670000D02*
X182360000Y-107670000D01*
X164520000Y-110330000D02*
X182360000Y-110330000D01*
X182360000Y-110330000D02*
X182360000Y-107670000D01*
%TO.C,SW8*%
X144383333Y-89405000D02*
X144383333Y-90675000D01*
X143030000Y-90605000D02*
X144383333Y-90605000D01*
X143030000Y-90485000D02*
X144383333Y-90485000D01*
X143030000Y-90365000D02*
X144383333Y-90365000D01*
X143030000Y-90245000D02*
X144383333Y-90245000D01*
X143030000Y-90125000D02*
X144383333Y-90125000D01*
X143030000Y-90005000D02*
X144383333Y-90005000D01*
X143030000Y-89885000D02*
X144383333Y-89885000D01*
X143030000Y-89765000D02*
X144383333Y-89765000D01*
X143030000Y-89645000D02*
X144383333Y-89645000D01*
X143030000Y-89525000D02*
X144383333Y-89525000D01*
X147090000Y-89405000D02*
X143030000Y-89405000D01*
X147090000Y-90675000D02*
X147090000Y-89405000D01*
X143030000Y-90675000D02*
X147090000Y-90675000D01*
X143030000Y-89405000D02*
X143030000Y-90675000D01*
X144383333Y-86865000D02*
X144383333Y-88135000D01*
X143030000Y-88065000D02*
X144383333Y-88065000D01*
X143030000Y-87945000D02*
X144383333Y-87945000D01*
X143030000Y-87825000D02*
X144383333Y-87825000D01*
X143030000Y-87705000D02*
X144383333Y-87705000D01*
X143030000Y-87585000D02*
X144383333Y-87585000D01*
X143030000Y-87465000D02*
X144383333Y-87465000D01*
X143030000Y-87345000D02*
X144383333Y-87345000D01*
X143030000Y-87225000D02*
X144383333Y-87225000D01*
X143030000Y-87105000D02*
X144383333Y-87105000D01*
X143030000Y-86985000D02*
X144383333Y-86985000D01*
X147090000Y-86865000D02*
X143030000Y-86865000D01*
X147090000Y-88135000D02*
X147090000Y-86865000D01*
X143030000Y-88135000D02*
X147090000Y-88135000D01*
X143030000Y-86865000D02*
X143030000Y-88135000D01*
X139870000Y-84840000D02*
X139870000Y-86223000D01*
X139870000Y-84840000D02*
X141254000Y-84840000D01*
X150010000Y-85080000D02*
X150010000Y-92460000D01*
X140110000Y-85080000D02*
X140110000Y-92460000D01*
X140110000Y-92460000D02*
X150010000Y-92460000D01*
X140110000Y-85080000D02*
X150010000Y-85080000D01*
%TO.C,JP1*%
X176200000Y-88750000D02*
X176200000Y-91550000D01*
X176200000Y-91550000D02*
X174200000Y-91550000D01*
X174200000Y-91550000D02*
X174200000Y-88750000D01*
X174200000Y-88750000D02*
X176200000Y-88750000D01*
%TO.C,JP5*%
X116300000Y-87750000D02*
X114300000Y-87750000D01*
X116300000Y-84950000D02*
X116300000Y-87750000D01*
X114300000Y-84950000D02*
X116300000Y-84950000D01*
X114300000Y-87750000D02*
X114300000Y-84950000D01*
%TO.C,JP6*%
X118364000Y-87750000D02*
X118364000Y-84950000D01*
X118364000Y-84950000D02*
X120364000Y-84950000D01*
X120364000Y-84950000D02*
X120364000Y-87750000D01*
X120364000Y-87750000D02*
X118364000Y-87750000D01*
%TO.C,JP7*%
X122428000Y-87750000D02*
X122428000Y-84950000D01*
X122428000Y-84950000D02*
X124428000Y-84950000D01*
X124428000Y-84950000D02*
X124428000Y-87750000D01*
X124428000Y-87750000D02*
X122428000Y-87750000D01*
%TO.C,R6*%
X192713748Y-80510000D02*
X193236252Y-80510000D01*
X192713748Y-79090000D02*
X193236252Y-79090000D01*
%TO.C,C2*%
X156913748Y-72890000D02*
X157436252Y-72890000D01*
X156913748Y-74310000D02*
X157436252Y-74310000D01*
%TO.C,J10*%
X175460000Y-78810000D02*
X185620000Y-78810000D01*
X175460000Y-71190000D02*
X175460000Y-78810000D01*
X185620000Y-71190000D02*
X175460000Y-71190000D01*
X185620000Y-78810000D02*
X185620000Y-71190000D01*
X185620000Y-77540000D02*
X175460000Y-77540000D01*
D16*
%TO.C,SW6*%
X142250700Y-77898200D02*
X143749300Y-77898200D01*
X142250700Y-74901000D02*
X143749300Y-74901000D01*
X142250700Y-77898200D02*
X142250700Y-74901000D01*
X143749300Y-74901000D02*
X143749300Y-77898200D01*
X141501400Y-79399340D02*
X141900180Y-79399340D01*
X144099820Y-79399340D02*
X144498600Y-79399340D01*
X144099820Y-73399860D02*
X144498600Y-73399860D01*
X141501400Y-73399860D02*
X141900180Y-73399860D01*
X141252480Y-79147880D02*
X141252480Y-73651320D01*
X144747520Y-73651320D02*
X144747520Y-79147880D01*
X141501400Y-73402400D02*
G75*
G03*
X141252480Y-73651320I0J-248920D01*
G01*
X141249940Y-79147880D02*
G75*
G03*
X141501400Y-79399340I251460J0D01*
G01*
X144498600Y-79396800D02*
G75*
G03*
X144747520Y-79147880I0J248920D01*
G01*
X144750060Y-73651320D02*
G75*
G03*
X144498600Y-73399860I-251460J0D01*
G01*
%TO.C,SW5*%
X200749300Y-95001400D02*
X199250700Y-95001400D01*
X200749300Y-97998600D02*
X199250700Y-97998600D01*
X200749300Y-95001400D02*
X200749300Y-97998600D01*
X199250700Y-97998600D02*
X199250700Y-95001400D01*
X201498600Y-93500260D02*
X201099820Y-93500260D01*
X198900180Y-93500260D02*
X198501400Y-93500260D01*
X198900180Y-99499740D02*
X198501400Y-99499740D01*
X201498600Y-99499740D02*
X201099820Y-99499740D01*
X201747520Y-93751720D02*
X201747520Y-99248280D01*
X198252480Y-99248280D02*
X198252480Y-93751720D01*
X201498600Y-99497200D02*
G75*
G03*
X201747520Y-99248280I0J248920D01*
G01*
X201750060Y-93751720D02*
G75*
G03*
X201498600Y-93500260I-251460J0D01*
G01*
X198501400Y-93502800D02*
G75*
G03*
X198252480Y-93751720I0J-248920D01*
G01*
X198249940Y-99248280D02*
G75*
G03*
X198501400Y-99499740I251460J0D01*
G01*
%TO.C,SW4*%
X188394600Y-104718300D02*
X188394600Y-103219700D01*
X185397400Y-104718300D02*
X185397400Y-103219700D01*
X188394600Y-104718300D02*
X185397400Y-104718300D01*
X185397400Y-103219700D02*
X188394600Y-103219700D01*
X189895740Y-105467600D02*
X189895740Y-105068820D01*
X189895740Y-102869180D02*
X189895740Y-102470400D01*
X183896260Y-102869180D02*
X183896260Y-102470400D01*
X183896260Y-105467600D02*
X183896260Y-105068820D01*
X189644280Y-105716520D02*
X184147720Y-105716520D01*
X184147720Y-102221480D02*
X189644280Y-102221480D01*
X183898800Y-105467600D02*
G75*
G03*
X184147720Y-105716520I248920J0D01*
G01*
X189644280Y-105719060D02*
G75*
G03*
X189895740Y-105467600I0J251460D01*
G01*
X189893200Y-102470400D02*
G75*
G03*
X189644280Y-102221480I-248920J0D01*
G01*
X184147720Y-102218940D02*
G75*
G03*
X183896260Y-102470400I0J-251460D01*
G01*
%TO.C,SW3*%
X178425100Y-104718300D02*
X178425100Y-103219700D01*
X175427900Y-104718300D02*
X175427900Y-103219700D01*
X178425100Y-104718300D02*
X175427900Y-104718300D01*
X175427900Y-103219700D02*
X178425100Y-103219700D01*
X179926240Y-105467600D02*
X179926240Y-105068820D01*
X179926240Y-102869180D02*
X179926240Y-102470400D01*
X173926760Y-102869180D02*
X173926760Y-102470400D01*
X173926760Y-105467600D02*
X173926760Y-105068820D01*
X179674780Y-105716520D02*
X174178220Y-105716520D01*
X174178220Y-102221480D02*
X179674780Y-102221480D01*
X173929300Y-105467600D02*
G75*
G03*
X174178220Y-105716520I248920J0D01*
G01*
X179674780Y-105719060D02*
G75*
G03*
X179926240Y-105467600I0J251460D01*
G01*
X179923700Y-102470400D02*
G75*
G03*
X179674780Y-102221480I-248920J0D01*
G01*
X174178220Y-102218940D02*
G75*
G03*
X173926760Y-102470400I0J-251460D01*
G01*
%TO.C,SW2*%
X168455600Y-104718300D02*
X168455600Y-103219700D01*
X165458400Y-104718300D02*
X165458400Y-103219700D01*
X168455600Y-104718300D02*
X165458400Y-104718300D01*
X165458400Y-103219700D02*
X168455600Y-103219700D01*
X169956740Y-105467600D02*
X169956740Y-105068820D01*
X169956740Y-102869180D02*
X169956740Y-102470400D01*
X163957260Y-102869180D02*
X163957260Y-102470400D01*
X163957260Y-105467600D02*
X163957260Y-105068820D01*
X169705280Y-105716520D02*
X164208720Y-105716520D01*
X164208720Y-102221480D02*
X169705280Y-102221480D01*
X163959800Y-105467600D02*
G75*
G03*
X164208720Y-105716520I248920J0D01*
G01*
X169705280Y-105719060D02*
G75*
G03*
X169956740Y-105467600I0J251460D01*
G01*
X169954200Y-102470400D02*
G75*
G03*
X169705280Y-102221480I-248920J0D01*
G01*
X164208720Y-102218940D02*
G75*
G03*
X163957260Y-102470400I0J-251460D01*
G01*
%TO.C,SW1*%
X178437800Y-99689100D02*
X178437800Y-98190500D01*
X175440600Y-99689100D02*
X175440600Y-98190500D01*
X178437800Y-99689100D02*
X175440600Y-99689100D01*
X175440600Y-98190500D02*
X178437800Y-98190500D01*
X179938940Y-100438400D02*
X179938940Y-100039620D01*
X179938940Y-97839980D02*
X179938940Y-97441200D01*
X173939460Y-97839980D02*
X173939460Y-97441200D01*
X173939460Y-100438400D02*
X173939460Y-100039620D01*
X179687480Y-100687320D02*
X174190920Y-100687320D01*
X174190920Y-97192280D02*
X179687480Y-97192280D01*
X173942000Y-100438400D02*
G75*
G03*
X174190920Y-100687320I248920J0D01*
G01*
X179687480Y-100689860D02*
G75*
G03*
X179938940Y-100438400I0J251460D01*
G01*
X179936400Y-97441200D02*
G75*
G03*
X179687480Y-97192280I-248920J0D01*
G01*
X174190920Y-97189740D02*
G75*
G03*
X173939460Y-97441200I0J-251460D01*
G01*
D12*
%TO.C,J1*%
X123540000Y-103190000D02*
X113380000Y-103190000D01*
X123540000Y-110810000D02*
X123540000Y-103190000D01*
X113380000Y-110810000D02*
X123540000Y-110810000D01*
X113380000Y-103190000D02*
X113380000Y-110810000D01*
X113380000Y-104460000D02*
X123540000Y-104460000D01*
%TO.C,R2*%
X180510000Y-90463748D02*
X180510000Y-90986252D01*
X179090000Y-90463748D02*
X179090000Y-90986252D01*
%TO.C,D2*%
X181340000Y-89725000D02*
X181340000Y-92585000D01*
X181340000Y-92585000D02*
X183260000Y-92585000D01*
X183260000Y-92585000D02*
X183260000Y-89725000D01*
%TO.C,C1*%
X183836252Y-87710000D02*
X183313748Y-87710000D01*
X183836252Y-86290000D02*
X183313748Y-86290000D01*
%TO.C,J2*%
X134776000Y-109767000D02*
X134776000Y-104567000D01*
X127096000Y-109767000D02*
X134776000Y-109767000D01*
X124496000Y-104567000D02*
X134776000Y-104567000D01*
X127096000Y-109767000D02*
X127096000Y-107167000D01*
X127096000Y-107167000D02*
X124496000Y-107167000D01*
X124496000Y-107167000D02*
X124496000Y-104567000D01*
X125826000Y-109767000D02*
X124496000Y-109767000D01*
X124496000Y-109767000D02*
X124496000Y-108437000D01*
%TO.C,J9*%
X158100000Y-95930000D02*
X156770000Y-95930000D01*
X156770000Y-95930000D02*
X156770000Y-94600000D01*
X156770000Y-93330000D02*
X156770000Y-85650000D01*
X159430000Y-85650000D02*
X156770000Y-85650000D01*
X159430000Y-93330000D02*
X159430000Y-85650000D01*
X159430000Y-93330000D02*
X156770000Y-93330000D01*
%TO.C,J7*%
X170882000Y-82042000D02*
X170882000Y-80712000D01*
X170882000Y-80712000D02*
X172212000Y-80712000D01*
X173482000Y-80712000D02*
X181162000Y-80712000D01*
X181162000Y-83372000D02*
X181162000Y-80712000D01*
X173482000Y-83372000D02*
X181162000Y-83372000D01*
X173482000Y-83372000D02*
X173482000Y-80712000D01*
%TO.C,R3*%
X193168000Y-85363748D02*
X193168000Y-85886252D01*
X194588000Y-85363748D02*
X194588000Y-85886252D01*
%TO.C,R4*%
X191445332Y-85886252D02*
X191445332Y-85363748D01*
X190025332Y-85886252D02*
X190025332Y-85363748D01*
%TO.C,R1*%
X186882666Y-85363748D02*
X186882666Y-85886252D01*
X188302666Y-85363748D02*
X188302666Y-85886252D01*
%TO.C,D1*%
X195050000Y-78550000D02*
X187750000Y-78550000D01*
X195050000Y-73050000D02*
X187750000Y-73050000D01*
X187750000Y-73050000D02*
X187750000Y-74200000D01*
%TO.C,J3*%
X106811000Y-96930000D02*
X106811000Y-95600000D01*
X108141000Y-96930000D02*
X106811000Y-96930000D01*
X109411000Y-96930000D02*
X109411000Y-94270000D01*
X109411000Y-94270000D02*
X137411000Y-94270000D01*
X109411000Y-96930000D02*
X137411000Y-96930000D01*
X137411000Y-96930000D02*
X137411000Y-94270000D01*
%TO.C,J5*%
X106811000Y-72270000D02*
X106811000Y-74930000D01*
X134811000Y-72270000D02*
X106811000Y-72270000D01*
X134811000Y-74930000D02*
X106811000Y-74930000D01*
X134811000Y-72270000D02*
X134811000Y-74930000D01*
X136081000Y-72270000D02*
X137411000Y-72270000D01*
X137411000Y-72270000D02*
X137411000Y-73600000D01*
%TO.C,J6*%
X191080000Y-107670000D02*
X191080000Y-109000000D01*
X189750000Y-107670000D02*
X191080000Y-107670000D01*
X188480000Y-107670000D02*
X188480000Y-110330000D01*
X188480000Y-110330000D02*
X183340000Y-110330000D01*
X188480000Y-107670000D02*
X183340000Y-107670000D01*
X183340000Y-107670000D02*
X183340000Y-110330000D01*
%TO.C,J8*%
X198670000Y-89710000D02*
X201330000Y-89710000D01*
X198670000Y-84570000D02*
X198670000Y-89710000D01*
X201330000Y-84570000D02*
X201330000Y-89710000D01*
X198670000Y-84570000D02*
X201330000Y-84570000D01*
X198670000Y-83300000D02*
X198670000Y-81970000D01*
X198670000Y-81970000D02*
X200000000Y-81970000D01*
%TO.C,U2*%
X184270000Y-94390000D02*
X184270000Y-96040000D01*
X184270000Y-96040000D02*
X194550000Y-96040000D01*
X194550000Y-96040000D02*
X194550000Y-90740000D01*
X194550000Y-90740000D02*
X184270000Y-90740000D01*
X184270000Y-90740000D02*
X184270000Y-92390000D01*
X184270000Y-92390000D02*
G75*
G02*
X184270000Y-94390000I0J-1000000D01*
G01*
%TO.C,U1*%
D11*
X107702904Y-90590476D02*
X107702904Y-90133333D01*
X108502904Y-90361904D02*
X107702904Y-90361904D01*
X107702904Y-89942857D02*
X108502904Y-89409523D01*
X107702904Y-89409523D02*
X108502904Y-89942857D01*
X107702904Y-88952380D02*
X107702904Y-88876190D01*
X107741000Y-88800000D01*
X107779095Y-88761904D01*
X107855285Y-88723809D01*
X108007666Y-88685714D01*
X108198142Y-88685714D01*
X108350523Y-88723809D01*
X108426714Y-88761904D01*
X108464809Y-88800000D01*
X108502904Y-88876190D01*
X108502904Y-88952380D01*
X108464809Y-89028571D01*
X108426714Y-89066666D01*
X108350523Y-89104761D01*
X108198142Y-89142857D01*
X108007666Y-89142857D01*
X107855285Y-89104761D01*
X107779095Y-89066666D01*
X107741000Y-89028571D01*
X107702904Y-88952380D01*
X111042904Y-90621285D02*
X110661952Y-90887952D01*
X111042904Y-91078428D02*
X110242904Y-91078428D01*
X110242904Y-90773666D01*
X110281000Y-90697476D01*
X110319095Y-90659380D01*
X110395285Y-90621285D01*
X110509571Y-90621285D01*
X110585761Y-90659380D01*
X110623857Y-90697476D01*
X110661952Y-90773666D01*
X110661952Y-91078428D01*
X110242904Y-90354619D02*
X111042904Y-89821285D01*
X110242904Y-89821285D02*
X111042904Y-90354619D01*
X111042904Y-89097476D02*
X111042904Y-89554619D01*
X111042904Y-89326047D02*
X110242904Y-89326047D01*
X110357190Y-89402238D01*
X110433380Y-89478428D01*
X110471476Y-89554619D01*
X121202904Y-90697476D02*
X120402904Y-90697476D01*
X120402904Y-90507000D01*
X120441000Y-90392714D01*
X120517190Y-90316523D01*
X120593380Y-90278428D01*
X120745761Y-90240333D01*
X120860047Y-90240333D01*
X121012428Y-90278428D01*
X121088619Y-90316523D01*
X121164809Y-90392714D01*
X121202904Y-90507000D01*
X121202904Y-90697476D01*
X120402904Y-89745095D02*
X120402904Y-89668904D01*
X120441000Y-89592714D01*
X120479095Y-89554619D01*
X120555285Y-89516523D01*
X120707666Y-89478428D01*
X120898142Y-89478428D01*
X121050523Y-89516523D01*
X121126714Y-89554619D01*
X121164809Y-89592714D01*
X121202904Y-89668904D01*
X121202904Y-89745095D01*
X121164809Y-89821285D01*
X121126714Y-89859380D01*
X121050523Y-89897476D01*
X120898142Y-89935571D01*
X120707666Y-89935571D01*
X120555285Y-89897476D01*
X120479095Y-89859380D01*
X120441000Y-89821285D01*
X120402904Y-89745095D01*
X118662904Y-90697476D02*
X117862904Y-90697476D01*
X117862904Y-90507000D01*
X117901000Y-90392714D01*
X117977190Y-90316523D01*
X118053380Y-90278428D01*
X118205761Y-90240333D01*
X118320047Y-90240333D01*
X118472428Y-90278428D01*
X118548619Y-90316523D01*
X118624809Y-90392714D01*
X118662904Y-90507000D01*
X118662904Y-90697476D01*
X118662904Y-89478428D02*
X118662904Y-89935571D01*
X118662904Y-89707000D02*
X117862904Y-89707000D01*
X117977190Y-89783190D01*
X118053380Y-89859380D01*
X118091476Y-89935571D01*
X115361000Y-90716523D02*
X115322904Y-90792714D01*
X115322904Y-90907000D01*
X115361000Y-91021285D01*
X115437190Y-91097476D01*
X115513380Y-91135571D01*
X115665761Y-91173666D01*
X115780047Y-91173666D01*
X115932428Y-91135571D01*
X116008619Y-91097476D01*
X116084809Y-91021285D01*
X116122904Y-90907000D01*
X116122904Y-90830809D01*
X116084809Y-90716523D01*
X116046714Y-90678428D01*
X115780047Y-90678428D01*
X115780047Y-90830809D01*
X116122904Y-90335571D02*
X115322904Y-90335571D01*
X116122904Y-89878428D01*
X115322904Y-89878428D01*
X116122904Y-89497476D02*
X115322904Y-89497476D01*
X115322904Y-89307000D01*
X115361000Y-89192714D01*
X115437190Y-89116523D01*
X115513380Y-89078428D01*
X115665761Y-89040333D01*
X115780047Y-89040333D01*
X115932428Y-89078428D01*
X116008619Y-89116523D01*
X116084809Y-89192714D01*
X116122904Y-89307000D01*
X116122904Y-89497476D01*
X112821000Y-90716523D02*
X112782904Y-90792714D01*
X112782904Y-90907000D01*
X112821000Y-91021285D01*
X112897190Y-91097476D01*
X112973380Y-91135571D01*
X113125761Y-91173666D01*
X113240047Y-91173666D01*
X113392428Y-91135571D01*
X113468619Y-91097476D01*
X113544809Y-91021285D01*
X113582904Y-90907000D01*
X113582904Y-90830809D01*
X113544809Y-90716523D01*
X113506714Y-90678428D01*
X113240047Y-90678428D01*
X113240047Y-90830809D01*
X113582904Y-90335571D02*
X112782904Y-90335571D01*
X113582904Y-89878428D01*
X112782904Y-89878428D01*
X113582904Y-89497476D02*
X112782904Y-89497476D01*
X112782904Y-89307000D01*
X112821000Y-89192714D01*
X112897190Y-89116523D01*
X112973380Y-89078428D01*
X113125761Y-89040333D01*
X113240047Y-89040333D01*
X113392428Y-89078428D01*
X113468619Y-89116523D01*
X113544809Y-89192714D01*
X113582904Y-89307000D01*
X113582904Y-89497476D01*
X123742904Y-90697476D02*
X122942904Y-90697476D01*
X122942904Y-90507000D01*
X122981000Y-90392714D01*
X123057190Y-90316523D01*
X123133380Y-90278428D01*
X123285761Y-90240333D01*
X123400047Y-90240333D01*
X123552428Y-90278428D01*
X123628619Y-90316523D01*
X123704809Y-90392714D01*
X123742904Y-90507000D01*
X123742904Y-90697476D01*
X123209571Y-89554619D02*
X123742904Y-89554619D01*
X122904809Y-89745095D02*
X123476238Y-89935571D01*
X123476238Y-89440333D01*
X126206714Y-90240333D02*
X126244809Y-90278428D01*
X126282904Y-90392714D01*
X126282904Y-90468904D01*
X126244809Y-90583190D01*
X126168619Y-90659380D01*
X126092428Y-90697476D01*
X125940047Y-90735571D01*
X125825761Y-90735571D01*
X125673380Y-90697476D01*
X125597190Y-90659380D01*
X125521000Y-90583190D01*
X125482904Y-90468904D01*
X125482904Y-90392714D01*
X125521000Y-90278428D01*
X125559095Y-90240333D01*
X125482904Y-89554619D02*
X125482904Y-89707000D01*
X125521000Y-89783190D01*
X125559095Y-89821285D01*
X125673380Y-89897476D01*
X125825761Y-89935571D01*
X126130523Y-89935571D01*
X126206714Y-89897476D01*
X126244809Y-89859380D01*
X126282904Y-89783190D01*
X126282904Y-89630809D01*
X126244809Y-89554619D01*
X126206714Y-89516523D01*
X126130523Y-89478428D01*
X125940047Y-89478428D01*
X125863857Y-89516523D01*
X125825761Y-89554619D01*
X125787666Y-89630809D01*
X125787666Y-89783190D01*
X125825761Y-89859380D01*
X125863857Y-89897476D01*
X125940047Y-89935571D01*
X128822904Y-90697476D02*
X128022904Y-90697476D01*
X128022904Y-90507000D01*
X128061000Y-90392714D01*
X128137190Y-90316523D01*
X128213380Y-90278428D01*
X128365761Y-90240333D01*
X128480047Y-90240333D01*
X128632428Y-90278428D01*
X128708619Y-90316523D01*
X128784809Y-90392714D01*
X128822904Y-90507000D01*
X128822904Y-90697476D01*
X128022904Y-89973666D02*
X128022904Y-89440333D01*
X128822904Y-89783190D01*
X130943857Y-90659380D02*
X130943857Y-90392714D01*
X131362904Y-90278428D02*
X131362904Y-90659380D01*
X130562904Y-90659380D01*
X130562904Y-90278428D01*
X130562904Y-89592714D02*
X130562904Y-89745095D01*
X130601000Y-89821285D01*
X130639095Y-89859380D01*
X130753380Y-89935571D01*
X130905761Y-89973666D01*
X131210523Y-89973666D01*
X131286714Y-89935571D01*
X131324809Y-89897476D01*
X131362904Y-89821285D01*
X131362904Y-89668904D01*
X131324809Y-89592714D01*
X131286714Y-89554619D01*
X131210523Y-89516523D01*
X131020047Y-89516523D01*
X130943857Y-89554619D01*
X130905761Y-89592714D01*
X130867666Y-89668904D01*
X130867666Y-89821285D01*
X130905761Y-89897476D01*
X130943857Y-89935571D01*
X131020047Y-89973666D01*
X133483857Y-90430809D02*
X133521952Y-90316523D01*
X133560047Y-90278428D01*
X133636238Y-90240333D01*
X133750523Y-90240333D01*
X133826714Y-90278428D01*
X133864809Y-90316523D01*
X133902904Y-90392714D01*
X133902904Y-90697476D01*
X133102904Y-90697476D01*
X133102904Y-90430809D01*
X133141000Y-90354619D01*
X133179095Y-90316523D01*
X133255285Y-90278428D01*
X133331476Y-90278428D01*
X133407666Y-90316523D01*
X133445761Y-90354619D01*
X133483857Y-90430809D01*
X133483857Y-90697476D01*
X133369571Y-89554619D02*
X133902904Y-89554619D01*
X133064809Y-89745095D02*
X133636238Y-89935571D01*
X133636238Y-89440333D01*
X136023857Y-90430809D02*
X136061952Y-90316523D01*
X136100047Y-90278428D01*
X136176238Y-90240333D01*
X136290523Y-90240333D01*
X136366714Y-90278428D01*
X136404809Y-90316523D01*
X136442904Y-90392714D01*
X136442904Y-90697476D01*
X135642904Y-90697476D01*
X135642904Y-90430809D01*
X135681000Y-90354619D01*
X135719095Y-90316523D01*
X135795285Y-90278428D01*
X135871476Y-90278428D01*
X135947666Y-90316523D01*
X135985761Y-90354619D01*
X136023857Y-90430809D01*
X136023857Y-90697476D01*
X135642904Y-89516523D02*
X135642904Y-89897476D01*
X136023857Y-89935571D01*
X135985761Y-89897476D01*
X135947666Y-89821285D01*
X135947666Y-89630809D01*
X135985761Y-89554619D01*
X136023857Y-89516523D01*
X136100047Y-89478428D01*
X136290523Y-89478428D01*
X136366714Y-89516523D01*
X136404809Y-89554619D01*
X136442904Y-89630809D01*
X136442904Y-89821285D01*
X136404809Y-89897476D01*
X136366714Y-89935571D01*
X136023857Y-79508809D02*
X136061952Y-79394523D01*
X136100047Y-79356428D01*
X136176238Y-79318333D01*
X136290523Y-79318333D01*
X136366714Y-79356428D01*
X136404809Y-79394523D01*
X136442904Y-79470714D01*
X136442904Y-79775476D01*
X135642904Y-79775476D01*
X135642904Y-79508809D01*
X135681000Y-79432619D01*
X135719095Y-79394523D01*
X135795285Y-79356428D01*
X135871476Y-79356428D01*
X135947666Y-79394523D01*
X135985761Y-79432619D01*
X136023857Y-79508809D01*
X136023857Y-79775476D01*
X135642904Y-78632619D02*
X135642904Y-78785000D01*
X135681000Y-78861190D01*
X135719095Y-78899285D01*
X135833380Y-78975476D01*
X135985761Y-79013571D01*
X136290523Y-79013571D01*
X136366714Y-78975476D01*
X136404809Y-78937380D01*
X136442904Y-78861190D01*
X136442904Y-78708809D01*
X136404809Y-78632619D01*
X136366714Y-78594523D01*
X136290523Y-78556428D01*
X136100047Y-78556428D01*
X136023857Y-78594523D01*
X135985761Y-78632619D01*
X135947666Y-78708809D01*
X135947666Y-78861190D01*
X135985761Y-78937380D01*
X136023857Y-78975476D01*
X136100047Y-79013571D01*
X130943857Y-79508809D02*
X130981952Y-79394523D01*
X131020047Y-79356428D01*
X131096238Y-79318333D01*
X131210523Y-79318333D01*
X131286714Y-79356428D01*
X131324809Y-79394523D01*
X131362904Y-79470714D01*
X131362904Y-79775476D01*
X130562904Y-79775476D01*
X130562904Y-79508809D01*
X130601000Y-79432619D01*
X130639095Y-79394523D01*
X130715285Y-79356428D01*
X130791476Y-79356428D01*
X130867666Y-79394523D01*
X130905761Y-79432619D01*
X130943857Y-79508809D01*
X130943857Y-79775476D01*
X130562904Y-79051666D02*
X130562904Y-78556428D01*
X130867666Y-78823095D01*
X130867666Y-78708809D01*
X130905761Y-78632619D01*
X130943857Y-78594523D01*
X131020047Y-78556428D01*
X131210523Y-78556428D01*
X131286714Y-78594523D01*
X131324809Y-78632619D01*
X131362904Y-78708809D01*
X131362904Y-78937380D01*
X131324809Y-79013571D01*
X131286714Y-79051666D01*
X128403857Y-79508809D02*
X128441952Y-79394523D01*
X128480047Y-79356428D01*
X128556238Y-79318333D01*
X128670523Y-79318333D01*
X128746714Y-79356428D01*
X128784809Y-79394523D01*
X128822904Y-79470714D01*
X128822904Y-79775476D01*
X128022904Y-79775476D01*
X128022904Y-79508809D01*
X128061000Y-79432619D01*
X128099095Y-79394523D01*
X128175285Y-79356428D01*
X128251476Y-79356428D01*
X128327666Y-79394523D01*
X128365761Y-79432619D01*
X128403857Y-79508809D01*
X128403857Y-79775476D01*
X128822904Y-78556428D02*
X128822904Y-79013571D01*
X128822904Y-78785000D02*
X128022904Y-78785000D01*
X128137190Y-78861190D01*
X128213380Y-78937380D01*
X128251476Y-79013571D01*
X118243857Y-79451666D02*
X118243857Y-79718333D01*
X118662904Y-79718333D02*
X117862904Y-79718333D01*
X117862904Y-79337380D01*
X118129571Y-78689761D02*
X118662904Y-78689761D01*
X117824809Y-78880238D02*
X118396238Y-79070714D01*
X118396238Y-78575476D01*
X115322904Y-80251666D02*
X116122904Y-79985000D01*
X115322904Y-79718333D01*
X116046714Y-78994523D02*
X116084809Y-79032619D01*
X116122904Y-79146904D01*
X116122904Y-79223095D01*
X116084809Y-79337380D01*
X116008619Y-79413571D01*
X115932428Y-79451666D01*
X115780047Y-79489761D01*
X115665761Y-79489761D01*
X115513380Y-79451666D01*
X115437190Y-79413571D01*
X115361000Y-79337380D01*
X115322904Y-79223095D01*
X115322904Y-79146904D01*
X115361000Y-79032619D01*
X115399095Y-78994523D01*
X116046714Y-78194523D02*
X116084809Y-78232619D01*
X116122904Y-78346904D01*
X116122904Y-78423095D01*
X116084809Y-78537380D01*
X116008619Y-78613571D01*
X115932428Y-78651666D01*
X115780047Y-78689761D01*
X115665761Y-78689761D01*
X115513380Y-78651666D01*
X115437190Y-78613571D01*
X115361000Y-78537380D01*
X115322904Y-78423095D01*
X115322904Y-78346904D01*
X115361000Y-78232619D01*
X115399095Y-78194523D01*
X113514809Y-79446213D02*
X113552904Y-79331927D01*
X113552904Y-79141451D01*
X113514809Y-79065260D01*
X113476714Y-79027165D01*
X113400523Y-78989070D01*
X113324333Y-78989070D01*
X113248142Y-79027165D01*
X113210047Y-79065260D01*
X113171952Y-79141451D01*
X113133857Y-79293832D01*
X113095761Y-79370022D01*
X113057666Y-79408118D01*
X112981476Y-79446213D01*
X112905285Y-79446213D01*
X112829095Y-79408118D01*
X112791000Y-79370022D01*
X112752904Y-79293832D01*
X112752904Y-79103356D01*
X112791000Y-78989070D01*
X112752904Y-78760499D02*
X112752904Y-78303356D01*
X113552904Y-78531927D02*
X112752904Y-78531927D01*
X110281000Y-79794523D02*
X110242904Y-79870714D01*
X110242904Y-79985000D01*
X110281000Y-80099285D01*
X110357190Y-80175476D01*
X110433380Y-80213571D01*
X110585761Y-80251666D01*
X110700047Y-80251666D01*
X110852428Y-80213571D01*
X110928619Y-80175476D01*
X111004809Y-80099285D01*
X111042904Y-79985000D01*
X111042904Y-79908809D01*
X111004809Y-79794523D01*
X110966714Y-79756428D01*
X110700047Y-79756428D01*
X110700047Y-79908809D01*
X111042904Y-79413571D02*
X110242904Y-79413571D01*
X111042904Y-78956428D01*
X110242904Y-78956428D01*
X111042904Y-78575476D02*
X110242904Y-78575476D01*
X110242904Y-78385000D01*
X110281000Y-78270714D01*
X110357190Y-78194523D01*
X110433380Y-78156428D01*
X110585761Y-78118333D01*
X110700047Y-78118333D01*
X110852428Y-78156428D01*
X110928619Y-78194523D01*
X111004809Y-78270714D01*
X111042904Y-78385000D01*
X111042904Y-78575476D01*
X108502904Y-79737380D02*
X108121952Y-80004047D01*
X108502904Y-80194523D02*
X107702904Y-80194523D01*
X107702904Y-79889761D01*
X107741000Y-79813571D01*
X107779095Y-79775476D01*
X107855285Y-79737380D01*
X107969571Y-79737380D01*
X108045761Y-79775476D01*
X108083857Y-79813571D01*
X108121952Y-79889761D01*
X108121952Y-80194523D01*
X108274333Y-79432619D02*
X108274333Y-79051666D01*
X108502904Y-79508809D02*
X107702904Y-79242142D01*
X108502904Y-78975476D01*
X107702904Y-78785000D02*
X108502904Y-78594523D01*
X107931476Y-78442142D01*
X108502904Y-78289761D01*
X107702904Y-78099285D01*
X120783857Y-79451666D02*
X120783857Y-79718333D01*
X121202904Y-79718333D02*
X120402904Y-79718333D01*
X120402904Y-79337380D01*
X120402904Y-78651666D02*
X120402904Y-79032619D01*
X120783857Y-79070714D01*
X120745761Y-79032619D01*
X120707666Y-78956428D01*
X120707666Y-78765952D01*
X120745761Y-78689761D01*
X120783857Y-78651666D01*
X120860047Y-78613571D01*
X121050523Y-78613571D01*
X121126714Y-78651666D01*
X121164809Y-78689761D01*
X121202904Y-78765952D01*
X121202904Y-78956428D01*
X121164809Y-79032619D01*
X121126714Y-79070714D01*
X123323857Y-79451666D02*
X123323857Y-79718333D01*
X123742904Y-79718333D02*
X122942904Y-79718333D01*
X122942904Y-79337380D01*
X122942904Y-78689761D02*
X122942904Y-78842142D01*
X122981000Y-78918333D01*
X123019095Y-78956428D01*
X123133380Y-79032619D01*
X123285761Y-79070714D01*
X123590523Y-79070714D01*
X123666714Y-79032619D01*
X123704809Y-78994523D01*
X123742904Y-78918333D01*
X123742904Y-78765952D01*
X123704809Y-78689761D01*
X123666714Y-78651666D01*
X123590523Y-78613571D01*
X123400047Y-78613571D01*
X123323857Y-78651666D01*
X123285761Y-78689761D01*
X123247666Y-78765952D01*
X123247666Y-78918333D01*
X123285761Y-78994523D01*
X123323857Y-79032619D01*
X123400047Y-79070714D01*
X125863857Y-79451666D02*
X125863857Y-79718333D01*
X126282904Y-79718333D02*
X125482904Y-79718333D01*
X125482904Y-79337380D01*
X125482904Y-79108809D02*
X125482904Y-78575476D01*
X126282904Y-78918333D01*
X133483857Y-79508809D02*
X133521952Y-79394523D01*
X133560047Y-79356428D01*
X133636238Y-79318333D01*
X133750523Y-79318333D01*
X133826714Y-79356428D01*
X133864809Y-79394523D01*
X133902904Y-79470714D01*
X133902904Y-79775476D01*
X133102904Y-79775476D01*
X133102904Y-79508809D01*
X133141000Y-79432619D01*
X133179095Y-79394523D01*
X133255285Y-79356428D01*
X133331476Y-79356428D01*
X133407666Y-79394523D01*
X133445761Y-79432619D01*
X133483857Y-79508809D01*
X133483857Y-79775476D01*
X133179095Y-79013571D02*
X133141000Y-78975476D01*
X133102904Y-78899285D01*
X133102904Y-78708809D01*
X133141000Y-78632619D01*
X133179095Y-78594523D01*
X133255285Y-78556428D01*
X133331476Y-78556428D01*
X133445761Y-78594523D01*
X133902904Y-79051666D01*
X133902904Y-78556428D01*
%TO.C,*%
%TO.C,JP2*%
X115866666Y-82252380D02*
X115866666Y-82966666D01*
X115819047Y-83109523D01*
X115723809Y-83204761D01*
X115580952Y-83252380D01*
X115485714Y-83252380D01*
X116342857Y-83252380D02*
X116342857Y-82252380D01*
X116723809Y-82252380D01*
X116819047Y-82300000D01*
X116866666Y-82347619D01*
X116914285Y-82442857D01*
X116914285Y-82585714D01*
X116866666Y-82680952D01*
X116819047Y-82728571D01*
X116723809Y-82776190D01*
X116342857Y-82776190D01*
X117295238Y-82347619D02*
X117342857Y-82300000D01*
X117438095Y-82252380D01*
X117676190Y-82252380D01*
X117771428Y-82300000D01*
X117819047Y-82347619D01*
X117866666Y-82442857D01*
X117866666Y-82538095D01*
X117819047Y-82680952D01*
X117247619Y-83252380D01*
X117866666Y-83252380D01*
%TO.C,R9*%
X154033333Y-77052380D02*
X153700000Y-76576190D01*
X153461904Y-77052380D02*
X153461904Y-76052380D01*
X153842857Y-76052380D01*
X153938095Y-76100000D01*
X153985714Y-76147619D01*
X154033333Y-76242857D01*
X154033333Y-76385714D01*
X153985714Y-76480952D01*
X153938095Y-76528571D01*
X153842857Y-76576190D01*
X153461904Y-76576190D01*
X154509523Y-77052380D02*
X154700000Y-77052380D01*
X154795238Y-77004761D01*
X154842857Y-76957142D01*
X154938095Y-76814285D01*
X154985714Y-76623809D01*
X154985714Y-76242857D01*
X154938095Y-76147619D01*
X154890476Y-76100000D01*
X154795238Y-76052380D01*
X154604761Y-76052380D01*
X154509523Y-76100000D01*
X154461904Y-76147619D01*
X154414285Y-76242857D01*
X154414285Y-76480952D01*
X154461904Y-76576190D01*
X154509523Y-76623809D01*
X154604761Y-76671428D01*
X154795238Y-76671428D01*
X154890476Y-76623809D01*
X154938095Y-76576190D01*
X154985714Y-76480952D01*
%TO.C,D3*%
X153461904Y-79652380D02*
X153461904Y-78652380D01*
X153700000Y-78652380D01*
X153842857Y-78700000D01*
X153938095Y-78795238D01*
X153985714Y-78890476D01*
X154033333Y-79080952D01*
X154033333Y-79223809D01*
X153985714Y-79414285D01*
X153938095Y-79509523D01*
X153842857Y-79604761D01*
X153700000Y-79652380D01*
X153461904Y-79652380D01*
X154366666Y-78652380D02*
X154985714Y-78652380D01*
X154652380Y-79033333D01*
X154795238Y-79033333D01*
X154890476Y-79080952D01*
X154938095Y-79128571D01*
X154985714Y-79223809D01*
X154985714Y-79461904D01*
X154938095Y-79557142D01*
X154890476Y-79604761D01*
X154795238Y-79652380D01*
X154509523Y-79652380D01*
X154414285Y-79604761D01*
X154366666Y-79557142D01*
%TO.C,JP1*%
X174416666Y-87102380D02*
X174416666Y-87816666D01*
X174369047Y-87959523D01*
X174273809Y-88054761D01*
X174130952Y-88102380D01*
X174035714Y-88102380D01*
X174892857Y-88102380D02*
X174892857Y-87102380D01*
X175273809Y-87102380D01*
X175369047Y-87150000D01*
X175416666Y-87197619D01*
X175464285Y-87292857D01*
X175464285Y-87435714D01*
X175416666Y-87530952D01*
X175369047Y-87578571D01*
X175273809Y-87626190D01*
X174892857Y-87626190D01*
X176416666Y-88102380D02*
X175845238Y-88102380D01*
X176130952Y-88102380D02*
X176130952Y-87102380D01*
X176035714Y-87245238D01*
X175940476Y-87340476D01*
X175845238Y-87388095D01*
%TO.C,JP5*%
X112974380Y-87325334D02*
X113688666Y-87325334D01*
X113831523Y-87372953D01*
X113926761Y-87468191D01*
X113974380Y-87611048D01*
X113974380Y-87706286D01*
X113974380Y-86849143D02*
X112974380Y-86849143D01*
X112974380Y-86468191D01*
X113022000Y-86372953D01*
X113069619Y-86325334D01*
X113164857Y-86277715D01*
X113307714Y-86277715D01*
X113402952Y-86325334D01*
X113450571Y-86372953D01*
X113498190Y-86468191D01*
X113498190Y-86849143D01*
X112974380Y-85372953D02*
X112974380Y-85849143D01*
X113450571Y-85896762D01*
X113402952Y-85849143D01*
X113355333Y-85753905D01*
X113355333Y-85515810D01*
X113402952Y-85420572D01*
X113450571Y-85372953D01*
X113545809Y-85325334D01*
X113783904Y-85325334D01*
X113879142Y-85372953D01*
X113926761Y-85420572D01*
X113974380Y-85515810D01*
X113974380Y-85753905D01*
X113926761Y-85849143D01*
X113879142Y-85896762D01*
%TO.C,JP6*%
X117016380Y-87183333D02*
X117730666Y-87183333D01*
X117873523Y-87230952D01*
X117968761Y-87326190D01*
X118016380Y-87469047D01*
X118016380Y-87564285D01*
X118016380Y-86707142D02*
X117016380Y-86707142D01*
X117016380Y-86326190D01*
X117064000Y-86230952D01*
X117111619Y-86183333D01*
X117206857Y-86135714D01*
X117349714Y-86135714D01*
X117444952Y-86183333D01*
X117492571Y-86230952D01*
X117540190Y-86326190D01*
X117540190Y-86707142D01*
X117016380Y-85278571D02*
X117016380Y-85469047D01*
X117064000Y-85564285D01*
X117111619Y-85611904D01*
X117254476Y-85707142D01*
X117444952Y-85754761D01*
X117825904Y-85754761D01*
X117921142Y-85707142D01*
X117968761Y-85659523D01*
X118016380Y-85564285D01*
X118016380Y-85373809D01*
X117968761Y-85278571D01*
X117921142Y-85230952D01*
X117825904Y-85183333D01*
X117587809Y-85183333D01*
X117492571Y-85230952D01*
X117444952Y-85278571D01*
X117397333Y-85373809D01*
X117397333Y-85564285D01*
X117444952Y-85659523D01*
X117492571Y-85707142D01*
X117587809Y-85754761D01*
%TO.C,JP7*%
X121080380Y-87183333D02*
X121794666Y-87183333D01*
X121937523Y-87230952D01*
X122032761Y-87326190D01*
X122080380Y-87469047D01*
X122080380Y-87564285D01*
X122080380Y-86707142D02*
X121080380Y-86707142D01*
X121080380Y-86326190D01*
X121128000Y-86230952D01*
X121175619Y-86183333D01*
X121270857Y-86135714D01*
X121413714Y-86135714D01*
X121508952Y-86183333D01*
X121556571Y-86230952D01*
X121604190Y-86326190D01*
X121604190Y-86707142D01*
X121080380Y-85802380D02*
X121080380Y-85135714D01*
X122080380Y-85564285D01*
%TO.C,R6*%
X190033333Y-80252380D02*
X189700000Y-79776190D01*
X189461904Y-80252380D02*
X189461904Y-79252380D01*
X189842857Y-79252380D01*
X189938095Y-79300000D01*
X189985714Y-79347619D01*
X190033333Y-79442857D01*
X190033333Y-79585714D01*
X189985714Y-79680952D01*
X189938095Y-79728571D01*
X189842857Y-79776190D01*
X189461904Y-79776190D01*
X190890476Y-79252380D02*
X190700000Y-79252380D01*
X190604761Y-79300000D01*
X190557142Y-79347619D01*
X190461904Y-79490476D01*
X190414285Y-79680952D01*
X190414285Y-80061904D01*
X190461904Y-80157142D01*
X190509523Y-80204761D01*
X190604761Y-80252380D01*
X190795238Y-80252380D01*
X190890476Y-80204761D01*
X190938095Y-80157142D01*
X190985714Y-80061904D01*
X190985714Y-79823809D01*
X190938095Y-79728571D01*
X190890476Y-79680952D01*
X190795238Y-79633333D01*
X190604761Y-79633333D01*
X190509523Y-79680952D01*
X190461904Y-79728571D01*
X190414285Y-79823809D01*
%TO.C,C2*%
X154033333Y-73957142D02*
X153985714Y-74004761D01*
X153842857Y-74052380D01*
X153747619Y-74052380D01*
X153604761Y-74004761D01*
X153509523Y-73909523D01*
X153461904Y-73814285D01*
X153414285Y-73623809D01*
X153414285Y-73480952D01*
X153461904Y-73290476D01*
X153509523Y-73195238D01*
X153604761Y-73100000D01*
X153747619Y-73052380D01*
X153842857Y-73052380D01*
X153985714Y-73100000D01*
X154033333Y-73147619D01*
X154414285Y-73147619D02*
X154461904Y-73100000D01*
X154557142Y-73052380D01*
X154795238Y-73052380D01*
X154890476Y-73100000D01*
X154938095Y-73147619D01*
X154985714Y-73242857D01*
X154985714Y-73338095D01*
X154938095Y-73480952D01*
X154366666Y-74052380D01*
X154985714Y-74052380D01*
%TO.C,SW5*%
D10*
X197833742Y-97312800D02*
X197862771Y-97225714D01*
X197862771Y-97080571D01*
X197833742Y-97022514D01*
X197804714Y-96993485D01*
X197746657Y-96964457D01*
X197688600Y-96964457D01*
X197630542Y-96993485D01*
X197601514Y-97022514D01*
X197572485Y-97080571D01*
X197543457Y-97196685D01*
X197514428Y-97254742D01*
X197485400Y-97283771D01*
X197427342Y-97312800D01*
X197369285Y-97312800D01*
X197311228Y-97283771D01*
X197282200Y-97254742D01*
X197253171Y-97196685D01*
X197253171Y-97051542D01*
X197282200Y-96964457D01*
X197253171Y-96761257D02*
X197862771Y-96616114D01*
X197427342Y-96500000D01*
X197862771Y-96383885D01*
X197253171Y-96238742D01*
X197253171Y-95716228D02*
X197253171Y-96006514D01*
X197543457Y-96035542D01*
X197514428Y-96006514D01*
X197485400Y-95948457D01*
X197485400Y-95803314D01*
X197514428Y-95745257D01*
X197543457Y-95716228D01*
X197601514Y-95687200D01*
X197746657Y-95687200D01*
X197804714Y-95716228D01*
X197833742Y-95745257D01*
X197862771Y-95803314D01*
X197862771Y-95948457D01*
X197833742Y-96006514D01*
X197804714Y-96035542D01*
%TO.C,SW4*%
X186083200Y-101802742D02*
X186170285Y-101831771D01*
X186315428Y-101831771D01*
X186373485Y-101802742D01*
X186402514Y-101773714D01*
X186431542Y-101715657D01*
X186431542Y-101657600D01*
X186402514Y-101599542D01*
X186373485Y-101570514D01*
X186315428Y-101541485D01*
X186199314Y-101512457D01*
X186141257Y-101483428D01*
X186112228Y-101454400D01*
X186083200Y-101396342D01*
X186083200Y-101338285D01*
X186112228Y-101280228D01*
X186141257Y-101251200D01*
X186199314Y-101222171D01*
X186344457Y-101222171D01*
X186431542Y-101251200D01*
X186634742Y-101222171D02*
X186779885Y-101831771D01*
X186896000Y-101396342D01*
X187012114Y-101831771D01*
X187157257Y-101222171D01*
X187650742Y-101425371D02*
X187650742Y-101831771D01*
X187505600Y-101193142D02*
X187360457Y-101628571D01*
X187737828Y-101628571D01*
%TO.C,SW3*%
X176113700Y-101802742D02*
X176200785Y-101831771D01*
X176345928Y-101831771D01*
X176403985Y-101802742D01*
X176433014Y-101773714D01*
X176462042Y-101715657D01*
X176462042Y-101657600D01*
X176433014Y-101599542D01*
X176403985Y-101570514D01*
X176345928Y-101541485D01*
X176229814Y-101512457D01*
X176171757Y-101483428D01*
X176142728Y-101454400D01*
X176113700Y-101396342D01*
X176113700Y-101338285D01*
X176142728Y-101280228D01*
X176171757Y-101251200D01*
X176229814Y-101222171D01*
X176374957Y-101222171D01*
X176462042Y-101251200D01*
X176665242Y-101222171D02*
X176810385Y-101831771D01*
X176926500Y-101396342D01*
X177042614Y-101831771D01*
X177187757Y-101222171D01*
X177361928Y-101222171D02*
X177739300Y-101222171D01*
X177536100Y-101454400D01*
X177623185Y-101454400D01*
X177681242Y-101483428D01*
X177710271Y-101512457D01*
X177739300Y-101570514D01*
X177739300Y-101715657D01*
X177710271Y-101773714D01*
X177681242Y-101802742D01*
X177623185Y-101831771D01*
X177449014Y-101831771D01*
X177390957Y-101802742D01*
X177361928Y-101773714D01*
%TO.C,SW2*%
X166144200Y-101802742D02*
X166231285Y-101831771D01*
X166376428Y-101831771D01*
X166434485Y-101802742D01*
X166463514Y-101773714D01*
X166492542Y-101715657D01*
X166492542Y-101657600D01*
X166463514Y-101599542D01*
X166434485Y-101570514D01*
X166376428Y-101541485D01*
X166260314Y-101512457D01*
X166202257Y-101483428D01*
X166173228Y-101454400D01*
X166144200Y-101396342D01*
X166144200Y-101338285D01*
X166173228Y-101280228D01*
X166202257Y-101251200D01*
X166260314Y-101222171D01*
X166405457Y-101222171D01*
X166492542Y-101251200D01*
X166695742Y-101222171D02*
X166840885Y-101831771D01*
X166957000Y-101396342D01*
X167073114Y-101831771D01*
X167218257Y-101222171D01*
X167421457Y-101280228D02*
X167450485Y-101251200D01*
X167508542Y-101222171D01*
X167653685Y-101222171D01*
X167711742Y-101251200D01*
X167740771Y-101280228D01*
X167769800Y-101338285D01*
X167769800Y-101396342D01*
X167740771Y-101483428D01*
X167392428Y-101831771D01*
X167769800Y-101831771D01*
%TO.C,SW1*%
X176126400Y-96773542D02*
X176213485Y-96802571D01*
X176358628Y-96802571D01*
X176416685Y-96773542D01*
X176445714Y-96744514D01*
X176474742Y-96686457D01*
X176474742Y-96628400D01*
X176445714Y-96570342D01*
X176416685Y-96541314D01*
X176358628Y-96512285D01*
X176242514Y-96483257D01*
X176184457Y-96454228D01*
X176155428Y-96425200D01*
X176126400Y-96367142D01*
X176126400Y-96309085D01*
X176155428Y-96251028D01*
X176184457Y-96222000D01*
X176242514Y-96192971D01*
X176387657Y-96192971D01*
X176474742Y-96222000D01*
X176677942Y-96192971D02*
X176823085Y-96802571D01*
X176939200Y-96367142D01*
X177055314Y-96802571D01*
X177200457Y-96192971D01*
X177752000Y-96802571D02*
X177403657Y-96802571D01*
X177577828Y-96802571D02*
X177577828Y-96192971D01*
X177519771Y-96280057D01*
X177461714Y-96338114D01*
X177403657Y-96367142D01*
%TO.C,R2*%
D11*
X179633333Y-93902380D02*
X179300000Y-93426190D01*
X179061904Y-93902380D02*
X179061904Y-92902380D01*
X179442857Y-92902380D01*
X179538095Y-92950000D01*
X179585714Y-92997619D01*
X179633333Y-93092857D01*
X179633333Y-93235714D01*
X179585714Y-93330952D01*
X179538095Y-93378571D01*
X179442857Y-93426190D01*
X179061904Y-93426190D01*
X180014285Y-92997619D02*
X180061904Y-92950000D01*
X180157142Y-92902380D01*
X180395238Y-92902380D01*
X180490476Y-92950000D01*
X180538095Y-92997619D01*
X180585714Y-93092857D01*
X180585714Y-93188095D01*
X180538095Y-93330952D01*
X179966666Y-93902380D01*
X180585714Y-93902380D01*
%TO.C,D2*%
X181561904Y-93902380D02*
X181561904Y-92902380D01*
X181800000Y-92902380D01*
X181942857Y-92950000D01*
X182038095Y-93045238D01*
X182085714Y-93140476D01*
X182133333Y-93330952D01*
X182133333Y-93473809D01*
X182085714Y-93664285D01*
X182038095Y-93759523D01*
X181942857Y-93854761D01*
X181800000Y-93902380D01*
X181561904Y-93902380D01*
X182514285Y-92997619D02*
X182561904Y-92950000D01*
X182657142Y-92902380D01*
X182895238Y-92902380D01*
X182990476Y-92950000D01*
X183038095Y-92997619D01*
X183085714Y-93092857D01*
X183085714Y-93188095D01*
X183038095Y-93330952D01*
X182466666Y-93902380D01*
X183085714Y-93902380D01*
%TO.C,C1*%
X181307142Y-87166666D02*
X181354761Y-87214285D01*
X181402380Y-87357142D01*
X181402380Y-87452380D01*
X181354761Y-87595238D01*
X181259523Y-87690476D01*
X181164285Y-87738095D01*
X180973809Y-87785714D01*
X180830952Y-87785714D01*
X180640476Y-87738095D01*
X180545238Y-87690476D01*
X180450000Y-87595238D01*
X180402380Y-87452380D01*
X180402380Y-87357142D01*
X180450000Y-87214285D01*
X180497619Y-87166666D01*
X181402380Y-86214285D02*
X181402380Y-86785714D01*
X181402380Y-86500000D02*
X180402380Y-86500000D01*
X180545238Y-86595238D01*
X180640476Y-86690476D01*
X180688095Y-86785714D01*
%TO.C,R3*%
X193683333Y-83473380D02*
X193350000Y-82997190D01*
X193111904Y-83473380D02*
X193111904Y-82473380D01*
X193492857Y-82473380D01*
X193588095Y-82521000D01*
X193635714Y-82568619D01*
X193683333Y-82663857D01*
X193683333Y-82806714D01*
X193635714Y-82901952D01*
X193588095Y-82949571D01*
X193492857Y-82997190D01*
X193111904Y-82997190D01*
X194016666Y-82473380D02*
X194635714Y-82473380D01*
X194302380Y-82854333D01*
X194445238Y-82854333D01*
X194540476Y-82901952D01*
X194588095Y-82949571D01*
X194635714Y-83044809D01*
X194635714Y-83282904D01*
X194588095Y-83378142D01*
X194540476Y-83425761D01*
X194445238Y-83473380D01*
X194159523Y-83473380D01*
X194064285Y-83425761D01*
X194016666Y-83378142D01*
%TO.C,R4*%
X190577665Y-83423380D02*
X190244332Y-82947190D01*
X190006236Y-83423380D02*
X190006236Y-82423380D01*
X190387189Y-82423380D01*
X190482427Y-82471000D01*
X190530046Y-82518619D01*
X190577665Y-82613857D01*
X190577665Y-82756714D01*
X190530046Y-82851952D01*
X190482427Y-82899571D01*
X190387189Y-82947190D01*
X190006236Y-82947190D01*
X191434808Y-82756714D02*
X191434808Y-83423380D01*
X191196712Y-82375761D02*
X190958617Y-83090047D01*
X191577665Y-83090047D01*
%TO.C,R1*%
X187421999Y-83423380D02*
X187088666Y-82947190D01*
X186850570Y-83423380D02*
X186850570Y-82423380D01*
X187231523Y-82423380D01*
X187326761Y-82471000D01*
X187374380Y-82518619D01*
X187421999Y-82613857D01*
X187421999Y-82756714D01*
X187374380Y-82851952D01*
X187326761Y-82899571D01*
X187231523Y-82947190D01*
X186850570Y-82947190D01*
X188374380Y-83423380D02*
X187802951Y-83423380D01*
X188088666Y-83423380D02*
X188088666Y-82423380D01*
X187993427Y-82566238D01*
X187898189Y-82661476D01*
X187802951Y-82709095D01*
%TO.C,D1*%
X190661904Y-76318380D02*
X190661904Y-75318380D01*
X190900000Y-75318380D01*
X191042857Y-75366000D01*
X191138095Y-75461238D01*
X191185714Y-75556476D01*
X191233333Y-75746952D01*
X191233333Y-75889809D01*
X191185714Y-76080285D01*
X191138095Y-76175523D01*
X191042857Y-76270761D01*
X190900000Y-76318380D01*
X190661904Y-76318380D01*
X192185714Y-76318380D02*
X191614285Y-76318380D01*
X191900000Y-76318380D02*
X191900000Y-75318380D01*
X191804761Y-75461238D01*
X191709523Y-75556476D01*
X191614285Y-75604095D01*
%TO.C,U2*%
X193202095Y-98752380D02*
X193202095Y-99561904D01*
X193249714Y-99657142D01*
X193297333Y-99704761D01*
X193392571Y-99752380D01*
X193583047Y-99752380D01*
X193678285Y-99704761D01*
X193725904Y-99657142D01*
X193773523Y-99561904D01*
X193773523Y-98752380D01*
X194202095Y-98847619D02*
X194249714Y-98800000D01*
X194344952Y-98752380D01*
X194583047Y-98752380D01*
X194678285Y-98800000D01*
X194725904Y-98847619D01*
X194773523Y-98942857D01*
X194773523Y-99038095D01*
X194725904Y-99180952D01*
X194154476Y-99752380D01*
X194773523Y-99752380D01*
%TD*%
M02*
