%TF.GenerationSoftware,KiCad,Pcbnew,(5.1.6)-1*%
%TF.CreationDate,2021-01-14T00:20:57+08:00*%
%TF.ProjectId,micro-mp,6d696372-6f2d-46d7-902e-6b696361645f,v0.4*%
%TF.SameCoordinates,Original*%
%TF.FileFunction,Soldermask,Bot*%
%TF.FilePolarity,Negative*%
%FSLAX46Y46*%
G04 Gerber Fmt 4.6, Leading zero omitted, Abs format (unit mm)*
G04 Created by KiCad (PCBNEW (5.1.6)-1) date 2021-01-14 00:20:57*
%MOMM*%
%LPD*%
G01*
G04 APERTURE LIST*
%ADD10C,1.854200*%
%ADD11R,1.854200X1.854200*%
%ADD12C,1.801600*%
%ADD13O,1.801600X1.801600*%
%ADD14R,1.801600X1.801600*%
%ADD15O,1.701600X1.701600*%
%ADD16R,1.701600X1.701600*%
%ADD17R,1.101600X1.101600*%
%ADD18R,1.101600X1.601600*%
%ADD19R,3.501600X3.501600*%
%ADD20R,0.401600X1.101600*%
%ADD21R,1.101600X0.401600*%
%ADD22O,1.001600X2.101600*%
%ADD23O,1.001600X1.801600*%
%ADD24R,0.401600X1.261600*%
%ADD25C,0.701600*%
%ADD26R,0.701600X1.261600*%
%ADD27C,3.101600*%
%ADD28R,3.101600X3.101600*%
%ADD29C,6.501600*%
G04 APERTURE END LIST*
D10*
%TO.C,U1*%
X108141000Y-77026000D03*
X136081000Y-92266000D03*
X110681000Y-77026000D03*
X113221000Y-77026000D03*
X115761000Y-77026000D03*
X118301000Y-77026000D03*
X120841000Y-77026000D03*
X123381000Y-77026000D03*
X125921000Y-77026000D03*
X128461000Y-77026000D03*
X131001000Y-77026000D03*
X133541000Y-77026000D03*
X136081000Y-77026000D03*
X133541000Y-92266000D03*
X131001000Y-92266000D03*
X128461000Y-92266000D03*
X125921000Y-92266000D03*
X123381000Y-92266000D03*
X120841000Y-92266000D03*
X118301000Y-92266000D03*
X115761000Y-92266000D03*
X113221000Y-92266000D03*
X110681000Y-92266000D03*
D11*
X108141000Y-92266000D03*
%TD*%
D12*
%TO.C,J4*%
X153162000Y-104902000D03*
X150622000Y-104902000D03*
X148082000Y-104902000D03*
X145542000Y-104902000D03*
X143002000Y-104902000D03*
X153162000Y-107442000D03*
X150622000Y-107442000D03*
X148082000Y-107442000D03*
X145542000Y-107442000D03*
G36*
G01*
X143637859Y-108342800D02*
X142366141Y-108342800D01*
G75*
G02*
X142101200Y-108077859I0J264941D01*
G01*
X142101200Y-106806141D01*
G75*
G02*
X142366141Y-106541200I264941J0D01*
G01*
X143637859Y-106541200D01*
G75*
G02*
X143902800Y-106806141I0J-264941D01*
G01*
X143902800Y-108077859D01*
G75*
G02*
X143637859Y-108342800I-264941J0D01*
G01*
G37*
%TD*%
%TO.C,R11*%
G36*
G01*
X116174200Y-100228714D02*
X116174200Y-99271286D01*
G75*
G02*
X116446286Y-98999200I272086J0D01*
G01*
X117153714Y-98999200D01*
G75*
G02*
X117425800Y-99271286I0J-272086D01*
G01*
X117425800Y-100228714D01*
G75*
G02*
X117153714Y-100500800I-272086J0D01*
G01*
X116446286Y-100500800D01*
G75*
G02*
X116174200Y-100228714I0J272086D01*
G01*
G37*
G36*
G01*
X114124200Y-100228714D02*
X114124200Y-99271286D01*
G75*
G02*
X114396286Y-98999200I272086J0D01*
G01*
X115103714Y-98999200D01*
G75*
G02*
X115375800Y-99271286I0J-272086D01*
G01*
X115375800Y-100228714D01*
G75*
G02*
X115103714Y-100500800I-272086J0D01*
G01*
X114396286Y-100500800D01*
G75*
G02*
X114124200Y-100228714I0J272086D01*
G01*
G37*
%TD*%
%TO.C,R10*%
G36*
G01*
X107600800Y-99271286D02*
X107600800Y-100228714D01*
G75*
G02*
X107328714Y-100500800I-272086J0D01*
G01*
X106621286Y-100500800D01*
G75*
G02*
X106349200Y-100228714I0J272086D01*
G01*
X106349200Y-99271286D01*
G75*
G02*
X106621286Y-98999200I272086J0D01*
G01*
X107328714Y-98999200D01*
G75*
G02*
X107600800Y-99271286I0J-272086D01*
G01*
G37*
G36*
G01*
X109650800Y-99271286D02*
X109650800Y-100228714D01*
G75*
G02*
X109378714Y-100500800I-272086J0D01*
G01*
X108671286Y-100500800D01*
G75*
G02*
X108399200Y-100228714I0J272086D01*
G01*
X108399200Y-99271286D01*
G75*
G02*
X108671286Y-98999200I272086J0D01*
G01*
X109378714Y-98999200D01*
G75*
G02*
X109650800Y-99271286I0J-272086D01*
G01*
G37*
%TD*%
%TO.C,U4*%
G36*
G01*
X147199200Y-98330400D02*
X147199200Y-97979600D01*
G75*
G02*
X147374600Y-97804200I175400J0D01*
G01*
X149075400Y-97804200D01*
G75*
G02*
X149250800Y-97979600I0J-175400D01*
G01*
X149250800Y-98330400D01*
G75*
G02*
X149075400Y-98505800I-175400J0D01*
G01*
X147374600Y-98505800D01*
G75*
G02*
X147199200Y-98330400I0J175400D01*
G01*
G37*
G36*
G01*
X147199200Y-97060400D02*
X147199200Y-96709600D01*
G75*
G02*
X147374600Y-96534200I175400J0D01*
G01*
X149075400Y-96534200D01*
G75*
G02*
X149250800Y-96709600I0J-175400D01*
G01*
X149250800Y-97060400D01*
G75*
G02*
X149075400Y-97235800I-175400J0D01*
G01*
X147374600Y-97235800D01*
G75*
G02*
X147199200Y-97060400I0J175400D01*
G01*
G37*
G36*
G01*
X147199200Y-95790400D02*
X147199200Y-95439600D01*
G75*
G02*
X147374600Y-95264200I175400J0D01*
G01*
X149075400Y-95264200D01*
G75*
G02*
X149250800Y-95439600I0J-175400D01*
G01*
X149250800Y-95790400D01*
G75*
G02*
X149075400Y-95965800I-175400J0D01*
G01*
X147374600Y-95965800D01*
G75*
G02*
X147199200Y-95790400I0J175400D01*
G01*
G37*
G36*
G01*
X147199200Y-94520400D02*
X147199200Y-94169600D01*
G75*
G02*
X147374600Y-93994200I175400J0D01*
G01*
X149075400Y-93994200D01*
G75*
G02*
X149250800Y-94169600I0J-175400D01*
G01*
X149250800Y-94520400D01*
G75*
G02*
X149075400Y-94695800I-175400J0D01*
G01*
X147374600Y-94695800D01*
G75*
G02*
X147199200Y-94520400I0J175400D01*
G01*
G37*
G36*
G01*
X142249200Y-94520400D02*
X142249200Y-94169600D01*
G75*
G02*
X142424600Y-93994200I175400J0D01*
G01*
X144125400Y-93994200D01*
G75*
G02*
X144300800Y-94169600I0J-175400D01*
G01*
X144300800Y-94520400D01*
G75*
G02*
X144125400Y-94695800I-175400J0D01*
G01*
X142424600Y-94695800D01*
G75*
G02*
X142249200Y-94520400I0J175400D01*
G01*
G37*
G36*
G01*
X142249200Y-95790400D02*
X142249200Y-95439600D01*
G75*
G02*
X142424600Y-95264200I175400J0D01*
G01*
X144125400Y-95264200D01*
G75*
G02*
X144300800Y-95439600I0J-175400D01*
G01*
X144300800Y-95790400D01*
G75*
G02*
X144125400Y-95965800I-175400J0D01*
G01*
X142424600Y-95965800D01*
G75*
G02*
X142249200Y-95790400I0J175400D01*
G01*
G37*
G36*
G01*
X142249200Y-97060400D02*
X142249200Y-96709600D01*
G75*
G02*
X142424600Y-96534200I175400J0D01*
G01*
X144125400Y-96534200D01*
G75*
G02*
X144300800Y-96709600I0J-175400D01*
G01*
X144300800Y-97060400D01*
G75*
G02*
X144125400Y-97235800I-175400J0D01*
G01*
X142424600Y-97235800D01*
G75*
G02*
X142249200Y-97060400I0J175400D01*
G01*
G37*
G36*
G01*
X142249200Y-98330400D02*
X142249200Y-97979600D01*
G75*
G02*
X142424600Y-97804200I175400J0D01*
G01*
X144125400Y-97804200D01*
G75*
G02*
X144300800Y-97979600I0J-175400D01*
G01*
X144300800Y-98330400D01*
G75*
G02*
X144125400Y-98505800I-175400J0D01*
G01*
X142424600Y-98505800D01*
G75*
G02*
X142249200Y-98330400I0J175400D01*
G01*
G37*
%TD*%
D13*
%TO.C,J12*%
X181030000Y-109000000D03*
X178490000Y-109000000D03*
X175950000Y-109000000D03*
X173410000Y-109000000D03*
X170870000Y-109000000D03*
X168330000Y-109000000D03*
X165790000Y-109000000D03*
D14*
X163250000Y-109000000D03*
%TD*%
D15*
%TO.C,SW8*%
X148870000Y-87500000D03*
X141250000Y-90040000D03*
X148870000Y-90040000D03*
D16*
X141250000Y-87500000D03*
%TD*%
%TO.C,U5*%
G36*
G01*
X172120400Y-88575800D02*
X171769600Y-88575800D01*
G75*
G02*
X171594200Y-88400400I0J175400D01*
G01*
X171594200Y-86674600D01*
G75*
G02*
X171769600Y-86499200I175400J0D01*
G01*
X172120400Y-86499200D01*
G75*
G02*
X172295800Y-86674600I0J-175400D01*
G01*
X172295800Y-88400400D01*
G75*
G02*
X172120400Y-88575800I-175400J0D01*
G01*
G37*
G36*
G01*
X170850400Y-88575800D02*
X170499600Y-88575800D01*
G75*
G02*
X170324200Y-88400400I0J175400D01*
G01*
X170324200Y-86674600D01*
G75*
G02*
X170499600Y-86499200I175400J0D01*
G01*
X170850400Y-86499200D01*
G75*
G02*
X171025800Y-86674600I0J-175400D01*
G01*
X171025800Y-88400400D01*
G75*
G02*
X170850400Y-88575800I-175400J0D01*
G01*
G37*
G36*
G01*
X169580400Y-88575800D02*
X169229600Y-88575800D01*
G75*
G02*
X169054200Y-88400400I0J175400D01*
G01*
X169054200Y-86674600D01*
G75*
G02*
X169229600Y-86499200I175400J0D01*
G01*
X169580400Y-86499200D01*
G75*
G02*
X169755800Y-86674600I0J-175400D01*
G01*
X169755800Y-88400400D01*
G75*
G02*
X169580400Y-88575800I-175400J0D01*
G01*
G37*
G36*
G01*
X168310400Y-88575800D02*
X167959600Y-88575800D01*
G75*
G02*
X167784200Y-88400400I0J175400D01*
G01*
X167784200Y-86674600D01*
G75*
G02*
X167959600Y-86499200I175400J0D01*
G01*
X168310400Y-86499200D01*
G75*
G02*
X168485800Y-86674600I0J-175400D01*
G01*
X168485800Y-88400400D01*
G75*
G02*
X168310400Y-88575800I-175400J0D01*
G01*
G37*
G36*
G01*
X167040400Y-88575800D02*
X166689600Y-88575800D01*
G75*
G02*
X166514200Y-88400400I0J175400D01*
G01*
X166514200Y-86674600D01*
G75*
G02*
X166689600Y-86499200I175400J0D01*
G01*
X167040400Y-86499200D01*
G75*
G02*
X167215800Y-86674600I0J-175400D01*
G01*
X167215800Y-88400400D01*
G75*
G02*
X167040400Y-88575800I-175400J0D01*
G01*
G37*
G36*
G01*
X165770400Y-88575800D02*
X165419600Y-88575800D01*
G75*
G02*
X165244200Y-88400400I0J175400D01*
G01*
X165244200Y-86674600D01*
G75*
G02*
X165419600Y-86499200I175400J0D01*
G01*
X165770400Y-86499200D01*
G75*
G02*
X165945800Y-86674600I0J-175400D01*
G01*
X165945800Y-88400400D01*
G75*
G02*
X165770400Y-88575800I-175400J0D01*
G01*
G37*
G36*
G01*
X164500400Y-88575800D02*
X164149600Y-88575800D01*
G75*
G02*
X163974200Y-88400400I0J175400D01*
G01*
X163974200Y-86674600D01*
G75*
G02*
X164149600Y-86499200I175400J0D01*
G01*
X164500400Y-86499200D01*
G75*
G02*
X164675800Y-86674600I0J-175400D01*
G01*
X164675800Y-88400400D01*
G75*
G02*
X164500400Y-88575800I-175400J0D01*
G01*
G37*
G36*
G01*
X163230400Y-88575800D02*
X162879600Y-88575800D01*
G75*
G02*
X162704200Y-88400400I0J175400D01*
G01*
X162704200Y-86674600D01*
G75*
G02*
X162879600Y-86499200I175400J0D01*
G01*
X163230400Y-86499200D01*
G75*
G02*
X163405800Y-86674600I0J-175400D01*
G01*
X163405800Y-88400400D01*
G75*
G02*
X163230400Y-88575800I-175400J0D01*
G01*
G37*
G36*
G01*
X163230400Y-95500800D02*
X162879600Y-95500800D01*
G75*
G02*
X162704200Y-95325400I0J175400D01*
G01*
X162704200Y-93599600D01*
G75*
G02*
X162879600Y-93424200I175400J0D01*
G01*
X163230400Y-93424200D01*
G75*
G02*
X163405800Y-93599600I0J-175400D01*
G01*
X163405800Y-95325400D01*
G75*
G02*
X163230400Y-95500800I-175400J0D01*
G01*
G37*
G36*
G01*
X164500400Y-95500800D02*
X164149600Y-95500800D01*
G75*
G02*
X163974200Y-95325400I0J175400D01*
G01*
X163974200Y-93599600D01*
G75*
G02*
X164149600Y-93424200I175400J0D01*
G01*
X164500400Y-93424200D01*
G75*
G02*
X164675800Y-93599600I0J-175400D01*
G01*
X164675800Y-95325400D01*
G75*
G02*
X164500400Y-95500800I-175400J0D01*
G01*
G37*
G36*
G01*
X165770400Y-95500800D02*
X165419600Y-95500800D01*
G75*
G02*
X165244200Y-95325400I0J175400D01*
G01*
X165244200Y-93599600D01*
G75*
G02*
X165419600Y-93424200I175400J0D01*
G01*
X165770400Y-93424200D01*
G75*
G02*
X165945800Y-93599600I0J-175400D01*
G01*
X165945800Y-95325400D01*
G75*
G02*
X165770400Y-95500800I-175400J0D01*
G01*
G37*
G36*
G01*
X167040400Y-95500800D02*
X166689600Y-95500800D01*
G75*
G02*
X166514200Y-95325400I0J175400D01*
G01*
X166514200Y-93599600D01*
G75*
G02*
X166689600Y-93424200I175400J0D01*
G01*
X167040400Y-93424200D01*
G75*
G02*
X167215800Y-93599600I0J-175400D01*
G01*
X167215800Y-95325400D01*
G75*
G02*
X167040400Y-95500800I-175400J0D01*
G01*
G37*
G36*
G01*
X168310400Y-95500800D02*
X167959600Y-95500800D01*
G75*
G02*
X167784200Y-95325400I0J175400D01*
G01*
X167784200Y-93599600D01*
G75*
G02*
X167959600Y-93424200I175400J0D01*
G01*
X168310400Y-93424200D01*
G75*
G02*
X168485800Y-93599600I0J-175400D01*
G01*
X168485800Y-95325400D01*
G75*
G02*
X168310400Y-95500800I-175400J0D01*
G01*
G37*
G36*
G01*
X169580400Y-95500800D02*
X169229600Y-95500800D01*
G75*
G02*
X169054200Y-95325400I0J175400D01*
G01*
X169054200Y-93599600D01*
G75*
G02*
X169229600Y-93424200I175400J0D01*
G01*
X169580400Y-93424200D01*
G75*
G02*
X169755800Y-93599600I0J-175400D01*
G01*
X169755800Y-95325400D01*
G75*
G02*
X169580400Y-95500800I-175400J0D01*
G01*
G37*
G36*
G01*
X170850400Y-95500800D02*
X170499600Y-95500800D01*
G75*
G02*
X170324200Y-95325400I0J175400D01*
G01*
X170324200Y-93599600D01*
G75*
G02*
X170499600Y-93424200I175400J0D01*
G01*
X170850400Y-93424200D01*
G75*
G02*
X171025800Y-93599600I0J-175400D01*
G01*
X171025800Y-95325400D01*
G75*
G02*
X170850400Y-95500800I-175400J0D01*
G01*
G37*
G36*
G01*
X172120400Y-95500800D02*
X171769600Y-95500800D01*
G75*
G02*
X171594200Y-95325400I0J175400D01*
G01*
X171594200Y-93599600D01*
G75*
G02*
X171769600Y-93424200I175400J0D01*
G01*
X172120400Y-93424200D01*
G75*
G02*
X172295800Y-93599600I0J-175400D01*
G01*
X172295800Y-95325400D01*
G75*
G02*
X172120400Y-95500800I-175400J0D01*
G01*
G37*
%TD*%
D17*
%TO.C,TP2*%
X165300000Y-83200000D03*
%TD*%
%TO.C,TP1*%
X165300000Y-81100000D03*
%TD*%
%TO.C,R8*%
G36*
G01*
X142175800Y-79521286D02*
X142175800Y-80478714D01*
G75*
G02*
X141903714Y-80750800I-272086J0D01*
G01*
X141196286Y-80750800D01*
G75*
G02*
X140924200Y-80478714I0J272086D01*
G01*
X140924200Y-79521286D01*
G75*
G02*
X141196286Y-79249200I272086J0D01*
G01*
X141903714Y-79249200D01*
G75*
G02*
X142175800Y-79521286I0J-272086D01*
G01*
G37*
G36*
G01*
X144225800Y-79521286D02*
X144225800Y-80478714D01*
G75*
G02*
X143953714Y-80750800I-272086J0D01*
G01*
X143246286Y-80750800D01*
G75*
G02*
X142974200Y-80478714I0J272086D01*
G01*
X142974200Y-79521286D01*
G75*
G02*
X143246286Y-79249200I272086J0D01*
G01*
X143953714Y-79249200D01*
G75*
G02*
X144225800Y-79521286I0J-272086D01*
G01*
G37*
%TD*%
%TO.C,R7*%
G36*
G01*
X151878714Y-92775800D02*
X150921286Y-92775800D01*
G75*
G02*
X150649200Y-92503714I0J272086D01*
G01*
X150649200Y-91796286D01*
G75*
G02*
X150921286Y-91524200I272086J0D01*
G01*
X151878714Y-91524200D01*
G75*
G02*
X152150800Y-91796286I0J-272086D01*
G01*
X152150800Y-92503714D01*
G75*
G02*
X151878714Y-92775800I-272086J0D01*
G01*
G37*
G36*
G01*
X151878714Y-94825800D02*
X150921286Y-94825800D01*
G75*
G02*
X150649200Y-94553714I0J272086D01*
G01*
X150649200Y-93846286D01*
G75*
G02*
X150921286Y-93574200I272086J0D01*
G01*
X151878714Y-93574200D01*
G75*
G02*
X152150800Y-93846286I0J-272086D01*
G01*
X152150800Y-94553714D01*
G75*
G02*
X151878714Y-94825800I-272086J0D01*
G01*
G37*
%TD*%
%TO.C,R5*%
G36*
G01*
X154478714Y-92775800D02*
X153521286Y-92775800D01*
G75*
G02*
X153249200Y-92503714I0J272086D01*
G01*
X153249200Y-91796286D01*
G75*
G02*
X153521286Y-91524200I272086J0D01*
G01*
X154478714Y-91524200D01*
G75*
G02*
X154750800Y-91796286I0J-272086D01*
G01*
X154750800Y-92503714D01*
G75*
G02*
X154478714Y-92775800I-272086J0D01*
G01*
G37*
G36*
G01*
X154478714Y-94825800D02*
X153521286Y-94825800D01*
G75*
G02*
X153249200Y-94553714I0J272086D01*
G01*
X153249200Y-93846286D01*
G75*
G02*
X153521286Y-93574200I272086J0D01*
G01*
X154478714Y-93574200D01*
G75*
G02*
X154750800Y-93846286I0J-272086D01*
G01*
X154750800Y-94553714D01*
G75*
G02*
X154478714Y-94825800I-272086J0D01*
G01*
G37*
%TD*%
D18*
%TO.C,JP11*%
X153600000Y-99000000D03*
X154900000Y-99000000D03*
X152300000Y-99000000D03*
%TD*%
%TO.C,C6*%
G36*
G01*
X142974200Y-78078714D02*
X142974200Y-77121286D01*
G75*
G02*
X143246286Y-76849200I272086J0D01*
G01*
X143953714Y-76849200D01*
G75*
G02*
X144225800Y-77121286I0J-272086D01*
G01*
X144225800Y-78078714D01*
G75*
G02*
X143953714Y-78350800I-272086J0D01*
G01*
X143246286Y-78350800D01*
G75*
G02*
X142974200Y-78078714I0J272086D01*
G01*
G37*
G36*
G01*
X140924200Y-78078714D02*
X140924200Y-77121286D01*
G75*
G02*
X141196286Y-76849200I272086J0D01*
G01*
X141903714Y-76849200D01*
G75*
G02*
X142175800Y-77121286I0J-272086D01*
G01*
X142175800Y-78078714D01*
G75*
G02*
X141903714Y-78350800I-272086J0D01*
G01*
X141196286Y-78350800D01*
G75*
G02*
X140924200Y-78078714I0J272086D01*
G01*
G37*
%TD*%
D19*
%TO.C,U3*%
X150500000Y-75250000D03*
D20*
X152000000Y-72750000D03*
X151500000Y-72750000D03*
X151000000Y-72750000D03*
X150500000Y-72750000D03*
X150000000Y-72750000D03*
X149500000Y-72750000D03*
D21*
X148000000Y-73750000D03*
X148000000Y-74250000D03*
X148000000Y-74750000D03*
X148000000Y-75250000D03*
X148000000Y-75750000D03*
X148000000Y-76250000D03*
D20*
X149000000Y-77750000D03*
X149500000Y-77750000D03*
X150000000Y-77750000D03*
X150500000Y-77750000D03*
X151000000Y-77750000D03*
X151500000Y-77750000D03*
D21*
X153000000Y-76750000D03*
X153000000Y-76250000D03*
X153000000Y-75750000D03*
X153000000Y-75250000D03*
X153000000Y-74750000D03*
X153000000Y-74250000D03*
X153000000Y-73750000D03*
D20*
X152000000Y-77750000D03*
D21*
X148000000Y-76750000D03*
D20*
X149000000Y-72750000D03*
%TD*%
D22*
%TO.C,J11*%
X160880000Y-77330000D03*
X169520000Y-77330000D03*
D23*
X160880000Y-73160000D03*
X169520000Y-73160000D03*
D24*
X164450000Y-77910000D03*
X164950000Y-77910000D03*
X165450000Y-77910000D03*
X163450000Y-77910000D03*
X163950000Y-77910000D03*
X166450000Y-77910000D03*
X165950000Y-77910000D03*
X166950000Y-77910000D03*
D25*
X168090000Y-76850000D03*
X162310000Y-76850000D03*
D26*
X162800000Y-77910000D03*
X162800000Y-77910000D03*
X162000000Y-77910000D03*
X162000000Y-77910000D03*
X167600000Y-77910000D03*
X168400000Y-77910000D03*
X167600000Y-77910000D03*
X168400000Y-77910000D03*
%TD*%
%TO.C,F1*%
G36*
G01*
X115975800Y-82321286D02*
X115975800Y-83278714D01*
G75*
G02*
X115703714Y-83550800I-272086J0D01*
G01*
X114996286Y-83550800D01*
G75*
G02*
X114724200Y-83278714I0J272086D01*
G01*
X114724200Y-82321286D01*
G75*
G02*
X114996286Y-82049200I272086J0D01*
G01*
X115703714Y-82049200D01*
G75*
G02*
X115975800Y-82321286I0J-272086D01*
G01*
G37*
G36*
G01*
X118025800Y-82321286D02*
X118025800Y-83278714D01*
G75*
G02*
X117753714Y-83550800I-272086J0D01*
G01*
X117046286Y-83550800D01*
G75*
G02*
X116774200Y-83278714I0J272086D01*
G01*
X116774200Y-82321286D01*
G75*
G02*
X117046286Y-82049200I272086J0D01*
G01*
X117753714Y-82049200D01*
G75*
G02*
X118025800Y-82321286I0J-272086D01*
G01*
G37*
%TD*%
%TO.C,C5*%
G36*
G01*
X154321286Y-78374200D02*
X155278714Y-78374200D01*
G75*
G02*
X155550800Y-78646286I0J-272086D01*
G01*
X155550800Y-79353714D01*
G75*
G02*
X155278714Y-79625800I-272086J0D01*
G01*
X154321286Y-79625800D01*
G75*
G02*
X154049200Y-79353714I0J272086D01*
G01*
X154049200Y-78646286D01*
G75*
G02*
X154321286Y-78374200I272086J0D01*
G01*
G37*
G36*
G01*
X154321286Y-76324200D02*
X155278714Y-76324200D01*
G75*
G02*
X155550800Y-76596286I0J-272086D01*
G01*
X155550800Y-77303714D01*
G75*
G02*
X155278714Y-77575800I-272086J0D01*
G01*
X154321286Y-77575800D01*
G75*
G02*
X154049200Y-77303714I0J272086D01*
G01*
X154049200Y-76596286D01*
G75*
G02*
X154321286Y-76324200I272086J0D01*
G01*
G37*
%TD*%
%TO.C,C4*%
G36*
G01*
X150221286Y-81174200D02*
X151178714Y-81174200D01*
G75*
G02*
X151450800Y-81446286I0J-272086D01*
G01*
X151450800Y-82153714D01*
G75*
G02*
X151178714Y-82425800I-272086J0D01*
G01*
X150221286Y-82425800D01*
G75*
G02*
X149949200Y-82153714I0J272086D01*
G01*
X149949200Y-81446286D01*
G75*
G02*
X150221286Y-81174200I272086J0D01*
G01*
G37*
G36*
G01*
X150221286Y-79124200D02*
X151178714Y-79124200D01*
G75*
G02*
X151450800Y-79396286I0J-272086D01*
G01*
X151450800Y-80103714D01*
G75*
G02*
X151178714Y-80375800I-272086J0D01*
G01*
X150221286Y-80375800D01*
G75*
G02*
X149949200Y-80103714I0J272086D01*
G01*
X149949200Y-79396286D01*
G75*
G02*
X150221286Y-79124200I272086J0D01*
G01*
G37*
%TD*%
%TO.C,C3*%
G36*
G01*
X152271286Y-81174200D02*
X153228714Y-81174200D01*
G75*
G02*
X153500800Y-81446286I0J-272086D01*
G01*
X153500800Y-82153714D01*
G75*
G02*
X153228714Y-82425800I-272086J0D01*
G01*
X152271286Y-82425800D01*
G75*
G02*
X151999200Y-82153714I0J272086D01*
G01*
X151999200Y-81446286D01*
G75*
G02*
X152271286Y-81174200I272086J0D01*
G01*
G37*
G36*
G01*
X152271286Y-79124200D02*
X153228714Y-79124200D01*
G75*
G02*
X153500800Y-79396286I0J-272086D01*
G01*
X153500800Y-80103714D01*
G75*
G02*
X153228714Y-80375800I-272086J0D01*
G01*
X152271286Y-80375800D01*
G75*
G02*
X151999200Y-80103714I0J272086D01*
G01*
X151999200Y-79396286D01*
G75*
G02*
X152271286Y-79124200I272086J0D01*
G01*
G37*
%TD*%
D27*
%TO.C,J10*%
X183080000Y-75000000D03*
D28*
X178000000Y-75000000D03*
%TD*%
D27*
%TO.C,J1*%
X115920000Y-107000000D03*
D28*
X121000000Y-107000000D03*
%TD*%
D13*
%TO.C,J2*%
X133446000Y-105897000D03*
X133446000Y-108437000D03*
X130906000Y-105897000D03*
X130906000Y-108437000D03*
X128366000Y-105897000D03*
X128366000Y-108437000D03*
X125826000Y-105897000D03*
D14*
X125826000Y-108437000D03*
%TD*%
D13*
%TO.C,J9*%
X158100000Y-86980000D03*
X158100000Y-89520000D03*
X158100000Y-92060000D03*
D14*
X158100000Y-94600000D03*
%TD*%
D13*
%TO.C,J7*%
X179832000Y-82042000D03*
X177292000Y-82042000D03*
X174752000Y-82042000D03*
D14*
X172212000Y-82042000D03*
%TD*%
D29*
%TO.C,H4*%
X200000000Y-107000000D03*
%TD*%
%TO.C,H3*%
X108000000Y-107000000D03*
%TD*%
%TO.C,H2*%
X200000000Y-75000000D03*
%TD*%
%TO.C,H1*%
X108000000Y-84836000D03*
%TD*%
D13*
%TO.C,J3*%
X136081000Y-95600000D03*
X133541000Y-95600000D03*
X131001000Y-95600000D03*
X128461000Y-95600000D03*
X125921000Y-95600000D03*
X123381000Y-95600000D03*
X120841000Y-95600000D03*
X118301000Y-95600000D03*
X115761000Y-95600000D03*
X113221000Y-95600000D03*
X110681000Y-95600000D03*
D14*
X108141000Y-95600000D03*
%TD*%
%TO.C,J5*%
X136081000Y-73600000D03*
D13*
X133541000Y-73600000D03*
X131001000Y-73600000D03*
X128461000Y-73600000D03*
X125921000Y-73600000D03*
X123381000Y-73600000D03*
X120841000Y-73600000D03*
X118301000Y-73600000D03*
X115761000Y-73600000D03*
X113221000Y-73600000D03*
X110681000Y-73600000D03*
X108141000Y-73600000D03*
%TD*%
%TO.C,J6*%
X184670000Y-109000000D03*
X187210000Y-109000000D03*
D14*
X189750000Y-109000000D03*
%TD*%
%TO.C,J8*%
X200000000Y-83300000D03*
D13*
X200000000Y-85840000D03*
X200000000Y-88380000D03*
%TD*%
D16*
%TO.C,U2*%
X185600000Y-97200000D03*
D15*
X193220000Y-89580000D03*
X188140000Y-97200000D03*
X190680000Y-89580000D03*
X190680000Y-97200000D03*
X188140000Y-89580000D03*
X193220000Y-97200000D03*
X185600000Y-89580000D03*
%TD*%
M02*
