M48
; DRILL file {KiCad (5.1.6)-1} date 01/14/21 00:20:55
; FORMAT={-:-/ absolute / inch / decimal}
; #@! TF.CreationDate,2021-01-14T00:20:55+08:00
; #@! TF.GenerationSoftware,Kicad,Pcbnew,(5.1.6)-1
; #@! TF.FileFunction,Plated,1,2,PTH
FMAT,2
INCH
T1C0.0157
T2C0.0200
T3C0.0236
T4C0.0315
T5C0.0394
T6C0.0430
T7C0.0598
T8C0.1260
%
G90
G05
T1
X4.2913Y-3.9272
X4.5177Y-3.9272
X5.3858Y-3.1575
X5.4882Y-3.878
X5.4921Y-3.1102
X5.5413Y-2.9528
X5.6299Y-2.8898
X5.6421Y-3.5949
X5.6667Y-3.5703
X5.6913Y-3.5457
X5.6988Y-3.0413
X5.748Y-3.7106
X5.748Y-3.7598
X5.752Y-2.9232
X5.752Y-2.9626
X5.8386Y-3.2008
X5.874Y-3.1693
X5.8898Y-2.9331
X5.8898Y-2.9921
X5.9567Y-2.9331
X5.9567Y-2.9921
X5.9622Y-3.6244
X6.0157Y-3.9685
X6.02Y-2.831
X6.0646Y-3.6244
X6.0728Y-2.8839
X6.2283Y-3.1772
X6.2598Y-3.8976
X6.3063Y-3.5315
X6.3071Y-3.7008
X6.3091Y-3.8976
X6.315Y-3.1181
X6.3465Y-3.5748
X6.3465Y-3.6772
X6.3504Y-3.1181
X6.3897Y-3.2049
X6.4075Y-3.2579
X6.4272Y-3.8998
X6.4491Y-4.0933
X6.5551Y-3.9862
X6.6614Y-3.6339
X6.6695Y-3.7955
X6.6707Y-3.1207
X6.6791Y-3.2185
X6.6982Y-3.1482
X6.7126Y-3.3169
X6.7195Y-3.7963
X6.7421Y-3.9665
X6.7695Y-3.797
X6.7717Y-2.8937
X6.7717Y-2.9429
X6.7756Y-3.1417
X6.8056Y-3.3214
X6.811Y-3.376
X6.8425Y-3.8976
X6.8583Y-3.4134
X6.8964Y-3.5224
X6.9587Y-3.376
X7.0354Y-3.8031
X7.1772Y-3.5315
X7.3858Y-3.3307
X7.6083Y-3.6614
X7.6083Y-3.7008
X7.6378Y-3.1417
T2
X4.5512Y-3.189
X4.622Y-3.2598
X5.3898Y-3.2559
T4
X5.561Y-3.4449
X5.561Y-3.5449
X5.861Y-3.4449
X5.861Y-3.5449
X7.3071Y-3.5268
X7.3071Y-3.8268
X7.4071Y-3.5268
X7.4071Y-3.8268
X7.5071Y-3.5268
X7.5071Y-3.8268
X7.6071Y-3.5268
X7.6071Y-3.8268
T5
X4.9538Y-4.1692
X4.9538Y-4.2692
X5.0538Y-4.1692
X5.0538Y-4.2692
X5.1538Y-4.1692
X5.1538Y-4.2692
X5.2538Y-4.1692
X5.2538Y-4.2692
X6.2244Y-3.4244
X6.2244Y-3.5244
X6.2244Y-3.6244
X6.2244Y-3.7244
X6.78Y-3.23
X6.88Y-3.23
X6.98Y-3.23
X7.08Y-3.23
X7.2705Y-4.2913
X7.3705Y-4.2913
X7.4705Y-4.2913
X5.63Y-4.13
X5.63Y-4.23
X5.73Y-4.13
X5.73Y-4.23
X5.83Y-4.13
X5.83Y-4.23
X5.93Y-4.13
X5.93Y-4.23
X6.03Y-4.13
X6.03Y-4.23
X7.874Y-3.2795
X7.874Y-3.3795
X7.874Y-3.4795
X4.2575Y-2.8976
X4.3575Y-2.8976
X4.4575Y-2.8976
X4.5575Y-2.8976
X4.6575Y-2.8976
X4.7575Y-2.8976
X4.8575Y-2.8976
X4.9575Y-2.8976
X5.0575Y-2.8976
X5.1575Y-2.8976
X5.2575Y-2.8976
X5.3575Y-2.8976
X6.4272Y-4.2913
X6.5272Y-4.2913
X6.6272Y-4.2913
X6.7272Y-4.2913
X6.8272Y-4.2913
X6.9272Y-4.2913
X7.0272Y-4.2913
X7.1272Y-4.2913
X4.2575Y-3.7638
X4.3575Y-3.7638
X4.4575Y-3.7638
X4.5575Y-3.7638
X4.6575Y-3.7638
X4.7575Y-3.7638
X4.8575Y-3.7638
X4.9575Y-3.7638
X5.0575Y-3.7638
X5.1575Y-3.7638
X5.2575Y-3.7638
X5.3575Y-3.7638
T6
X4.2575Y-3.0325
X4.2575Y-3.6325
X4.3575Y-3.0325
X4.3575Y-3.6325
X4.4575Y-3.0325
X4.4575Y-3.6325
X4.5575Y-3.0325
X4.5575Y-3.6325
X4.6575Y-3.0325
X4.6575Y-3.6325
X4.7575Y-3.0325
X4.7575Y-3.6325
X4.8575Y-3.0325
X4.8575Y-3.6325
X4.9575Y-3.0325
X4.9575Y-3.6325
X5.0575Y-3.0325
X5.0575Y-3.6325
X5.1575Y-3.0325
X5.1575Y-3.6325
X5.2575Y-3.0325
X5.2575Y-3.6325
X5.3575Y-3.0325
X5.3575Y-3.6325
T7
X4.5638Y-4.2126
X4.7638Y-4.2126
X7.0079Y-2.9528
X7.2079Y-2.9528
T8
X4.252Y-3.34
X7.874Y-4.2126
X7.874Y-2.9528
X4.252Y-4.2126
T3
G00X6.3339Y-2.8646
M15
G01X6.3339Y-2.8961
M16
G05
G00X6.3339Y-3.0228
M15
G01X6.3339Y-3.0661
M16
G05
G00X6.674Y-2.8646
M15
G01X6.674Y-2.8961
M16
G05
G00X6.674Y-3.0228
M15
G01X6.674Y-3.0661
M16
G05
T0
M30
